<svg width="276" height="398" fill="none" xmlns="http://www.w3.org/2000/svg"><g opacity=".15"><path fill-rule="evenodd" clip-rule="evenodd" d="M98.899 182.342c6.998-35.032-8.258-75.908 13.115-104.528 21.341-28.576 63.599-28.018 96.369-42.081C236.988 23.457 261.928 2.036 292.997.147c31.86-1.937 60.198 15.74 90.77 24.921 39.822 11.96 98.89-.143 116.768 37.41 18.507 38.876-45.597 76.963-41.896 119.864 4.283 49.649 88.469 89.221 63.663 132.436-24.774 43.159-97.335 2.427-146.259 11.455-29.543 5.451-53.83 23.86-83.046 30.857-36.523 8.747-72.778 22.248-109.685 15.3-44.005-8.283-100.327-17.319-118.509-58.253-18.738-42.189 25.052-86.525 34.096-131.795z" fill="#4000F5"/><path fill-rule="evenodd" clip-rule="evenodd" d="M98.899 182.342c6.998-35.032-8.258-75.908 13.115-104.528 21.341-28.576 63.599-28.018 96.369-42.081C236.988 23.457 261.928 2.036 292.997.147c31.86-1.937 60.198 15.74 90.77 24.921 39.822 11.96 98.89-.143 116.768 37.41 18.507 38.876-45.597 76.963-41.896 119.864 4.283 49.649 88.469 89.221 63.663 132.436-24.774 43.159-97.335 2.427-146.259 11.455-29.543 5.451-53.83 23.86-83.046 30.857-36.523 8.747-72.778 22.248-109.685 15.3-44.005-8.283-100.327-17.319-118.509-58.253-18.738-42.189 25.052-86.525 34.096-131.795z" fill="url(#paint0_linear)"/><path d="M54.6 155.462c.77 0 1.394-.375 1.394-.838 0-.464-.624-.839-1.394-.839-.77 0-1.393.375-1.393.839 0 .463.624.838 1.393.838z" fill="#fff" stroke="#fff" stroke-width="2.946" stroke-linecap="square"/><circle opacity=".307" cx="49.69" cy="209.21" r="11.673" transform="rotate(79.098 49.69 209.21)" stroke="#9EAFFC" stroke-width="3"/><rect opacity=".887" x="17.753" y="142.108" width="28.185" height="28.185" rx="14.092" transform="rotate(39.042 17.753 142.108)" fill="#A4A0FC"/><path opacity=".489" d="M79.225 159.547a3.635 3.635 0 11-5.992 4.115 3.635 3.635 0 015.992-4.115z" stroke="#9EAFFC" stroke-width="3"/><circle opacity=".591" cx="121.639" cy="329.892" r="5.102" transform="rotate(-43.1 121.639 329.892)" fill="#fff"/><circle opacity=".067" cx="112.977" cy="151.555" r="1.5" transform="rotate(63.887 112.977 151.555)" stroke="#fff" stroke-width="2.907"/><rect opacity=".171" x="242.774" y="189.218" width="6.444" height="6.444" rx="3" transform="rotate(133.351 242.774 189.218)" fill="#fff"/><circle opacity=".859" cx="164.167" cy="289.117" r="37.278" transform="rotate(92.28 164.167 289.117)" stroke="#fff" stroke-width="3"/><circle opacity=".859" cx="282.015" cy="223.599" r="10.978" transform="rotate(92.28 282.015 223.599)" stroke="#fff" stroke-opacity=".05" stroke-width="3"/><circle opacity=".227" cx="127.539" cy="327.623" r="5.102" transform="rotate(119.154 127.539 327.623)" fill="#fff"/><rect opacity=".887" x="228.147" y="217.936" width="16.211" height="16.211" rx="5" transform="rotate(39.042 228.147 217.936)" fill="#fff"/></g><defs><linearGradient id="paint0_linear" x1=".578" y1="47.795" x2="425.1" y2="331.078" gradientUnits="userSpaceOnUse"><stop stop-color="#fff"/><stop offset=".552" stop-color="#BEEFFF" stop-opacity=".375"/><stop offset="1" stop-color="#fff" stop-opacity="0"/></linearGradient></defs></svg>