<svg width="1275" height="876" fill="none" xmlns="http://www.w3.org/2000/svg"><rect opacity=".887" x="1252.18" y="835" width="28.861" height="28.861" rx="5" transform="rotate(39.042 1252.18 835)" fill="#fff"/><path fill-rule="evenodd" clip-rule="evenodd" d="M-31.555 66.94C-.91 64.565 33.912 56.068 58.02 75.157c24.007 19.01 17.579 56.388 28.275 85.101 11.416 30.647 48.204 58.018 36.4 88.518-11.954 30.886-59.088 24.727-87.069 42.399-25.083 15.842-38.484 47.525-67.18 55.022-32.832 8.577-75.389 13.062-98.611-11.708-23.747-25.328 1.085-67.719-7.43-101.396-7.575-29.954-44.313-51.222-38.853-81.634 5.47-30.465 38.138-47.586 64.851-63.168 24.456-14.267 51.823-19.168 80.043-21.353z" fill="#FB52C3"/><path fill-rule="evenodd" clip-rule="evenodd" d="M-31.555 66.94C-.91 64.565 33.912 56.068 58.02 75.157c24.007 19.01 17.579 56.388 28.275 85.101 11.416 30.647 48.204 58.018 36.4 88.518-11.954 30.886-59.088 24.727-87.069 42.399-25.083 15.842-38.484 47.525-67.18 55.022-32.832 8.577-75.389 13.062-98.611-11.708-23.747-25.328 1.085-67.719-7.43-101.396-7.575-29.954-44.313-51.222-38.853-81.634 5.47-30.465 38.138-47.586 64.851-63.168 24.456-14.267 51.823-19.168 80.043-21.353z" fill="url(#paint0_linear)"/><rect x="67" y="9.781" width="19.562" height="19.562" rx="5" transform="rotate(-30 67 9.78)" fill="#FEACCF"/><path d="M27.54 367.99c3.038-5.261 9.766-7.063 15.027-4.026l23.516 13.577c5.26 3.037 7.064 9.765 4.026 15.026l-13.577 23.516c-3.037 5.261-9.765 7.063-15.026 4.026L17.99 406.532c-5.26-3.037-7.063-9.765-4.026-15.026l13.577-23.516z" stroke="#FC75CD" stroke-width="8"/><circle opacity=".332" cx="97.569" cy="103.569" r="2.475" transform="rotate(-80.621 97.57 103.569)" stroke="#FD8BD2" stroke-width="3"/><circle opacity=".6" cx="82.338" cy="181.805" r="2.475" transform="rotate(112.563 82.338 181.805)" stroke="#fff" stroke-width="3"/><path opacity=".066" stroke="#fff" stroke-width="8" d="M95.317 198.839l8.299-2.336 2.335 8.299-8.298 2.336z"/><g opacity=".59"><mask id="a" fill="#fff"><rect x="46.342" y="152.921" width="16.621" height="16.621" rx="5" transform="rotate(95.323 46.342 152.921)"/></mask><rect x="46.342" y="152.921" width="16.621" height="16.621" rx="5" transform="rotate(95.323 46.342 152.921)" stroke="#fff" stroke-width="16" mask="url(#a)"/></g><path opacity=".221" fill="#fff" d="M-1 432.846l11.634 2.943-2.944 11.634-11.633-2.943z"/><g opacity=".215"><mask id="b" fill="#fff"><rect x="-24.379" y="51.07" width="35.634" height="35.634" rx="5" transform="rotate(-95.832 -24.38 51.07)"/></mask><rect x="-24.379" y="51.07" width="35.634" height="35.634" rx="5" transform="rotate(-95.832 -24.38 51.07)" stroke="#FFAFCD" stroke-width="16" mask="url(#b)"/></g><defs><linearGradient id="paint0_linear" x1="-26" y1="63" x2="-26" y2="353" gradientUnits="userSpaceOnUse"><stop stop-color="#FFB1C9"/><stop offset="1" stop-color="#fff" stop-opacity="0"/></linearGradient></defs></svg>