<svg xmlns="http://www.w3.org/2000/svg" version="1.1" id="svg760" width="150" height="173.185"><style id="style2">.st56{fill:#f05326}.st58{fill:#dd1e32}.st59{fill:#84c441}.st60{fill:#29a84a}.st61{fill:#9bcb3c}.st62{fill:#e1a96c}.st63{fill:#fdc795}.st64{fill:#fcc184}.st67{fill:#329952}.st72{fill:#63a5b7}.st75{fill:#3f2e89}.st79{fill:#3a3a3a}.st81{fill:#69503f}.st82{fill:#4a494a}.st92{fill:#d85427}.st95{fill:#912b1e}</style><g id="Layer_3" transform="matrix(.05561 0 0 .05561 -25.465 -23.847)"><path id="XMLID_295_" class="st56" d="M1365.8 1082.8l-280.6 140.4 294.3 150.1 152.2-71.7 143.4 71.7 70.3-40.8-288.7-143.5" fill="#f05326"/><path id="XMLID_294_" d="M1378.9 2147.7v-775.6l-293.7-152.2v778.2z" fill="#dd3a26"/><path id="XMLID_293_" class="st58" d="M1505.8 883.6l-262.5-121-64.9 29.4L1443 915.5z" fill="#dd1e32"/><path id="XMLID_292_" class="st58" d="M1393.6 925l-259-118.2-64.9 29.5 261.2 120.6z" fill="#dd1e32"/><path id="XMLID_291_" class="st59" d="M1167.9 2824.7l-442.7-203.5-152.3 69.1 447.9 209.2z" fill="#84c441"/><path id="XMLID_290_" class="st60" d="M2090.5 2972.5V3452L787.9 2830.7V2356z" fill="#29a84a"/><path id="XMLID_289_" class="st61" d="M2090.5 2972.5l872.8-432.6v481.5L2088.5 3452z" fill="#9bcb3c"/><path id="XMLID_288_" class="st59" d="M2090.5 2972.5L787.9 2356l859.9-345.5 1315.5 529.4z" fill="#84c441"/><path id="XMLID_287_" class="st62" d="M1928 1490.3v145.9l591.2 284.1v-151.7L1928 1490.3" fill="#e1a96c"/><path id="XMLID_286_" class="st63" d="M2666.4 1693.8l-442.8-203.5-152.3 69.1 447.9 209.2z" fill="#fdc795"/><path id="XMLID_285_" class="st64" d="M2519.2 1920.3l147.2-71v-155.5l-147.2 74.8z" fill="#fcc184"/><path id="XMLID_284_" d="M787.9 2356v294.5l1300.6 605.6 2-283.6z" fill="#1d9246"/><path id="XMLID_283_" d="M2088.5 3256.1l877.3-425.4-2.5-290.8-872.8 432.6z" fill="#1ba34a"/><path id="XMLID_282_" class="st67" d="M787.9 2356l297.3 144 146.9-218.7z" fill="#329952"/><path id="XMLID_281_" class="st67" d="M1550.9 2434.8l-444.2 74.8 296.8 137.7" fill="#329952"/><path id="XMLID_280_" class="st67" d="M1901.5 2604.2l-439.8 74.1 292.9 136.2" fill="#329952"/><path id="XMLID_279_" class="st67" d="M2240.3 2759.1l-444.2 74.7 294.4 138.7" fill="#329952"/><path id="XMLID_278_" class="st60" d="M787.9 2830.7l-215-103v-37.4l215 100.4z" fill="#29a84a"/><path id="XMLID_277_" d="M1628.6 1498.6l70.3-40.7 82 40.7 447.8-222.6v780.6L1630.5 2333l-1.9-834.4" fill="#e5e5e5"/><path id="XMLID_276_" d="M1780.9 861.4L1333 648.9V1276l447.9 222.6z" fill="#3e2712"/><path id="XMLID_275_" d="M1780.9 861.4l447.8-212.5V1276l-447.8 222.6z" fill="#704825"/><path id="XMLID_274_" d="M1333 648.9l447.9 212.5 447.8-212.5-447.8-220.1z" fill="#603f26"/><path id="XMLID_273_" class="st63" d="M1410.2 1314.4L1189.7 1427l143.3 71.6 152.3-71.6 143.3 71.6 70.3-40.7-288.7-143.5" fill="#fdc795"/><path id="XMLID_272_" class="st62" d="M1333 1910.7v-412.1l-143.3-71.6v414.6z" fill="#e1a96c"/><path id="XMLID_271_" class="st72" d="M1629.5 1907.9l-.9-409.3-143.3-71.6v414.6z" fill="#63a5b7"/><path id="XMLID_270_" class="st64" d="M1485.3 1427l-152.3 71.6v412.1l152.3-69.1V1427" fill="#fcc184"/><path id="XMLID_269_" class="st63" d="M1928 2045l-442.7-203.4-152.3 69.1 447.9 209.2z" fill="#fdc795"/><path id="XMLID_268_" class="st72" d="M1630.5 2333L1333 2196.7l.5-140.1 297 138.2V2333" fill="#63a5b7"/><path id="XMLID_267_" d="M1630.5 2333v282.8l598.2-282.8v-276.4L1630.5 2333" fill="#08ae87"/><path id="XMLID_266_" class="st62" d="M1627 941.3l153.9 72.3v485l-153.9-76.5z" fill="#e1a96c"/><path id="XMLID_265_" class="st58" d="M1780.9 953.5v152.3L1333 894.6V741.1l447.9 212.4" fill="#dd1e32"/><path id="XMLID_264_" class="st67" d="M1507.1 2557.8l-44.9 88 172.6-28.8z" fill="#329952"/><path id="XMLID_263_" class="st67" d="M946.8 2292.1l301.1-42 85.1-39.4V2137z" fill="#329952"/><path id="XMLID_262_" class="st67" d="M1333 2244.4l-67.1 32.8-119.4 192.9 186.5-30.8z" fill="#329952"/><path id="XMLID_261_" d="M1333 2400.8l-247.8 99.2 527.2 250.6 176.7-59.1L1333 2475z" fill="#bd65a8"/><path id="XMLID_260_" class="st75" d="M1085.2 2500l527.2 249v183.7l-527.2-261.8z" fill="#3f2e89"/><path id="XMLID_187_" class="st75" d="M1085.2 2666.4l27.1 14.1v77.3l-27.1-14.3z" fill="#3f2e89"/><path id="XMLID_191_" class="st75" d="M1133 2688.6l27.1 14v77.3l-27.1-14.3z" fill="#3f2e89"/><path id="XMLID_325_" class="st75" d="M1183.2 2712.4l27.1 14.1v77.2l-27.1-14.2z" fill="#3f2e89"/><path id="XMLID_323_" class="st75" d="M1232 2735.5l27.1 14.1v77.2l-27.1-14.2z" fill="#3f2e89"/><path id="XMLID_360_" class="st75" d="M1284 2763.9l27.1 14v77.3l-27.1-14.3z" fill="#3f2e89"/><path id="XMLID_336_" class="st75" d="M1331.8 2786l27 14.1v77.2l-27-14.3z" fill="#3f2e89"/><path id="XMLID_330_" class="st75" d="M1382 2809.8l27.1 14.1v77.3l-27.1-14.3z" fill="#3f2e89"/><path id="XMLID_326_" class="st75" d="M1430.8 2836.3l27.1 14.1v77.2l-27.1-14.3z" fill="#3f2e89"/><path id="XMLID_365_" class="st75" d="M1481.3 2863.9l27.1 14.1v77.2l-27.1-14.2z" fill="#3f2e89"/><path id="XMLID_363_" class="st75" d="M1533.7 2887l27.1 14.1v77.2l-27.1-14.2z" fill="#3f2e89"/><path id="XMLID_362_" class="st75" d="M1585.3 2914.6l27.1 14v77.3l-27.1-14.3z" fill="#3f2e89"/><linearGradient id="XMLID_396_" gradientUnits="userSpaceOnUse" x1="793.537" y1="2904.869" x2="2968.937" y2="2904.869"><stop offset="0" stop-color="#bd8e5c" stop-opacity=".2" id="stop309"/><stop offset=".005" stop-color="#65b847" stop-opacity=".393" id="stop311"/><stop offset="1" stop-color="#3d8c71" stop-opacity=".4" id="stop313"/></linearGradient><path id="XMLID_259_" d="M793.5 2356.9l2175.4 183.9-874.7 912.1z" fill="url(#XMLID_396_)"/><path id="XMLID_258_" class="st62" d="M1627 2467v145.9l449.5 217.8v-151.6" fill="#e1a96c"/><path id="XMLID_257_" class="st63" d="M2223.6 2604.2l-442.7-203.4-152.3 69.1 447.9 209.2z" fill="#fdc795"/><path id="XMLID_256_" class="st64" d="M2076.5 2830.7l147.1-71v-155.5l-147.1 74.9z" fill="#fcc184"/><path id="XMLID_255_" class="st62" d="M2077.1 2260.3v144.3l447.9 216.6v-151.6" fill="#e1a96c"/><path id="XMLID_254_" class="st63" d="M2672.1 2394.7l-442.7-203.5-152.3 69.1 447.9 209.3z" fill="#fdc795"/><path id="XMLID_252_" class="st59" d="M1881.2 3311.5l-252 119.5-198.3-94.1 262.3-117z" fill="#84c441"/><path id="XMLID_251_" class="st60" d="M1630.8 3468.2l-199.9-95.8v-37.5l200 93.5z" fill="#29a84a"/><path id="XMLID_250_" class="st61" d="M1630.9 3428.4l250.3-116.9v40.7l-250.4 116z" fill="#9bcb3c"/><path id="XMLID_249_" class="st60" d="M2348.4 3010.6v309l428 223.3v-331.1z" fill="#29a84a"/><path id="XMLID_248_" class="st59" d="M2348.4 3010.6l375.9-184.8 430.8 209-378.7 179.5z" fill="#84c441"/><path id="XMLID_247_" class="st61" d="M2776.4 3542.9v-328.6l378.7-179.5v316.8z" fill="#9bcb3c"/><path id="XMLID_246_" d="M1979.7 1332.6l73.6-35.5v-77.8l-73.6 37.5z" fill="#3d3d3d"/><path id="XMLID_245_" class="st79" d="M2697.4 3282.1l-62.1-29.5v86.9l62.1 30.9z" fill="#3a3a3a"/><path id="XMLID_244_" class="st60" d="M2847.8 3447.8l72.4-37.9-2.6-77.7-72.3 39.8z" fill="#29a84a"/><path id="XMLID_243_" class="st60" d="M3049.3 3348.8l72.4-38-2.6-77.7-72.3 39.9z" fill="#29a84a"/><path id="XMLID_242_" class="st62" d="M1780.9 1333.7l351.2-171v383.2l-351.2 176.3z" fill="#e1a96c"/><path id="XMLID_241_" class="st64" d="M1780.9 1013.6L2228.7 794v482.7l-447.8 221.9z" fill="#fcc184"/><path id="XMLID_240_" d="M1780.9 953.5v152.3l447.8-219.6V741.1l-447.8 212.4" fill="#ef4225"/><path id="XMLID_239_" class="st81" d="M1871.7 1203l73.6-35.6v-77.7l-73.6 37.4z" fill="#69503f"/><path id="XMLID_238_" class="st81" d="M2076.4 1110.6l73.6-35.5v-77.8l-73.6 37.5z" fill="#69503f"/><path id="XMLID_237_" class="st82" d="M1698.9 1478.3v-20.4l-35.2 20.4v445.3l35.2 16.1z" fill="#4a494a"/><path id="XMLID_236_" class="st79" d="M1663.7 1478.3l-308.2-152.8 36.7-20.1 306.7 152.5z" fill="#3a3a3a"/><path id="XMLID_235_" class="st82" d="M2228.7 1309.1V1276l-35.1 18.1v778.7l35.1-16.2z" fill="#4a494a"/><path id="XMLID_234_" class="st81" d="M1983.3 1306.8c19.4 34.2 65.5 7.5 73.6-35.5 3.7-19.9-2.3-57.8-2.3-57.8l-77.7 39.3c-.1.1-7.1 30.4 6.4 54z" fill="#69503f"/><linearGradient id="XMLID_397_" gradientUnits="userSpaceOnUse" x1="2228.74" y1="1747.259" x2="2666.38" y2="1747.259"><stop offset="0" stop-color="#bd8e5c" stop-opacity=".2" id="stop341"/><stop offset="1" stop-color="#d88158" stop-opacity=".3" id="stop343"/></linearGradient><path id="XMLID_233_" d="M2519.2 1920.3l147.2-226.5-437.7-119.6v109.6l290.5 220.9z" fill="url(#XMLID_397_)"/><path id="XMLID_232_" d="M1372.2 1333.8l291.5 144.5-35.1 20.3-291-147.2-147.9 75.6" fill="#cccbca"/><path id="XMLID_231_" class="st64" d="M1780.9 2271.5l147.1-71V2045l-147.1 74.9z" fill="#fcc184"/><path id="XMLID_230_" class="st82" d="M1698.9 2204.8v-5l-35.2 5v112.8l35.2-16.2z" fill="#4a494a"/><path id="XMLID_229_" class="st62" d="M2525 2269.2l-141.2-67v201.4l141.2 66.5z" fill="#e1a96c"/><path id="XMLID_228_" class="st63" d="M2383.8 2203.4l141.2 67 147.1-73.4-147.1-63z" fill="#fdc795"/><path id="XMLID_227_" class="st64" d="M2076.5 2479.4l147.1-72.2v197.7l-147.1 75.4z" fill="#fcc184"/><path id="XMLID_226_" class="st63" d="M1935.2 2413.6l141.3 67 147.1-73.4-147.1-63z" fill="#fdc795"/><path id="XMLID_225_" class="st62" d="M2076.5 2479.4l-141.3-67v201.4l141.3 66.5z" fill="#e1a96c"/><path id="XMLID_224_" class="st62" d="M1189.7 1841.6v145.9l591.2 284v-151.6l-591.2-278.3" fill="#e1a96c"/><linearGradient id="XMLID_398_" gradientUnits="userSpaceOnUse" x1="1935.249" y1="2618.975" x2="2223.622" y2="2618.975"><stop offset="0" stop-color="#bd8e5c" stop-opacity=".2" id="stop356"/><stop offset="1" stop-color="#d88158" stop-opacity=".3" id="stop358"/></linearGradient><path id="XMLID_223_" d="M1935.2 2412.4l288.4-5.2-147.1 423.5z" fill="url(#XMLID_398_)"/><linearGradient id="XMLID_399_" gradientUnits="userSpaceOnUse" x1="1332.987" y1="2091.109" x2="1928.023" y2="2091.109"><stop offset="0" stop-color="#bd8e5c" stop-opacity=".2" id="stop362"/><stop offset="1" stop-color="#d88158" stop-opacity=".3" id="stop364"/></linearGradient><path id="XMLID_222_" d="M1333 1910.7l447.9 360.8L1928 2045z" fill="url(#XMLID_399_)"/><path id="XMLID_221_" d="M1583.2 2017.7l70.3 43.6v167.8l-70.3-35.7z" fill="#515251"/><path id="XMLID_220_" d="M1677.8 2221.3l-24.3 7.8v-167.8l24.3-8.5z" fill="#898989"/><path id="XMLID_219_" class="st67" d="M2301 2739.8l256-134.1 297.4-11.8-649.6 321.9z" fill="#329952"/><path id="XMLID_218_" class="st67" d="M1858.3 2724.7l-58.3 82.9 161.6-32.8z" fill="#329952"/><path id="XMLID_217_" class="st67" d="M2248.7 2734.2l244.9-130-266.3-127-3.7 247.5z" fill="#329952"/><path id="XMLID_216_" class="st67" d="M2963.3 2539.9l-382.2 30.8 91-147.9z" fill="#329952"/><path id="XMLID_215_" class="st64" d="M2525 2621.2l147.1-71v-155.5l-147.1 74.9z" fill="#fcc184"/><path id="XMLID_214_" class="st64" d="M2525 2269.2l147.1-72.2v197.7l-147.1 75.4z" fill="#fcc184"/><linearGradient id="XMLID_400_" gradientUnits="userSpaceOnUse" x1="2383.765" y1="2409.104" x2="2672.138" y2="2409.104"><stop offset="0" stop-color="#bd8e5c" stop-opacity=".2" id="stop376"/><stop offset="1" stop-color="#d88158" stop-opacity=".3" id="stop378"/></linearGradient><path id="XMLID_213_" d="M2383.8 2203.4l288.3-6.4-147.1 424.2-141.2-401.7z" fill="url(#XMLID_400_)"/><linearGradient id="XMLID_401_" gradientUnits="userSpaceOnUse" x1="2348.387" y1="3277.867" x2="3155.08" y2="3277.867"><stop offset="0" stop-color="#bd8e5c" stop-opacity=".2" id="stop382"/><stop offset=".005" stop-color="#65b847" stop-opacity=".393" id="stop384"/><stop offset="1" stop-color="#3d8c71" stop-opacity=".4" id="stop386"/></linearGradient><path id="XMLID_212_" d="M2348.4 3012.8l806.7 22-378.7 508.1z" fill="url(#XMLID_401_)"/><linearGradient id="XMLID_402_" gradientUnits="userSpaceOnUse" x1="1583.246" y1="2036.94" x2="1679.729" y2="2036.94"><stop offset="0" stop-color="#81b0bb" stop-opacity=".2" id="stop390"/><stop offset="1" stop-color="#4a6d92" stop-opacity=".3" id="stop392"/></linearGradient><path id="XMLID_211_" d="M1583.2 2017.7l70.3 43.6 26.2-8.5-86.6-40.2-8.3 4.7-.6.4" fill="url(#XMLID_402_)"/><path id="XMLID_210_" class="st92" d="M1822.5 1950.8l-.1 59.7-133.8 27.9L1585 2008v-57.2z" fill="#d85427"/><ellipse id="XMLID_209_" class="st92" cx="1703.8" cy="2008" rx="118.8" ry="57.3" fill="#d85427"/><path id="XMLID_208_" d="M1630.5 2333L1333 2196.7V2475l297.5 140.8V2333" fill="#36514f"/><linearGradient id="XMLID_403_" gradientUnits="userSpaceOnUse" x1="1583.246" y1="2113.871" x2="1618.388" y2="2113.871"><stop offset="0" stop-color="#81b0bb" stop-opacity=".2" id="stop399"/><stop offset="1" stop-color="#4a6d92" stop-opacity=".3" id="stop401"/></linearGradient><path id="XMLID_207_" d="M1618.4 2047.8l-.1 163.4-35-17.8v-175.7l2.9-1.1s2.8 8.5 11.5 17.3c8.1 8.2 20.7 13.2 20.7 13.2" fill="url(#XMLID_403_)"/><path id="XMLID_206_" class="st95" d="M1928.5 2134l-.5 66.5s193.9-29.8 308.2-73.3c155.2-59 283-207 283-207l-.5-58.2s-133.2 136.9-285.6 203.2c-125.4 54.7-304.6 68.8-304.6 68.8z" fill="#912b1e"/><path id="XMLID_205_" d="M1826.9 2249.3s110.7 458.5 323.2 635.3c128.1 106.7 198.3 128.1 198.3 128.1v79.7s-143.6-60.7-238.1-149.8c-247.4-233.3-329.4-671.2-329.4-671.2z" fill="#471811"/><path id="XMLID_204_" class="st95" d="M2666.4 1849.3s139.5 446.8 139.5 703.3c0 106.2-33.7 296.5-33.7 296.5l-47.9-23.2s25.3-198.8 25.7-265.4c1.7-242.5-136.9-685.4-136.9-685.4z" fill="#912b1e"/><ellipse id="XMLID_203_" transform="rotate(132.049 1945.235 1823.53)" cx="1945.3" cy="1823.6" rx="162.5" ry="105.3" fill="#5ec4db"/><linearGradient id="XMLID_404_" gradientUnits="userSpaceOnUse" x1="1332.987" y1="925.945" x2="2228.74" y2="925.945"><stop offset="0" stop-color="#fff33b" stop-opacity=".2" id="stop409"/><stop offset="0" stop-color="#ffdc3f" stop-opacity=".217" id="stop411"/><stop offset="0" stop-color="#febe41" stop-opacity=".246" id="stop413"/><stop offset="0" stop-color="#faa441" stop-opacity=".276" id="stop415"/><stop offset="0" stop-color="#f79140" stop-opacity=".305" id="stop417"/><stop offset="0" stop-color="#f5843f" stop-opacity=".336" id="stop419"/><stop offset="0" stop-color="#f47c3f" stop-opacity=".367" id="stop421"/><stop offset="0" stop-color="#f47a3f" stop-opacity=".4" id="stop423"/><stop offset=".091" stop-color="#c34d25" stop-opacity=".4" id="stop425"/><stop offset=".461" stop-color="#b03d1f" stop-opacity=".4" id="stop427"/><stop offset="1" stop-color="#9b2b16" stop-opacity=".4" id="stop429"/></linearGradient><path id="XMLID_202_" d="M1333 648.9h895.7l-168.6 320-279.2 136.9-150.4-70.9-5.5 168-292-554" fill="url(#XMLID_404_)"/><linearGradient id="XMLID_405_" gradientUnits="userSpaceOnUse" x1="1628.586" y1="1652.669" x2="2193.591" y2="1652.669"><stop offset="0" stop-color="#63a5b7" stop-opacity=".2" id="stop433"/><stop offset=".038" stop-color="#63a1b2" stop-opacity=".204" id="stop435"/><stop offset=".241" stop-color="#6596a4" stop-opacity=".227" id="stop437"/><stop offset=".449" stop-color="#658e9a" stop-opacity=".251" id="stop439"/><stop offset=".663" stop-color="#648994" stop-opacity=".274" id="stop441"/><stop offset=".891" stop-color="#638792" stop-opacity=".3" id="stop443"/></linearGradient><path id="XMLID_201_" d="M1698.9 1457.9l-70.3 40.7.9 409.3 193 42.9v45.8l31.9 14.6 339.2-717.1-412.7 204.5z" fill="url(#XMLID_405_)"/><linearGradient id="XMLID_406_" gradientUnits="userSpaceOnUse" x1="1625.297" y1="1230.519" x2="2060.408" y2="1230.519"><stop offset="0" stop-color="#bd8e5c" stop-opacity=".2" id="stop447"/><stop offset="1" stop-color="#d88158" stop-opacity=".3" id="stop449"/></linearGradient><path id="XMLID_200_" d="M1629.8 1035.4l151.4 71.3 279.2-136.9-279.2 521.5-155.9-287.4z" fill="url(#XMLID_406_)"/><path id="XMLID_199_" class="st56" d="M1822.5 1950.8c0 13-9 25-24.2 34.7-21.7 13.7-56 22.6-94.5 22.6-65.6 0-118.8-25.6-118.8-57.3 0-31.6 53.2-57.3 118.8-57.3s118.7 25.6 118.7 57.3z" fill="#f05326"/><ellipse id="XMLID_198_" cx="1703.8" cy="1950.8" rx="85.5" ry="41.2" fill="#bae2e2"/><linearGradient id="XMLID_407_" gradientUnits="userSpaceOnUse" x1="1585.031" y1="1969.961" x2="1786.152" y2="1969.961"><stop offset="0" stop-color="#81b0bb" stop-opacity=".2" id="stop455"/><stop offset="1" stop-color="#4a6d92" stop-opacity=".3" id="stop457"/></linearGradient><path id="XMLID_197_" d="M1618.4 2047v-56.4l167.8-81s-68.7-35.2-157.6-3.1c-43.6 15.7-43.6 44.3-43.6 44.3v57.3s0 11.3 10.4 23.5c7.5 8.6 23 15.4 23 15.4z" fill="url(#XMLID_407_)"/><path id="XMLID_344_" d="M457.9 3196l148 74" fill="#d3eaed"/></g></svg>