<svg xmlns="http://www.w3.org/2000/svg" version="1.1" id="svg760" width="150" height="180.448"><style id="style2">.st99{fill:#e2f3f7}.st100{fill:#bed7f0}.st101{fill:#d3eaed}.st102{fill:#1b1b1c}.st103{fill:#bd8fc0}.st104{fill:#eac2dc}.st105{fill:#e09cc5}.st106{fill:#282828}.st107{fill:#ef4323}.st108{fill:#fcaf17}.st109{fill:#332f30}.st110{fill:#3a3737}.st112{fill:#dba871}.st113{fill:#f7ca94}.st114{fill:#f15d22}.st115{fill:#f68b1f}.st116{fill:#b22f25}.st117{fill:#773e1a}.st118{fill:#8e683d}.st119{fill:#a85826}.st121{fill:#5e5f5f}.st122{fill:#999998}.st127{fill:#303030}.st128{fill:#101010}.st129{fill:#f8e69c}.st130{fill:#feea89}.st141{fill:#a6dde8}</style><g id="Layer_2" transform="matrix(.05803 0 0 .05803 -32.96 -25.11)"><path id="XMLID_357_" class="st99" d="M2333.5 2316l159.9 80 170-80-170-82.9z" fill="#e2f3f7"/><path id="XMLID_356_" class="st100" d="M2978.5 2461.8l-170 80v90.8l170-84.9v-85.9" fill="#bed7f0"/><path id="XMLID_337_" class="st101" d="M823.8 3343.7v-83l-159.9-79.9v85.8z" fill="#d3eaed"/><path id="XMLID_334_" class="st99" d="M817.9 3111l160 80.1 169.9-80.1-169.9-82.8z" fill="#e2f3f7"/><path id="XMLID_333_" class="st100" d="M1147.8 3111.1l-169.9 80v83l169.9-77.1v-85.9" fill="#bed7f0"/><path id="XMLID_332_" class="st99" d="M568 3149l160 80.1 169.9-80.1-169.9-82.8z" fill="#e2f3f7"/><path id="XMLID_196_" class="st102" d="M1888.2 1751.6l25.5 12.2s23.5 327.4 284.7 342.4c186.4 10.7 241.9-147.3 241.9-147.3l37.8-17.9s-60.6 229.3-281.1 209.9c-287.1-25.2-308.9-372.2-308.9-372.2v-27.1z" fill="#1b1b1c"/><path id="XMLID_195_" class="st103" d="M1242.4 2975v-34.4l-142.6-71.3v36.9z" fill="#bd8fc0"/><path id="XMLID_194_" class="st104" d="M1099.8 2869.2l142.6 71.4 151.5-71.4-151.5-73.8z" fill="#eac2dc"/><path id="XMLID_193_" class="st105" d="M1393.9 2869.3l-151.5 71.3v34.4l151.5-68.8v-36.9" fill="#e09cc5"/><path id="XMLID_192_" class="st103" d="M1246.9 2864.2v-74l-142.6-71.3v76.5z" fill="#bd8fc0"/><path id="XMLID_190_" class="st104" d="M1104.3 2718.8l142.6 71.4 151.5-71.4-151.5-73.8z" fill="#eac2dc"/><path id="XMLID_189_" class="st103" d="M1246.9 2726.6v-145.1l-142.6-71.3v147.6z" fill="#bd8fc0"/><path id="XMLID_188_" class="st105" d="M1398.4 2510.2l-151.5 71.3v145.1l151.5-68.8v-147.6" fill="#e09cc5"/><path id="XMLID_186_" class="st104" d="M1104.3 2510.2l142.6 71.3 151.5-71.3-151.5-73.9z" fill="#eac2dc"/><path id="XMLID_185_" class="st103" d="M1246.9 2506.6v-410l-142.6-71.3v412.5z" fill="#bd8fc0"/><path id="XMLID_184_" class="st105" d="M1398.4 2025.3l-151.5 71.3v410l151.5-68.8v-412.5" fill="#e09cc5"/><path id="XMLID_183_" class="st106" d="M1844.7 1038.3l453.6 204.5-80.2 38.1-443.2-201.8z" fill="#282828"/><path id="XMLID_182_" class="st107" d="M1334.8 2191.5l5.7-409.3-148.3-72v412.5z" fill="#ef4323"/><path id="XMLID_181_" class="st108" d="M920.4 1293.9l271.8 131.8 619.3-127.9-445.6-219z" fill="#fcaf17"/><path id="XMLID_180_" class="st109" d="M2074.7 2393.3v278.8l-148-70.1v-283.9z" fill="#332f30"/><path id="XMLID_179_" class="st110" d="M2225.9 2323.4l-1.6 267.2-149.6 81.5v-278.8z" fill="#3a3737"/><path id="XMLID_178_" d="M1926.7 1488.7v145.2l588.2 282.6v-150.9l-588.2-276.9" fill="#be8e5d"/><path id="XMLID_177_" class="st112" d="M2661.3 1691.2l-440.5-202.5-151.5 68.8 445.6 208.1z" fill="#dba871"/><path id="XMLID_176_" class="st113" d="M2514.9 1916.5l146.4-70.7v-154.6l-146.4 74.4z" fill="#f7ca94"/><path id="XMLID_175_" class="st114" d="M1628.8 1497l70-40.5 81.5 40.5 445.6-221.5v776.6l-595.1 275-2-830.1" fill="#f15d22"/><path id="XMLID_174_" class="st107" d="M1780.3 863l-445.5-211.3v623.8l445.5 221.5z" fill="#ef4323"/><path id="XMLID_173_" class="st115" d="M1780.3 863l445.6-211.3v623.8L1780.3 1497z" fill="#f68b1f"/><path id="XMLID_172_" class="st108" d="M1334.8 651.7L1780.3 863l445.6-211.3-445.6-219z" fill="#fcaf17"/><path id="XMLID_171_" class="st107" d="M1411.6 1313.7l287.2 142.8-73.8 40.5-134.9-68.7-155.3 68.7-142.6-71.3 219.4-112" fill="#ef4323"/><path id="XMLID_170_" class="st116" d="M1629.8 1904.1l-1-408.6-142.5-71.2v413.9z" fill="#b22f25"/><path id="XMLID_169_" class="st112" d="M1926.7 2040.6l-440.4-202.4-152.2 67.3 446.2 209.6z" fill="#dba871"/><path id="XMLID_168_" class="st116" d="M1630.8 2327.1l-296-135.6-3.6-143.6 299.6 141.7v137.5" fill="#b22f25"/><path id="XMLID_167_" class="st110" d="M1630.8 2327.1v281.3l595.1-281.3v-275l-595.1 275" fill="#3a3737"/><path id="XMLID_166_" class="st109" d="M1630.8 2327.1v281.3l-296-140v-276.9l296 135.6" fill="#332f30"/><path id="XMLID_165_" class="st109" d="M1630.8 2608.4v278.8l-148-70v-283.9z" fill="#332f30"/><path id="XMLID_164_" class="st110" d="M1780.3 2537.7v268l-149.5 81.5v-278.8z" fill="#3a3737"/><path id="XMLID_163_" class="st117" d="M1482.8 2963.6v-146.4l289.9 136.2v147.7z" fill="#773e1a"/><path id="XMLID_162_" class="st118" d="M1780.3 2805.7l152 68.8-159.6 78.9-141.9-66.2 149.5-81.5" fill="#8e683d"/><path id="XMLID_161_" class="st119" d="M1772.7 3101.1l154-76.1 5.6-150.5-159.6 78.9z" fill="#a85826"/><path id="XMLID_160_" class="st117" d="M1924.8 2747.8l1.9-145.8 288 135.6v147.7z" fill="#773e1a"/><path id="XMLID_159_" class="st118" d="M2222.4 2589.9l151.9 68.8-159.6 78.9-141.9-66.2 149.6-81.5" fill="#8e683d"/><path id="XMLID_158_" class="st119" d="M2214.7 2885.3l154.1-76.1 5.5-150.5-159.6 78.9z" fill="#a85826"/><path id="XMLID_157_" class="st107" d="M1198.9 2125.3v-410l-142.6-71.3v412.5z" fill="#ef4323"/><path id="XMLID_156_" class="st106" d="M1852.3 2047.9V1930l-41-20.5v118.6z" fill="#282828"/><path id="XMLID_155_" d="M1895.8 1909.5l-43.5 20.5v117.9l43.5-19.8v-118.6" fill="#fdef45"/><path id="XMLID_154_" class="st121" d="M1895.8 2028.1l-43.5 19.8V1930l88.4-37.8v337.5l-87.2 41.4v-47l73.2-33.8v-149.7z" fill="#5e5f5f"/><path id="XMLID_153_" class="st122" d="M1811.3 1909.5l41 20.5 88.4-37.8-41.3-17.1z" fill="#999998"/><path id="XMLID_152_" class="st106" d="M1853.5 2224.1v47l-38.1-23.5v-5.8z" fill="#282828"/><path id="XMLID_151_" class="st106" d="M2419.3 1810v-117.9l-41-20.5v118.6z" fill="#282828"/><path id="XMLID_150_" class="st122" d="M2378.3 1671.6l41 20.5 88.4-37.9-41.3-17z" fill="#999998"/><path id="XMLID_149_" class="st121" d="M2507.7 1654.2v69.4l-45.6 17.2 2.2 151.4 43.4 17.3v26.4l-88.4 51.7v-295.5z" fill="#5e5f5f"/><path id="XMLID_148_" class="st106" d="M2378.3 1671.6l41 20.5v295.5l-41-20z" fill="#282828"/><path id="XMLID_147_" class="st113" d="M1780.3 2265.9l146.4-70.6v-154.7l-146.4 74.5z" fill="#f7ca94"/><path id="XMLID_146_" class="st107" d="M1192.2 1425.7v412.5l-271.8-132.4v-411.9" fill="#ef4323"/><path id="XMLID_145_" class="st115" d="M1334.8 2191.5l-334.9 161.2v-374l192.3-553 126.8 221.7z" fill="#f68b1f"/><path id="XMLID_144_" class="st116" d="M1334.8 1906.9V1497l-142.6-71.3v412.5z" fill="#b22f25"/><linearGradient id="XMLID_408_" gradientUnits="userSpaceOnUse" x1="1192.174" y1="2052.069" x2="1780.338" y2="2052.069"><stop offset="0" stop-color="#bd8e5c" id="stop520"/><stop offset="1" stop-color="#bd8e5c" id="stop522"/></linearGradient><path id="XMLID_143_" d="M1192.2 1838.2v145.1l588.1 282.6v-150.8l-588.1-276.9" fill="url(#XMLID_408_)"/><path id="XMLID_142_" class="st114" d="M1486.3 1425.7l-151.5 71.3-.1 408.5 151.6-67.3v-412.5" fill="#f15d22"/><path id="XMLID_141_" class="st107" d="M999.9 2352.7l-37.8-16.6v-380.2l37.8 22.8z" fill="#ef4323"/><path id="XMLID_140_" class="st108" d="M962.1 1955.9l195.1-547.3 35 17.1-192.3 553z" fill="#fcaf17"/><path id="XMLID_139_" d="M1842.9 1663.7l124.4-70.2v70.2l191.3-160.5-250.8 322z" fill="#fba919"/><path id="XMLID_138_" class="st108" d="M999.9 2352.7l334.9-161.2-3.6-110-331.3 144.2z" fill="#fcaf17"/><path id="XMLID_137_" class="st108" d="M999.9 2187.7l326.6-139.8-134.3-64.6-192.3 77z" fill="#fcaf17"/><path id="XMLID_136_" class="st107" d="M1153.2 1170v104.8l78 39.1v-107l-78-36.9" fill="#ef4323"/><path id="XMLID_134_" class="st108" d="M1153.2 1170l181.6-87.6v69.8l-103.6 54.7z" fill="#fcaf17"/><path id="XMLID_133_" class="st115" d="M1231.2 1206.9v107l33.3-16-1-7.5 71.3-38.1v-100.1z" fill="#f68b1f"/><path id="XMLID_132_" class="st105" d="M1398.4 2718.9l-151.5 71.3v74l151.5-68.8v-76.5" fill="#e09cc5"/><path id="XMLID_131_" d="M1780.3 966.4l-151.5-69.7v423l151.5 73.9V966.4" fill="#121212"/><path id="XMLID_130_" d="M1780.3 966.4l445.6-211.3v422.7l-445.6 215.8z" fill="#3f403f"/><path id="XMLID_129_" class="st106" d="M1334.8 1252.3l445.5 221.5-81.5 35-435.3-218.4z" fill="#282828"/><path id="XMLID_128_" class="st127" d="M1780.3 1473.8v499.5l-81.5-37.4v-427.1l81.5-35" fill="#303030"/><path id="XMLID_127_" class="st128" d="M1628.8 1497l-362.5-183.3-2.8-23.3 435.3 218.4v427.1l-17.4-8v-405.8z" fill="#101010"/><path id="XMLID_126_" class="st127" d="M2298.4 1241.9l-81.6 38.1v776.3l81.6-34.8v-779.6" fill="#303030"/><path id="XMLID_125_" class="st128" d="M2216.8 1280v776.3l-16.3-15.7-1.1-752" fill="#101010"/><path id="XMLID_124_" class="st127" d="M1780.3 2265.9l-81.5 37v-76.1l81.5 39.1" fill="#303030"/><path id="XMLID_123_" class="st128" d="M1698.8 2226.8v76.1h-15.7v-83.7z" fill="#101010"/><path id="XMLID_122_" class="st128" d="M2216 1980.9v76.1h-15.7v-83.7z" fill="#101010"/><path id="XMLID_121_" class="st129" d="M1482.8 2927.4l289.9 134.8v39.5l-289.9-137.5v-36.8" fill="#f8e69c"/><path id="XMLID_120_" class="st130" d="M1772.7 3062.2l155.6-73.8-1.6 37.2-154 76.1v-39.5" fill="#feea89"/><path id="XMLID_119_" class="st129" d="M1924.8 2711l289.9 134.7v39.6l-289.9-137.5V2711" fill="#f8e69c"/><path id="XMLID_118_" class="st130" d="M2214.7 2845.7l155.7-73.7-1.6 37.2-154.1 76.1v-39.6" fill="#feea89"/><path id="XMLID_117_" class="st130" d="M1793.8 2811.6l-51.9 28.4 38.4 19.1 53.5-29.5-40-18" fill="#feea89"/><path id="XMLID_116_" class="st130" d="M1851.9 2837.8l-52 28.4 38.5 19.1 53.4-29.5-39.9-18" fill="#feea89"/><path id="XMLID_115_" class="st130" d="M2235.1 2594.4l-51.9 28.4 38.4 19.1 53.4-29.6-39.9-17.9" fill="#feea89"/><path id="XMLID_114_" class="st130" d="M2293.1 2620.6l-51.9 28.4 38.4 19.1 53.4-29.6-39.9-17.9" fill="#feea89"/><linearGradient id="XMLID_409_" gradientUnits="userSpaceOnUse" x1="1780.338" y1="1181.677" x2="1780.338" y2="651.679"><stop offset="0" stop-color="#fff33b" stop-opacity=".2" id="stop554"/><stop offset=".001" stop-color="#ffe83d" stop-opacity=".204" id="stop556"/><stop offset=".004" stop-color="#f7be42" stop-opacity=".227" id="stop558"/><stop offset=".007" stop-color="#ee9941" stop-opacity=".251" id="stop560"/><stop offset=".011" stop-color="#e87c3f" stop-opacity=".275" id="stop562"/><stop offset=".014" stop-color="#e3623d" stop-opacity=".299" id="stop564"/><stop offset=".018" stop-color="#e04a3b" stop-opacity=".323" id="stop566"/><stop offset=".021" stop-color="#de353a" stop-opacity=".348" id="stop568"/><stop offset=".025" stop-color="#dc2539" stop-opacity=".373" id="stop570"/><stop offset=".029" stop-color="#dc1f39" stop-opacity=".4" id="stop572"/><stop offset=".572" stop-color="#df1f30" stop-opacity=".4" id="stop574"/><stop offset=".891" stop-color="#df1f30" stop-opacity=".4" id="stop576"/></linearGradient><path id="XMLID_113_" d="M1334.8 651.7l295 530-1-285 151.5 69.7 367.5-174.2 78.1-140.5z" fill="url(#XMLID_409_)"/><linearGradient id="XMLID_410_" gradientUnits="userSpaceOnUse" x1="1887.858" y1="1393.567" x2="1887.858" y2="792.163"><stop offset="0" stop-opacity="0" id="stop580"/><stop offset=".373" stop-opacity=".7" id="stop582"/></linearGradient><path id="XMLID_112_" d="M1627.9 1178.3l97.2 188.3 55.2 27 58.6-28.4 308.9-573-367.5 174.2-151.5-69.7 1 285" fill="url(#XMLID_410_)"/><linearGradient id="XMLID_411_" gradientUnits="userSpaceOnUse" x1="1781.96" y1="1497.005" x2="1781.96" y2="1365.23"><stop offset="0" stop-color="#fff33b" stop-opacity=".2" id="stop586"/><stop offset=".001" stop-color="#ffe83d" stop-opacity=".204" id="stop588"/><stop offset=".004" stop-color="#f7be42" stop-opacity=".227" id="stop590"/><stop offset=".007" stop-color="#ee9941" stop-opacity=".251" id="stop592"/><stop offset=".011" stop-color="#e87c3f" stop-opacity=".275" id="stop594"/><stop offset=".014" stop-color="#e3623d" stop-opacity=".299" id="stop596"/><stop offset=".018" stop-color="#e04a3b" stop-opacity=".323" id="stop598"/><stop offset=".021" stop-color="#de353a" stop-opacity=".348" id="stop600"/><stop offset=".025" stop-color="#dc2539" stop-opacity=".373" id="stop602"/><stop offset=".029" stop-color="#dc1f39" stop-opacity=".4" id="stop604"/><stop offset=".572" stop-color="#df1f30" stop-opacity=".4" id="stop606"/><stop offset=".891" stop-color="#df1f30" stop-opacity=".4" id="stop608"/></linearGradient><path id="XMLID_111_" d="M1725.1 1366.6l42.7 100.9 12.5 6.3v23.2l58.6-131.8-58.6 28.4z" fill="url(#XMLID_411_)"/><linearGradient id="XMLID_412_" gradientUnits="userSpaceOnUse" x1="1334.973" y1="2085.682" x2="1926.742" y2="2085.682"><stop offset="0" stop-color="#bd8e5c" stop-opacity=".2" id="stop612"/><stop offset="1" stop-color="#d88158" stop-opacity=".3" id="stop614"/></linearGradient><path id="XMLID_110_" d="M1335 1905.4l476.3 109.1v13.6l41 19.8 35.4-16.1 39 8.8-146.4 225.3z" fill="url(#XMLID_412_)"/><linearGradient id="XMLID_413_" gradientUnits="userSpaceOnUse" x1="2298.383" y1="1751.074" x2="2661.31" y2="1751.074"><stop offset="0" stop-color="#bd8e5c" stop-opacity=".2" id="stop618"/><stop offset="1" stop-color="#bd8e5c" stop-opacity=".3" id="stop620"/></linearGradient><path id="XMLID_109_" d="M2661.3 1691.2l-153.6 218.3-209.3-199.3v-117.5z" fill="url(#XMLID_413_)"/><linearGradient id="XMLID_414_" gradientUnits="userSpaceOnUse" x1="1334.759" y1="2330.237" x2="2225.916" y2="2330.237"><stop offset="0" stop-opacity="0" id="stop624"/><stop offset="0" stop-opacity=".8" id="stop626"/><stop offset=".373" stop-opacity=".8" id="stop628"/></linearGradient><path id="XMLID_108_" d="M2225.9 2052.1l-595.1 556.3-296-416.9 296 135.6 52.3-24.2h15.7l81.5-37 38.1-18.3 35.1 23.5 87.2-41.4v-45.8z" fill="url(#XMLID_414_)"/><linearGradient id="XMLID_415_" gradientUnits="userSpaceOnUse" x1="1482.755" y1="2747.808" x2="1630.751" y2="2747.808"><stop offset="0" stop-opacity="0" id="stop632"/><stop offset="0" stop-opacity=".8" id="stop634"/><stop offset=".373" stop-opacity=".8" id="stop636"/></linearGradient><path id="XMLID_107_" d="M1630.8 2608.4v278.8l-148-70z" fill="url(#XMLID_415_)"/><linearGradient id="XMLID_416_" gradientUnits="userSpaceOnUse" x1="1926.742" y1="2535.353" x2="2074.738" y2="2535.353"><stop offset="0" stop-opacity="0" id="stop640"/><stop offset="0" stop-opacity=".8" id="stop642"/><stop offset=".373" stop-opacity=".8" id="stop644"/></linearGradient><path id="XMLID_106_" d="M1926.7 2602l148-203.4v273.5" fill="url(#XMLID_416_)"/><linearGradient id="XMLID_417_" gradientUnits="userSpaceOnUse" x1="1205.171" y1="1905.536" x2="1205.171" y2="1269.118"><stop offset="0" stop-color="#fff33b" stop-opacity=".2" id="stop648"/><stop offset=".001" stop-color="#ffe83d" stop-opacity=".204" id="stop650"/><stop offset=".004" stop-color="#f7be42" stop-opacity=".227" id="stop652"/><stop offset=".007" stop-color="#ee9941" stop-opacity=".251" id="stop654"/><stop offset=".011" stop-color="#e87c3f" stop-opacity=".275" id="stop656"/><stop offset=".014" stop-color="#e3623d" stop-opacity=".299" id="stop658"/><stop offset=".018" stop-color="#e04a3b" stop-opacity=".323" id="stop660"/><stop offset=".021" stop-color="#de353a" stop-opacity=".348" id="stop662"/><stop offset=".025" stop-color="#dc2539" stop-opacity=".373" id="stop664"/><stop offset=".029" stop-color="#dc1f39" stop-opacity=".4" id="stop666"/><stop offset=".572" stop-color="#df1f30" stop-opacity=".4" id="stop668"/><stop offset=".891" stop-color="#df1f30" stop-opacity=".4" id="stop670"/></linearGradient><path id="XMLID_105_" d="M920.3 1292.5l169.3 304.2 67.6-189.5 34.9 17.1 142.6 481.2 155.3-478.6-223.7-113.2-1.8-15.8-33.3 16-78-39.1v-5.7z" fill="url(#XMLID_417_)"/><linearGradient id="XMLID_418_" gradientUnits="userSpaceOnUse" x1="1989.891" y1="1987.539" x2="1989.891" y2="1288.649"><stop offset="0" stop-color="#fff33b" stop-opacity=".2" id="stop674"/><stop offset="0" stop-color="#ffe83d" stop-opacity=".204" id="stop676"/><stop offset=".001" stop-color="#f7be42" stop-opacity=".227" id="stop678"/><stop offset=".002" stop-color="#ee9941" stop-opacity=".251" id="stop680"/><stop offset=".003" stop-color="#e87c3f" stop-opacity=".275" id="stop682"/><stop offset=".004" stop-color="#e3623d" stop-opacity=".299" id="stop684"/><stop offset=".004" stop-color="#e04a3b" stop-opacity=".323" id="stop686"/><stop offset=".005" stop-color="#de353a" stop-opacity=".348" id="stop688"/><stop offset=".006" stop-color="#dc2539" stop-opacity=".373" id="stop690"/><stop offset=".007" stop-color="#dc1f39" stop-opacity=".4" id="stop692"/><stop offset=".572" stop-color="#df1f30" stop-opacity=".4" id="stop694"/><stop offset=".891" stop-color="#df1f30" stop-opacity=".4" id="stop696"/></linearGradient><path id="XMLID_96_" d="M1780.3 1497v476.3l31 14.2v-78l56.5-22.1 331.6-598.8z" fill="url(#XMLID_418_)"/><path id="XMLID_68_" class="st102" d="M1330.7 2049.9l25.5 12.2s23.5 327.4 284.7 342.4c186.4 10.7 241.9-147.3 241.9-147.3l37.8-17.9s-60.6 229.3-281.1 209.9c-287.1-25.2-308.9-372.2-308.9-372.2v-27.1z" fill="#1b1b1c"/><path id="XMLID_303_" class="st101" d="M728 3312.1v-83l-160-80v85.9z" fill="#d3eaed"/><path id="XMLID_302_" class="st101" d="M779.5 3120.6l160 79.9" fill="#d3eaed"/><path id="XMLID_301_" class="st99" d="M738 3067.5l159.9 80.1 170-80.1-170-82.8z" fill="#e2f3f7"/><path id="XMLID_300_" class="st101" d="M774.5 3205.2v-162.7l-159.9-80v165.6z" fill="#d3eaed"/><path id="XMLID_299_" class="st100" d="M944.5 2962.5l-170 80v162.7l170-77.1v-165.6" fill="#bed7f0"/><path id="XMLID_298_" class="st101" d="M614.6 2976l159.9 80" fill="#d3eaed"/><path id="XMLID_297_" class="st99" d="M614.6 2962.4l159.9 80.1 170-80.1-170-82.8z" fill="#e2f3f7"/><path id="XMLID_296_" class="st100" d="M1067.9 3067.7l-170 79.9v83l170-77.1v-85.8" fill="#bed7f0"/><path id="XMLID_315_" class="st101" d="M2658 2471.3l160 79.9" fill="#d3eaed"/><path id="XMLID_313_" class="st101" d="M2653 2555.9v-162.7l-159.9-80v165.6z" fill="#d3eaed"/><path id="XMLID_312_" class="st141" d="M2823 2313.2l-170 80v162.7l170-77.1v-165.6" fill="#a6dde8"/><path id="XMLID_311_" class="st101" d="M2493.1 2326.7l159.9 80" fill="#d3eaed"/><path id="XMLID_310_" class="st99" d="M2493.1 2313.1l159.9 80.1 170-80.1-170-82.8z" fill="#e2f3f7"/><path id="XMLID_324_" class="st101" d="M2808.5 2632.6v-162.7l-159.9-80v165.6z" fill="#d3eaed"/><path id="XMLID_331_" class="st100" d="M897.9 3147.6l-169.9 80v83l169.9-77.1v-85.9" fill="#bed7f0"/><path id="XMLID_335_" class="st100" d="M993.8 3180.8l-170 79.9v83l170-77.1v-85.8" fill="#bed7f0"/><path id="XMLID_345_" class="st101" d="M2493.4 2477.5v-83l-159.9-79.9v85.8z" fill="#d3eaed"/><path id="XMLID_343_" class="st99" d="M2823 2235.8l159.9 80.1 170-80.1-170-82.9z" fill="#e2f3f7"/><path id="XMLID_342_" class="st101" d="M2818 2476v-162.7l-160-80v165.6z" fill="#d3eaed"/><path id="XMLID_341_" class="st141" d="M2987.9 2233.3l-169.9 80V2476l169.9-77.1v-165.6" fill="#a6dde8"/><path id="XMLID_340_" class="st101" d="M2658 2246.8l160 80" fill="#d3eaed"/><path id="XMLID_339_" class="st99" d="M2658 2233.2l160 80.1 169.9-80.1-169.9-82.8z" fill="#e2f3f7"/><path id="XMLID_338_" class="st100" d="M3152.9 2235.9l-170 80v82.9l170-77.1v-85.8" fill="#bed7f0"/><path id="XMLID_348_" class="st101" d="M2977.9 2558.8V2396l-159.9-79.9v165.5z" fill="#d3eaed"/><path id="XMLID_347_" class="st100" d="M3147.9 2316.1l-170 79.9v242.6l170-77.1v-245.4" fill="#bed7f0"/><path id="XMLID_346_" class="st99" d="M2818 2316l159.9 80 170-80-170-82.9z" fill="#e2f3f7"/><path id="XMLID_316_" class="st101" d="M2919.2 2366.6v-90.8l-160-79.9v90.9z" fill="#d3eaed"/><path id="XMLID_314_" class="st99" d="M2759.2 2197.2l160 80.1 170-80.1-170-82.8z" fill="#e2f3f7"/><path id="XMLID_309_" class="st100" d="M3089.2 2195.9l-170 79.9v83l170-77.1v-85.8" fill="#bed7f0"/><path id="XMLID_349_" class="st101" d="M2977.9 2640.2v-82.9l-159.9-80v85.8z" fill="#d3eaed"/><path id="XMLID_352_" class="st101" d="M2662.7 2646.9v-90.8l-159.9-80v90.9z" fill="#d3eaed"/><path id="XMLID_351_" class="st99" d="M2502.8 2476l159.9 80.1 170-80.1-170-82.8z" fill="#e2f3f7"/><path id="XMLID_350_" class="st100" d="M2832.7 2476.1l-170 80v90.8l170-84.9v-85.9" fill="#bed7f0"/><path id="XMLID_355_" class="st101" d="M2728.5 2525.5l-.7-86.5-161.4-80.2v84.3z" fill="#d3eaed"/><path id="XMLID_354_" class="st99" d="M2566.4 2358.8l161.4 80.2 105.1-48-174.9-80.1z" fill="#e2f3f7"/><path id="XMLID_353_" class="st100" d="M2832.7 2389.9l-104.9 49.1.7 86.1 104.2-49.4v-85.8" fill="#bed7f0"/><path id="XMLID_384_" class="st101" d="M2220.3 3356.5l170 80v90.8l-170-85v-85.8" fill="#d3eaed"/><path id="XMLID_383_" class="st101" d="M2540.8 3365.9l-159.9 80" fill="#d3eaed"/><path id="XMLID_382_" class="st100" d="M2545.8 3450.6v-162.8l160-79.9v165.5z" fill="#bed7f0"/><path id="XMLID_381_" class="st141" d="M2375.9 3207.9l169.9 79.9v162.8l-169.9-77.2v-165.5" fill="#a6dde8"/><path id="XMLID_380_" class="st101" d="M2705.8 3221.3l-160 80" fill="#d3eaed"/><path id="XMLID_379_" class="st99" d="M2705.8 3207.8l-160 80-169.9-80 169.9-82.9z" fill="#e2f3f7"/><path id="XMLID_378_" class="st100" d="M2390.3 3527.3v-162.8l160-79.9v165.5z" fill="#bed7f0"/><path id="XMLID_376_" class="st99" d="M2375.9 3130.4l-160 80.1-169.9-80.1 169.9-82.8z" fill="#e2f3f7"/><path id="XMLID_375_" class="st100" d="M2380.9 3370.7V3208l159.9-80v165.6z" fill="#bed7f0"/><path id="XMLID_374_" class="st141" d="M2210.9 3128l170 80v162.7l-170-77.1V3128" fill="#a6dde8"/><path id="XMLID_373_" class="st101" d="M2540.8 3141.5l-159.9 79.9" fill="#d3eaed"/><path id="XMLID_372_" class="st99" d="M2540.8 3127.9l-159.9 80.1-170-80.1 170-82.8z" fill="#e2f3f7"/><path id="XMLID_371_" class="st101" d="M2046 3130.5l169.9 80v83l-169.9-77.1v-85.9" fill="#d3eaed"/><path id="XMLID_370_" class="st100" d="M2220.9 3453.4v-162.7l160-82.7v168.3z" fill="#bed7f0"/><path id="XMLID_369_" class="st101" d="M2050.9 3210.7l170 80v242.6l-170-77.1v-245.5" fill="#d3eaed"/><path id="XMLID_368_" class="st99" d="M2410.9 3192.9l-190 97.8-170-80.1 170-82.8z" fill="#e2f3f7"/><path id="XMLID_364_" class="st100" d="M2220.9 3534.9v-83l169.4-81.2v82.7z" fill="#bed7f0"/><path id="XMLID_359_" class="st99" d="M2623.2 3249.1l-161.4 80.1-105.1-47.9 184.1-89.9z" fill="#e2f3f7"/><path id="XMLID_358_" class="st101" d="M2355.9 3281l104.9 49.1-.7 86.1-104.2-49.4V3281" fill="#d3eaed"/><path id="XMLID_385_" class="st99" d="M2220.9 3380.7l-160 80.1-169.9-80.1 159.9-77.9z" fill="#e2f3f7"/><path id="XMLID_377_" class="st100" d="M2060.9 3542.3v-83l160-80v85.9z" fill="#bed7f0"/><path id="XMLID_304_" class="st101" d="M1891 3381.8l169.9 80v80.5l-169.9-78.9v-81.6" fill="#d3eaed"/></g></svg>