<svg xmlns="http://www.w3.org/2000/svg" version="1.1" id="svg526" width="150" height="179.826"><style id="style2">.st49{fill:#f7ca12}.st50{fill:#d8a928}.st54{fill:#bb865e}.st55{fill:#bc7d51}.st56{fill:#a06442}.st57{fill:#e7e6e8}.st58{fill:#ccc3e1}.st59{fill:#5566af}.st61{fill:#7085c2}.st63{fill:#b7b3c6}.st64{fill:#ded7e5}.st66{fill:#351f1c}.st70{fill:#332f30}.st71{fill:#484748}.st72{fill:#3a3737}.st73{fill:#a98d30}.st74{fill:#ecbf25}.st77{fill:#82c675}.st78{fill:#0a7355}.st79{fill:#59ba57}.st82{fill:#ed3193}.st83{fill:#f7f7f7}.st85{fill:#cdaf33}.st86{fill:#f3c716}.st88{fill:#212121}</style><g id="Layer_5" transform="matrix(.05804 0 0 .05804 -32.966 -25.113)"><path id="XMLID_385_" class="st49" d="M2516.4 1955.7l10.9 1001.2 31.6-26.7 13.1-974.5z" fill="#f7ca12"/><ellipse id="XMLID_383_" class="st50" cx="2545" cy="1901.7" rx="70.5" ry="82.7" fill="#d8a928"/><path id="XMLID_125_" d="M1085.5 2278.9l615-298-498.4-216.3L570.6 2042l514.9 236.9" fill="#85accc"/><path id="XMLID_124_" d="M1084.5 3149.4l653.4-309.4-36.4-859.1-616 298z" fill="#817fbc"/><path id="XMLID_123_" d="M570.6 2042l514.9 236.9-2 870.5-512.9-259.1z" fill="#293891"/><path id="XMLID_133_" class="st54" d="M2661.3 1689.3l-440.5-202.4-152.1 67.3 446.2 209.6z" fill="#bb865e"/><path id="XMLID_132_" class="st55" d="M2514.9 1914.6l146.4-70.6v-154.7l-146.4 74.5z" fill="#bc7d51"/><path id="XMLID_131_" class="st56" d="M1926.7 1486.9l-4 145.1 592.2 282.6v-150.8l-588.2-276.9" fill="#a06442"/><path id="XMLID_130_" class="st57" d="M2069.3 1554.2l151.5-67.3 344.6 158.3-147.9 72.7-348.2-163.7" fill="#e7e6e8"/><path id="XMLID_126_" class="st58" d="M2417.5 1717.9l-4 148.3-490.8-234.2 4-164.3 142 52 .6 34.5z" fill="#ccc3e1"/><path id="XMLID_411_" class="st59" d="M654.4 2399.8l152.9 70.4-.6 258.5-152.3-76.9z" fill="#5566af"/><ellipse id="XMLID_412_" class="st59" cx="916.7" cy="2626.4" rx="56.7" ry="94.6" fill="#5566af"/><path id="XMLID_413_" stroke-miterlimit="10" d="M597 2118.9l443.3 204-1.7 749.6L597 2849.3z" fill="none" stroke="#27aae1" stroke-width="14"/><path id="XMLID_414_" class="st59" d="M888.7 2535.6l32-3.8L958 2588v84.1l-17.7 40.4-45.1 12.4z" fill="#5566af"/><ellipse id="XMLID_311_" class="st61" cx="899.7" cy="2630.2" rx="56.7" ry="94.6" fill="#7085c2"/><path id="XMLID_415_" class="st61" d="M634.7 2413.8l153 70.3-.6 258.6-152.4-77z" fill="#7085c2"/><path id="XMLID_416_" class="st59" d="M654.4 2399.8l-19.7 14 153 70.3 19.6-13.9z" fill="#5566af"/><path id="XMLID_417_" class="st59" d="M787.1 2718.8v23.9l19.6-14-19-46.4z" fill="#5566af"/><linearGradient id="XMLID_22_" gradientUnits="userSpaceOnUse" x1="570.649" y1="2546.787" x2="1701.544" y2="2546.787"><stop offset="0" stop-color="#fff33b" stop-opacity=".2" id="stop22"/><stop offset=".001" stop-color="#d6c365" stop-opacity=".22" id="stop24"/><stop offset=".002" stop-color="#a97" stop-opacity=".244" id="stop26"/><stop offset=".002" stop-color="#887a7d" stop-opacity=".269" id="stop28"/><stop offset=".003" stop-color="#6f6481" stop-opacity=".294" id="stop30"/><stop offset=".004" stop-color="#5b5483" stop-opacity=".319" id="stop32"/><stop offset=".005" stop-color="#4d4883" stop-opacity=".345" id="stop34"/><stop offset=".006" stop-color="#454183" stop-opacity=".372" id="stop36"/><stop offset=".007" stop-color="#423f83" stop-opacity=".4" id="stop38"/><stop offset=".966" stop-color="#51497b" stop-opacity=".4" id="stop40"/><stop offset="1" stop-color="#4c7c72" stop-opacity=".4" id="stop42"/></linearGradient><path id="XMLID_422_" d="M570.6 2042l1130.9-61.1-616 1131.8z" fill="url(#XMLID_22_)"/></g><g id="Layer_2" transform="matrix(.05804 0 0 .05804 -32.966 -25.113)"><path id="XMLID_127_" class="st63" d="M1630.8 2189.6v418.8l-296-140v-276.9l296 135.6" fill="#b7b3c6"/><path id="XMLID_180_" class="st63" d="M2074.7 2393.3v278.8l-148-70.1v-283.9z" fill="#b7b3c6"/><path id="XMLID_179_" class="st64" d="M2225.9 2323.4l-1.6 267.2-149.6 81.5v-278.8z" fill="#ded7e5"/><path id="XMLID_175_" d="M1628.8 1497l70-40.5 81.5 40.5 445.6-221.5v776.6l-595.1 275-2-830.1" fill="#c54f9d"/><path id="XMLID_174_" class="st66" d="M1780.3 863l-445.5-211.3v623.8l445.5 221.5z" fill="#351f1c"/><path id="XMLID_173_" d="M1780.3 863l445.6-211.3v623.8L1780.3 1497z" fill="#724b30"/><path id="XMLID_172_" d="M1334.8 651.7L1780.3 863l445.6-211.3-445.6-219z" fill="#4c3a2c"/><path id="XMLID_171_" d="M1411.6 1313.7l287.2 142.8-73.8 40.5-134.9-68.7-155.3 68.7-142.6-71.3 219.4-112" fill="#daecef"/><path id="XMLID_170_" class="st58" d="M1629.8 1904.1l-1-408.6-142.5-71.2v413.9z" fill="#ccc3e1"/><path id="XMLID_169_" class="st54" d="M1926.7 2040.6l-440.4-202.4-152.2 67.3 446.2 209.6z" fill="#bb865e"/><path id="XMLID_168_" class="st58" d="M1628.9 2453.7L1333 2318.1l-1.8-270.2 299.6 141.7v137.5" fill="#ccc3e1"/><path id="XMLID_167_" class="st64" d="M1630.8 2327.1v281.3l595.1-281.3v-275l-595.1 275" fill="#ded7e5"/><path id="XMLID_165_" class="st63" d="M1630.8 2608.4v278.8l-148-70v-283.9z" fill="#b7b3c6"/><path id="XMLID_164_" class="st64" d="M1780.3 2537.7v268l-149.5 81.5v-278.8z" fill="#ded7e5"/><path id="XMLID_163_" class="st70" d="M1482.8 2963.6v-146.4l289.9 136.2v147.7z" fill="#332f30"/><path id="XMLID_162_" class="st71" d="M1780.3 2805.7l152 68.8-159.6 78.9-141.9-66.2 149.5-81.5" fill="#484748"/><path id="XMLID_161_" class="st72" d="M1772.7 3101.1l154-76.1 5.6-150.5-159.6 78.9z" fill="#3a3737"/><path id="XMLID_160_" class="st70" d="M1924.8 2747.8l1.9-145.8 288 135.6v147.7z" fill="#332f30"/><path id="XMLID_159_" class="st71" d="M2222.4 2589.9l151.9 68.8-159.6 78.9-141.9-66.2 149.6-81.5" fill="#484748"/><path id="XMLID_158_" class="st72" d="M2214.7 2885.3l154.1-76.1 5.5-150.5-159.6 78.9z" fill="#3a3737"/><path id="XMLID_147_" class="st55" d="M1780.3 2265.9l146.4-70.6v-154.7l-146.4 74.5z" fill="#bc7d51"/><path id="XMLID_144_" class="st58" d="M1334.8 1906.9V1497l-142.6-71.3v412.5z" fill="#ccc3e1"/><path id="XMLID_129_" class="st56" d="M1192.2 1838.2l-4 145.1 592.1 282.6v-150.8l-588.1-276.9" fill="#a06442"/><path id="XMLID_142_" class="st57" d="M1486.3 1425.7l-151.5 71.3-.1 408.5 151.6-67.3v-412.5" fill="#e7e6e8"/><path id="XMLID_121_" class="st73" d="M1482.8 2927.4l289.9 134.8v39.5l-289.9-137.5v-36.8" fill="#a98d30"/><path id="XMLID_120_" class="st74" d="M1772.7 3062.2l155.6-73.8-1.6 37.2-154 76.1v-39.5" fill="#ecbf25"/><path id="XMLID_119_" class="st73" d="M1924.8 2711l289.9 134.7v39.6l-289.9-137.5V2711" fill="#a98d30"/><path id="XMLID_118_" class="st74" d="M2214.7 2845.7l155.7-73.7-1.6 37.2-154.1 76.1v-39.6" fill="#ecbf25"/><path id="XMLID_117_" class="st74" d="M1793.8 2811.6l-51.9 28.4 38.4 19.1 53.5-29.5-40-18" fill="#ecbf25"/><path id="XMLID_116_" class="st74" d="M1851.9 2837.8l-52 28.4 38.5 19.1 53.4-29.5-39.9-18" fill="#ecbf25"/><path id="XMLID_115_" class="st74" d="M2235.1 2594.4l-51.9 28.4 38.4 19.1 53.4-29.6-39.9-17.9" fill="#ecbf25"/><path id="XMLID_114_" class="st74" d="M2293.1 2620.6l-51.9 28.4 38.4 19.1 53.4-29.6-39.9-17.9" fill="#ecbf25"/><linearGradient id="XMLID_23_" gradientUnits="userSpaceOnUse" x1="1482.755" y1="-15129.808" x2="1630.751" y2="-15129.808" gradientTransform="matrix(1 0 0 -1 0 -12382)"><stop offset="0" stop-opacity="0" id="stop79"/><stop offset="0" stop-color="#6853a3" stop-opacity=".1" id="stop81"/><stop offset=".373" stop-color="#154ca1" stop-opacity=".2" id="stop83"/></linearGradient><path id="XMLID_107_" d="M1630.8 2608.4v278.8l-148-70z" fill="url(#XMLID_23_)"/><linearGradient id="XMLID_24_" gradientUnits="userSpaceOnUse" x1="1926.742" y1="-14917.353" x2="2074.738" y2="-14917.353" gradientTransform="matrix(1 0 0 -1 0 -12382)"><stop offset="0" stop-opacity="0" id="stop87"/><stop offset="0" stop-color="#6853a3" stop-opacity=".1" id="stop89"/><stop offset=".373" stop-color="#154ca1" stop-opacity=".2" id="stop91"/></linearGradient><path id="XMLID_106_" d="M1926.7 2602l148-203.4v273.5" fill="url(#XMLID_24_)"/><path id="XMLID_122_" class="st57" d="M1334.7 1905.5l151.6-67.3 344.5 158.3-147.9 72.7-348.2-163.7" fill="#e7e6e8"/><path id="XMLID_128_" class="st57" d="M1630.8 2194.6v132.5l145.4-66.3z" fill="#e7e6e8"/><path id="XMLID_373_" class="st57" d="M2225.9 2187.5v-135.4l-595.1 275V2457z" fill="#e7e6e8"/><path id="XMLID_1_" class="st66" d="M1622.3 1209l156.6 291.7 166.5-248.7-323.1-67v24" fill="#351f1c"/></g><g id="Layer_4" transform="matrix(.05804 0 0 .05804 -32.966 -25.113)"><path id="XMLID_343_" class="st77" d="M974.1 3195.5l160.5 80.1 340.9-160.6-180.5-85.6z" fill="#82c675"/><path id="XMLID_342_" class="st78" d="M1137 3329v-54l-162.9-79.7v53.4z" fill="#0a7355"/><path id="XMLID_341_" class="st79" d="M1475.5 3115L1137 3275v54l340.4-159.9v-53.5" fill="#59ba57"/><path id="XMLID_339_" class="st77" d="M974.8 3121.2l160.4 80.1 340.9-160.7-180.5-85.5z" fill="#82c675"/><path id="XMLID_338_" class="st78" d="M1137.6 3254.7v-54L974.8 3121v53.4z" fill="#0a7355"/><path id="XMLID_337_" class="st79" d="M1476.1 3040.6l-338.5 160.1v54l340.4-159.9v-53.6" fill="#59ba57"/><path id="XMLID_335_" class="st77" d="M970.8 3047.4l160.4 80.1 340.9-160.7-180.5-85.6z" fill="#82c675"/><path id="XMLID_334_" class="st78" d="M1133.7 3180.8v-53.9l-162.9-79.8v53.4z" fill="#0a7355"/><path id="XMLID_324_" class="st79" d="M1472.1 2966.8l-338.4 160.1v53.9L1474 3021v-53.6" fill="#59ba57"/><path id="XMLID_110_" class="st55" d="M1778.4 1007.1l448.8-218.5v489.8l-448.8 225.2z" fill="#bc7d51"/><path id="XMLID_109_" class="st56" d="M1622.3 938l156.1 69.1v496.5l-156.1-85.2z" fill="#a06442"/><path id="XMLID_108_" d="M2025.8 1313.4c38.4 7 73.6-137.4 73.6-137.4s-48.3 85.5-72.3 101.7c-13.4 9-34.5-16.3-34.5-16.3s12.1 48.2 33.2 52z" fill="#995334"/><path id="XMLID_105_" class="st57" d="M1694 1459.3l-65.2 36.2 1 408.6 296.9 136.5v154.7l299.2-143.2 1.3-773.7-156.2 78.2-112.5 437.1-136.6-311.9-43.5 21.8z" fill="#e7e6e8"/><path id="XMLID_68_" class="st58" d="M1682.9 2069.2l-3.5 148.6-491.2-234.5 4-164.3 141.9 52 .6 34.5z" fill="#ccc3e1"/><path id="XMLID_136_" d="M1967 1512.3l43.1-125-110.1 55.3" fill="#a8694a"/><path id="XMLID_135_" class="st82" d="M1967 1512.3l35.8-121.3 68.2-34.4z" fill="#ed3193"/><path id="XMLID_134_" class="st82" d="M1821.9 1481.8l145.1 30.5-67-69.7z" fill="#ed3193"/><path id="XMLID_137_" class="st83" d="M2071 1356.6l103-51.1-65.1 144.3 65.1-35.5-239 420.7z" fill="#f7f7f7"/><path id="XMLID_138_" class="st83" d="M1952.3 1795l.3-14.7-130.7-298.5-43.5 21.8-84.4-44.3-14.6 8.4 87.7 107.2-46.1 23.4 226.5 205z" fill="#f7f7f7"/><linearGradient id="XMLID_25_" gradientUnits="userSpaceOnUse" x1="1928.032" y1="2029.784" x2="1928.032" y2="1278.36"><stop offset="0" stop-color="#fff33b" stop-opacity=".2" id="stop119"/><stop offset=".001" stop-color="#eae374" stop-opacity=".226" id="stop121"/><stop offset=".002" stop-color="#d3d894" stop-opacity=".254" id="stop123"/><stop offset=".003" stop-color="#c0cfab" stop-opacity=".282" id="stop125"/><stop offset=".004" stop-color="#b0c8bb" stop-opacity=".31" id="stop127"/><stop offset=".005" stop-color="#a4c4c6" stop-opacity=".339" id="stop129"/><stop offset=".006" stop-color="#9dc1cc" stop-opacity=".368" id="stop131"/><stop offset=".007" stop-color="#9bc0ce" stop-opacity=".4" id="stop133"/><stop offset="1" stop-color="#98b4c3" stop-opacity="0" id="stop135"/></linearGradient><path id="XMLID_420_" d="M1741.9 1955.7l161.3 74.1 324-751.4-448.3 222.3-80.1-44.2-70 39 .9 408.6z" fill="url(#XMLID_25_)"/><path id="XMLID_348_" class="st50" d="M1599.7 3204.4l-.1 59.7-133.9 27.9-103.5-30.4v-57.2z" fill="#d8a928"/><ellipse id="XMLID_347_" class="st50" cx="1481" cy="3256.3" rx="118.8" ry="57.3" fill="#d8a928"/><path id="XMLID_346_" class="st49" d="M1599.7 3199.1c0 13-9 25-24.2 34.7-21.7 13.7-56 22.6-94.5 22.6-65.6 0-118.8-25.6-118.8-57.3 0-31.7 53.2-57.3 118.8-57.3s118.7 25.6 118.7 57.3z" fill="#f7ca12"/><path id="XMLID_357_" class="st77" d="M571.3 3388.5l160.5 80.1 340.9-160.6-180.5-85.6z" fill="#82c675"/><path id="XMLID_356_" class="st78" d="M734.2 3522v-54l-162.9-79.7v53.4z" fill="#0a7355"/><path id="XMLID_355_" class="st79" d="M1072.7 3308l-338.5 160v54l340.4-159.8v-53.6" fill="#59ba57"/><path id="XMLID_354_" class="st77" d="M572 3314.2l160.4 80.1 340.9-160.6-180.5-85.6z" fill="#82c675"/><path id="XMLID_353_" class="st78" d="M734.8 3447.7v-54L572 3314v53.4z" fill="#0a7355"/><path id="XMLID_352_" class="st79" d="M1073.3 3233.7l-338.5 160v54l340.4-159.9v-53.5" fill="#59ba57"/><path id="XMLID_351_" class="st77" d="M568 3240.4l160.4 80.1 340.9-160.7-180.5-85.5z" fill="#82c675"/><path id="XMLID_350_" class="st78" d="M730.9 3373.9v-54L568 3240.2v53.4z" fill="#0a7355"/><path id="XMLID_349_" class="st79" d="M1069.3 3159.8l-338.4 160.1v54l340.3-159.9v-53.6" fill="#59ba57"/><path id="XMLID_370_" class="st77" d="M738.2 3084.9l160.4 80.1 340.9-160.7-180.5-85.5z" fill="#82c675"/><path id="XMLID_369_" class="st78" d="M901 3218.4v-54l-162.8-79.7v53.4z" fill="#0a7355"/><path id="XMLID_368_" class="st79" d="M1239.5 3004.3L901 3164.4v54l340.4-159.9v-53.6" fill="#59ba57"/><path id="XMLID_367_" class="st77" d="M738.8 3010.5l160.4 80.1 340.9-160.6-180.4-85.6z" fill="#82c675"/><path id="XMLID_366_" class="st78" d="M901.7 3144v-54l-162.9-79.7v53.4z" fill="#0a7355"/><path id="XMLID_364_" class="st79" d="M1240.1 2930l-338.4 160v54l340.4-159.8v-53.6" fill="#59ba57"/><path id="XMLID_361_" class="st77" d="M734.8 2936.7l160.5 80.1 340.9-160.6-180.5-85.6z" fill="#82c675"/><path id="XMLID_359_" class="st78" d="M897.7 3070.2v-54l-162.9-79.7v53.4z" fill="#0a7355"/><path id="XMLID_358_" class="st79" d="M1236.2 2856.2l-338.5 160v54l340.4-159.8v-53.6" fill="#59ba57"/><path id="XMLID_371_" class="st58" d="M1935 1835l1.8 487.7 18.9-9.1-2-511.5z" fill="#ccc3e1"/><ellipse id="XMLID_372_" class="st85" cx="1982.7" cy="1867.7" rx="9.7" ry="23.3" fill="#cdaf33"/><path id="XMLID_375_" class="st85" d="M1989 1844.3h-6.3l-5.2 19.9 1.8 16.7 4 10.1h5.7z" fill="#cdaf33"/><ellipse id="XMLID_374_" class="st86" cx="1989" cy="1867.7" rx="9.7" ry="23.3" fill="#f3c716"/><ellipse id="XMLID_378_" class="st85" cx="1985.8" cy="2011.2" rx="9.7" ry="23.3" fill="#cdaf33"/><path id="XMLID_377_" class="st85" d="M1992.2 1987.9h-6.4l-5.1 19.8 1.8 16.8 3.9 10 5.8.1z" fill="#cdaf33"/><ellipse id="XMLID_376_" class="st86" cx="1992.2" cy="2011.2" rx="9.7" ry="23.3" fill="#f3c716"/><ellipse id="XMLID_381_" class="st85" cx="1989" cy="2158.7" rx="9.7" ry="23.3" fill="#cdaf33"/><path id="XMLID_380_" class="st85" d="M1995.3 2135.3h-6.3l-5.2 19.9 1.9 16.7 3.9 10.1h5.7z" fill="#cdaf33"/><ellipse id="XMLID_379_" class="st86" cx="1995.3" cy="2158.7" rx="9.7" ry="23.3" fill="#f3c716"/><path id="XMLID_386_" class="st50" d="M1599.7 3112.7l-.1 59.7-133.9 27.9-103.5-30.4v-57.2z" fill="#d8a928"/><ellipse id="XMLID_384_" class="st50" cx="1481" cy="3164.6" rx="118.8" ry="57.3" fill="#d8a928"/><path id="XMLID_382_" class="st49" d="M1599.7 3107.4c0 13-9 25-24.2 34.7-21.7 13.7-56 22.6-94.5 22.6-65.6 0-118.8-25.6-118.8-57.3 0-31.7 53.2-57.3 118.8-57.3s118.7 25.7 118.7 57.3z" fill="#f7ca12"/><path id="XMLID_392_" class="st50" d="M1599.7 3021.9l-.1 59.8-133.9 27.9-103.5-30.4v-57.3z" fill="#d8a928"/><ellipse id="XMLID_391_" class="st50" cx="1481" cy="3073.9" rx="118.8" ry="57.3" fill="#d8a928"/><path id="XMLID_390_" class="st49" d="M1599.7 3016.7c0 13-9 25-24.2 34.7-21.7 13.7-56 22.6-94.5 22.6-65.6 0-118.8-25.6-118.8-57.3 0-31.6 53.2-57.3 118.8-57.3s118.7 25.6 118.7 57.3z" fill="#f7ca12"/><path id="XMLID_389_" class="st50" d="M1599.7 2930.2l-.1 59.8-133.9 27.9-103.5-30.4v-57.3z" fill="#d8a928"/><ellipse id="XMLID_388_" class="st50" cx="1481" cy="2982.2" rx="118.8" ry="57.3" fill="#d8a928"/><path id="XMLID_387_" class="st49" d="M1599.7 2925c0 13-9 25-24.2 34.7-21.7 13.7-56 22.6-94.5 22.6-65.6 0-118.8-25.6-118.8-57.3 0-31.6 53.2-57.3 118.8-57.3s118.7 25.6 118.7 57.3z" fill="#f7ca12"/><path id="XMLID_398_" class="st50" d="M1601.5 2841.3l-.1 59.7-133.9 27.9-103.5-30.4v-57.2z" fill="#d8a928"/><ellipse id="XMLID_397_" class="st50" cx="1482.8" cy="2893.2" rx="118.8" ry="57.3" fill="#d8a928"/><path id="XMLID_396_" class="st49" d="M1601.5 2836c0 13-9 25-24.2 34.7-21.7 13.7-56 22.6-94.5 22.6-65.6 0-118.8-25.6-118.8-57.3 0-31.7 53.2-57.3 118.8-57.3s118.7 25.7 118.7 57.3z" fill="#f7ca12"/><path id="XMLID_395_" class="st50" d="M1601.5 2749.6l-.1 59.7-133.9 27.9-103.5-30.4v-57.2z" fill="#d8a928"/><ellipse id="XMLID_394_" class="st50" cx="1482.8" cy="2801.6" rx="118.8" ry="57.3" fill="#d8a928"/><path id="XMLID_393_" class="st49" d="M1601.5 2744.3c0 13-9 25-24.2 34.7-21.7 13.7-56 22.6-94.5 22.6-65.6 0-118.8-25.6-118.8-57.3 0-31.7 53.2-57.3 118.8-57.3s118.7 25.7 118.7 57.3z" fill="#f7ca12"/><path id="XMLID_410_" class="st50" d="M1771.8 3308.7l-.1 59.8-133.9 27.8-103.5-30.3v-57.3z" fill="#d8a928"/><ellipse id="XMLID_409_" class="st50" cx="1653.1" cy="3360.7" rx="118.8" ry="57.3" fill="#d8a928"/><path id="XMLID_408_" class="st49" d="M1771.8 3303.4c0 13-9 25-24.2 34.7-21.7 13.7-56 22.6-94.5 22.6-65.6 0-118.8-25.6-118.8-57.3 0-31.7 53.2-57.3 118.8-57.3s118.7 25.7 118.7 57.3z" fill="#f7ca12"/><path id="XMLID_407_" class="st50" d="M1771.8 3217l-.1 59.8-133.9 27.9-103.5-30.4V3217z" fill="#d8a928"/><ellipse id="XMLID_406_" class="st50" cx="1653.1" cy="3269" rx="118.8" ry="57.3" fill="#d8a928"/><path id="XMLID_405_" class="st49" d="M1771.8 3211.8c0 13-9 25-24.2 34.7-21.7 13.7-56 22.6-94.5 22.6-65.6 0-118.8-25.6-118.8-57.3 0-31.7 53.2-57.3 118.8-57.3s118.7 25.6 118.7 57.3z" fill="#f7ca12"/><path id="XMLID_149_" class="st77" d="M2253.4 3201.5l160.4 80.1 340.9-160.6-180.4-85.6z" fill="#82c675"/><path id="XMLID_148_" class="st78" d="M2416.3 3335v-54l-162.9-79.7v53.4z" fill="#0a7355"/><path id="XMLID_146_" d="M2754.7 3121l-338.4 160v54l340.3-159.9v-53.5" fill="#8ec18e"/><path id="XMLID_140_" class="st77" d="M2452.6 3301.2l160.4 80.1 340.9-160.6-180.5-85.6z" fill="#82c675"/><path id="XMLID_139_" class="st78" d="M2615.5 3434.7v-54l-162.9-79.7v53.4z" fill="#0a7355"/><path id="XMLID_96_" class="st79" d="M2953.9 3220.7l-338.4 160v54l340.3-159.8v-53.6" fill="#59ba57"/><path id="XMLID_145_" class="st77" d="M2648.6 3397.7l160.4 80.1 340.9-160.7-180.5-85.6z" fill="#82c675"/><path id="XMLID_143_" class="st78" d="M2811.5 3531.1v-53.9l-162.9-79.8v53.4z" fill="#0a7355"/><path id="XMLID_141_" class="st79" d="M3149.9 3317.1l-338.4 160.1v53.9l340.3-159.8v-53.6" fill="#59ba57"/><path id="XMLID_166_" class="st77" d="M2254 3127.2l160.5 80.1 340.9-160.7-180.5-85.5z" fill="#82c675"/><path id="XMLID_157_" class="st78" d="M2416.9 3260.7v-54L2254 3127v53.4z" fill="#0a7355"/><path id="XMLID_156_" class="st79" d="M2755.4 3046.6l-338.5 160.1v54l340.4-159.9v-53.6" fill="#59ba57"/><path id="XMLID_155_" class="st77" d="M2453.2 3226.9l160.5 80.1 340.9-160.6-180.5-85.6z" fill="#82c675"/><path id="XMLID_154_" class="st78" d="M2616.1 3360.4v-54l-162.9-79.7v53.4z" fill="#0a7355"/><path id="XMLID_153_" class="st79" d="M2954.6 3146.4l-338.5 160v54l340.4-159.9V3147" fill="#59ba57"/><path id="XMLID_152_" class="st77" d="M2649.2 3323.3l160.5 80.1 340.9-160.6-180.5-85.6z" fill="#82c675"/><path id="XMLID_151_" class="st78" d="M2812.1 3456.8v-54l-162.9-79.7v53.4z" fill="#0a7355"/><path id="XMLID_150_" class="st79" d="M3150.6 3242.8l-338.5 160v54l340.4-159.8v-53.6" fill="#59ba57"/><path id="XMLID_186_" class="st77" d="M2250.1 3053.4l160.4 80.1 340.9-160.7-180.5-85.6z" fill="#82c675"/><path id="XMLID_185_" class="st78" d="M2412.9 3186.8v-53.9l-162.8-79.8v53.4z" fill="#0a7355"/><path id="XMLID_184_" class="st79" d="M2751.4 2972.8l-338.5 160.1v53.9l340.4-159.8v-53.6" fill="#59ba57"/><path id="XMLID_183_" class="st77" d="M2449.3 3153.1l160.4 80.1 340.9-160.7-180.5-85.5z" fill="#82c675"/><path id="XMLID_182_" class="st78" d="M2612.1 3286.5v-53.9l-162.8-79.7v53.4z" fill="#0a7355"/><path id="XMLID_181_" class="st79" d="M2950.6 3072.5l-338.5 160.1v53.9l340.4-159.8v-53.6" fill="#59ba57"/><path id="XMLID_178_" class="st77" d="M2645.3 3249.5l160.4 80.1 340.9-160.6-180.5-85.6z" fill="#82c675"/><path id="XMLID_177_" class="st78" d="M2808.1 3383v-54l-162.8-79.7v53.4z" fill="#0a7355"/><path id="XMLID_176_" class="st79" d="M3146.6 3169l-338.5 160v54l340.4-159.9v-53.5" fill="#59ba57"/><path id="XMLID_310_" class="st77" d="M2365.8 3033.9l160.4 80.1 340.9-160.7-180.5-85.6z" fill="#82c675"/><path id="XMLID_309_" class="st78" d="M2528.6 3167.3v-53.9l-162.8-79.7v53.4z" fill="#0a7355"/><path id="XMLID_304_" class="st79" d="M2867.1 2953.3l-338.5 160.1v53.9l340.4-159.8v-53.6" fill="#59ba57"/><path id="XMLID_303_" class="st77" d="M2561.8 3130.3l160.4 80.1 340.9-160.6-180.5-85.6z" fill="#82c675"/><path id="XMLID_302_" class="st78" d="M2724.6 3263.8v-54l-162.8-79.7v53.4z" fill="#0a7355"/><path id="XMLID_301_" class="st79" d="M3063.1 3049.8l-338.5 160v54l340.4-159.9v-53.5" fill="#59ba57"/><path id="XMLID_299_" class="st77" d="M2366.4 2959.5l160.4 80.1 340.9-160.6-180.5-85.6z" fill="#82c675"/><path id="XMLID_298_" class="st78" d="M2529.3 3093v-54l-162.9-79.7v53.4z" fill="#0a7355"/><path id="XMLID_297_" class="st79" d="M2867.7 2879l-338.4 160v54l340.3-159.8v-53.6" fill="#59ba57"/><path id="XMLID_296_" class="st77" d="M2562.4 3056l160.4 80.1 340.9-160.7-180.5-85.6z" fill="#82c675"/><path id="XMLID_196_" class="st78" d="M2725.3 3189.4v-53.9l-162.9-79.8v53.5z" fill="#0a7355"/><path id="XMLID_195_" class="st79" d="M3063.7 2975.4l-338.4 160.1v53.9l340.3-159.8V2976" fill="#59ba57"/><path id="XMLID_194_" class="st77" d="M2362.4 2885.7l160.4 80.1 340.9-160.6-180.4-85.6z" fill="#82c675"/><path id="XMLID_193_" class="st78" d="M2525.3 3019.2v-54l-162.9-79.7v53.4z" fill="#0a7355"/><path id="XMLID_192_" class="st79" d="M2863.7 2805.2l-338.4 160v54l340.4-159.8v-53.6" fill="#59ba57"/><path id="XMLID_190_" class="st77" d="M2558.4 2982.1l160.4 80.1 340.9-160.6-180.4-85.6z" fill="#82c675"/><path id="XMLID_189_" class="st78" d="M2721.3 3115.6v-54l-162.9-79.7v53.4z" fill="#0a7355"/><path id="XMLID_188_" class="st79" d="M3059.7 2901.6l-338.4 160v54l340.4-159.8v-53.6" fill="#59ba57"/><path id="XMLID_333_" class="st77" d="M2463.1 2857.2l160.4 80.1 340.9-160.7L2784 2691z" fill="#82c675"/><path id="XMLID_332_" class="st78" d="M2626 2990.6v-53.9l-162.9-79.8v53.4z" fill="#0a7355"/><path id="XMLID_331_" class="st79" d="M2964.4 2776.6L2626 2936.7v53.9l340.4-159.8v-53.6" fill="#59ba57"/><path id="XMLID_316_" class="st77" d="M2463.8 2782.8l160.4 80.1 340.9-160.6-180.5-85.6z" fill="#82c675"/><path id="XMLID_315_" class="st78" d="M2626.6 2916.3v-54l-162.8-79.7v53.4z" fill="#0a7355"/><path id="XMLID_314_" class="st79" d="M2965.1 2702.3l-338.5 160v54l340.4-159.8v-53.6" fill="#59ba57"/><path id="XMLID_313_" class="st77" d="M2459.8 2709l160.4 80.1 340.9-160.6-180.5-85.6z" fill="#82c675"/><path id="XMLID_312_" class="st78" d="M2622.6 2842.5v-54l-162.8-79.7v53.4z" fill="#0a7355"/><path id="XMLID_424_" class="st79" d="M2961.1 2628.5l-338.5 160v54l340.4-159.9" fill="#59ba57"/><path id="XMLID_404_" class="st50" d="M2512 3412.4l-.1 59.8-133.9 27.9-103.5-30.4v-57.3z" fill="#d8a928"/><ellipse id="XMLID_403_" class="st50" cx="2393.3" cy="3464.4" rx="118.8" ry="57.3" fill="#d8a928"/><path id="XMLID_402_" class="st49" d="M2512 3407.2c0 13-9 25-24.2 34.7-21.7 13.7-56 22.6-94.5 22.6-65.6 0-118.8-25.6-118.8-57.3 0-31.7 53.2-57.3 118.8-57.3s118.7 25.6 118.7 57.3z" fill="#f7ca12"/><path id="XMLID_401_" class="st50" d="M2512 3320.8l-.1 59.7-133.9 27.9-103.5-30.4v-57.2z" fill="#d8a928"/><ellipse id="XMLID_400_" class="st50" cx="2393.3" cy="3372.7" rx="118.8" ry="57.3" fill="#d8a928"/><path id="XMLID_399_" class="st49" d="M2512 3315.5c0 13-9 25-24.2 34.7-21.7 13.7-56 22.6-94.5 22.6-65.6 0-118.8-25.6-118.8-57.3 0-31.7 53.2-57.3 118.8-57.3s118.7 25.7 118.7 57.3z" fill="#f7ca12"/><path id="XMLID_308_" class="st88" d="M2099.7 1146.8L2069 1135l-23-44 8.5-46z" fill="#212121"/><linearGradient id="XMLID_26_" gradientUnits="userSpaceOnUse" x1="1783.69" y1="1161" x2="1783.69" y2="1500.651"><stop offset="0" stop-color="#702c05" stop-opacity=".2" id="stop252"/><stop offset=".14" stop-color="#773212" stop-opacity=".231" id="stop254"/><stop offset=".319" stop-color="#7e371b" stop-opacity=".272" id="stop256"/><stop offset=".502" stop-color="#813b21" stop-opacity=".313" id="stop258"/><stop offset=".69" stop-color="#823c24" stop-opacity=".355" id="stop260"/><stop offset=".891" stop-color="#833d25" stop-opacity=".4" id="stop262"/></linearGradient><path id="XMLID_2_" d="M1622.3 1209l156.6 291.7 166.5-248.7-323.4-91z" fill="url(#XMLID_26_)"/><path id="XMLID_113_" d="M1807.4 1125.2l448.8-218.8s9.9 133.3-11.7 167.9c-23 37.1-103.8 87.4-144.8 72.5-22.9-8.3-39.4-89.2-39.4-89.2s-9.1 98.1-28.7 122.8c-38.9 49-175.8 141.7-228.9 108.7-35.2-21.9 4.7-163.9 4.7-163.9z" fill="#383838"/><path id="XMLID_112_" class="st88" d="M2256.2 906.4l-30.5-10.6-446.8 214.1v168.6l28.5 12.7v-166z" fill="#212121"/><path id="XMLID_111_" class="st88" d="M1601.6 1176.2L1507 1119l86.4-2.1 185.5-7v168.6z" fill="#212121"/><linearGradient id="XMLID_27_" gradientUnits="userSpaceOnUse" x1="1575.961" y1="1125.434" x2="2139.213" y2="1125.434"><stop offset="0" stop-color="#fff33b" stop-opacity=".2" id="stop269"/><stop offset="0" stop-color="#f0dd3f" stop-opacity=".204" id="stop271"/><stop offset="0" stop-color="#a79640" stop-opacity=".227" id="stop273"/><stop offset=".001" stop-color="#746739" stop-opacity=".251" id="stop275"/><stop offset=".001" stop-color="#514730" stop-opacity=".275" id="stop277"/><stop offset=".002" stop-color="#383128" stop-opacity=".299" id="stop279"/><stop offset=".002" stop-color="#252021" stop-opacity=".323" id="stop281"/><stop offset=".003" stop-color="#18131c" stop-opacity=".348" id="stop283"/><stop offset=".003" stop-color="#0f0a19" stop-opacity=".373" id="stop285"/><stop offset=".004" stop-color="#0c0718" stop-opacity=".4" id="stop287"/><stop offset=".471" stop-color="#130e1c" stop-opacity=".7" id="stop289"/><stop offset=".984" stop-color="#888a8c" stop-opacity=".2" id="stop291"/></linearGradient><path id="XMLID_3_" d="M1576 1117.3l202.9-7.4 324.3-155.4 36.1 8.9s-92.7 218.3-155.2 261.6c-142.4 98.6-176.6 66.2-176.6 66.2l-28.5-12.7-156.6-93.5-46.4-67.7" fill="url(#XMLID_27_)"/><linearGradient id="XMLID_28_" gradientUnits="userSpaceOnUse" x1="1691.601" y1="2453.726" x2="1691.601" y2="2195.291"><stop offset="0" stop-color="#fff33b" stop-opacity=".2" id="stop295"/><stop offset=".001" stop-color="#eae374" stop-opacity=".226" id="stop297"/><stop offset=".002" stop-color="#d3d894" stop-opacity=".254" id="stop299"/><stop offset=".003" stop-color="#c0cfab" stop-opacity=".282" id="stop301"/><stop offset=".004" stop-color="#b0c8bb" stop-opacity=".31" id="stop303"/><stop offset=".005" stop-color="#a4c4c6" stop-opacity=".339" id="stop305"/><stop offset=".006" stop-color="#9dc1cc" stop-opacity=".368" id="stop307"/><stop offset=".007" stop-color="#9bc0ce" stop-opacity=".4" id="stop309"/><stop offset="1" stop-color="#98b4c3" stop-opacity="0" id="stop311"/></linearGradient><path id="XMLID_5_" d="M1754.3 2250.8l-125.4 202.9.9-258.4z" fill="url(#XMLID_28_)"/><linearGradient id="XMLID_29_" gradientUnits="userSpaceOnUse" x1="1804.821" y1="2260.808" x2="1804.821" y2="2011.242"><stop offset="0" stop-color="#702c05" stop-opacity=".2" id="stop315"/><stop offset=".14" stop-color="#773212" stop-opacity=".231" id="stop317"/><stop offset=".319" stop-color="#7e371b" stop-opacity=".272" id="stop319"/><stop offset=".502" stop-color="#813b21" stop-opacity=".313" id="stop321"/><stop offset=".69" stop-color="#823c24" stop-opacity=".355" id="stop323"/><stop offset=".891" stop-color="#833d25" stop-opacity=".4" id="stop325"/></linearGradient><path id="XMLID_7_" d="M1682.9 2185.2l93.3 75.6 150.5-220.2-127.2-29.4-116.6 58v116" fill="url(#XMLID_29_)"/><linearGradient id="XMLID_30_" gradientUnits="userSpaceOnUse" x1="2537.784" y1="1914.623" x2="2537.784" y2="1659.171"><stop offset="0" stop-color="#702c05" stop-opacity=".2" id="stop329"/><stop offset=".14" stop-color="#773212" stop-opacity=".231" id="stop331"/><stop offset=".319" stop-color="#7e371b" stop-opacity=".272" id="stop333"/><stop offset=".502" stop-color="#813b21" stop-opacity=".313" id="stop335"/><stop offset=".69" stop-color="#823c24" stop-opacity=".355" id="stop337"/><stop offset=".891" stop-color="#833d25" stop-opacity=".4" id="stop339"/></linearGradient><path id="XMLID_8_" d="M2414.3 1838.2l100.6 76.4 146.4-225.3-128.3-30.1-116.6 57.9-2.1 121.1" fill="url(#XMLID_30_)"/></g><g id="Layer_6" transform="matrix(.05804 0 0 .05804 -32.966 -25.113)"><linearGradient id="XMLID_31_" gradientUnits="userSpaceOnUse" x1="1780.338" y1="-13033.679" x2="1780.338" y2="-13499.322" gradientTransform="matrix(1 0 0 -1 0 -12382)"><stop offset="0" stop-color="#fff33b" stop-opacity=".2" id="stop344"/><stop offset="0" stop-color="#f5dd3a" stop-opacity=".208" id="stop346"/><stop offset="0" stop-color="#b8932e" stop-opacity=".254" id="stop348"/><stop offset=".001" stop-color="#8b5e1d" stop-opacity=".301" id="stop350"/><stop offset=".001" stop-color="#6a3a0c" stop-opacity=".349" id="stop352"/><stop offset=".002" stop-color="#521e00" stop-opacity=".397" id="stop354"/><stop offset=".002" stop-color="#3e0100" stop-opacity=".446" id="stop356"/><stop offset=".003" stop-color="#2f0000" stop-opacity=".495" id="stop358"/><stop offset=".003" stop-color="#200" stop-opacity=".546" id="stop360"/><stop offset=".004" stop-color="#1d0000" stop-opacity=".6" id="stop362"/><stop offset=".686" stop-color="#680a14" stop-opacity=".4" id="stop364"/><stop offset=".984" stop-color="#a72c39" stop-opacity=".4" id="stop366"/></linearGradient><path id="XMLID_78_" d="M1332.5 652.2l243.5 465.1 47.5-1.5-1.2-177.8 156.1 69.1 387.1-188.5 62.7-166.9z" fill="url(#XMLID_31_)"/><linearGradient id="XMLID_32_" gradientUnits="userSpaceOnUse" x1="1337.457" y1="-14427.358" x2="1799.476" y2="-14427.358" gradientTransform="matrix(1 0 0 -1 0 -12382)"><stop offset="0" stop-color="#fff33b" stop-opacity=".2" id="stop370"/><stop offset=".001" stop-color="#eae374" stop-opacity=".226" id="stop372"/><stop offset=".002" stop-color="#d3d894" stop-opacity=".254" id="stop374"/><stop offset=".003" stop-color="#c0cfab" stop-opacity=".282" id="stop376"/><stop offset=".004" stop-color="#b0c8bb" stop-opacity=".31" id="stop378"/><stop offset=".005" stop-color="#a4c4c6" stop-opacity=".339" id="stop380"/><stop offset=".006" stop-color="#9dc1cc" stop-opacity=".368" id="stop382"/><stop offset=".007" stop-color="#9bc0ce" stop-opacity=".4" id="stop384"/><stop offset="1" stop-color="#98b4c3" stop-opacity=".4" id="stop386"/></linearGradient><path id="XMLID_418_" d="M1337.5 1905.5l462 105.7-116.6 58v116z" fill="url(#XMLID_32_)"/><linearGradient id="XMLID_33_" gradientUnits="userSpaceOnUse" x1="1893.934" y1="818.643" x2="1893.934" y2="1115.769"><stop offset="0" stop-color="#702c05" stop-opacity=".2" id="stop390"/><stop offset=".14" stop-color="#773212" stop-opacity=".231" id="stop392"/><stop offset=".319" stop-color="#7e371b" stop-opacity=".272" id="stop394"/><stop offset=".502" stop-color="#813b21" stop-opacity=".313" id="stop396"/><stop offset=".69" stop-color="#823c24" stop-opacity=".355" id="stop398"/><stop offset=".891" stop-color="#833d25" stop-opacity=".4" id="stop400"/></linearGradient><path id="XMLID_421_" d="M2165.5 818.6l-62.4 135.9-26.4 12.7-297.8 142.7-155.4 5.9-1.2-177.8 156.1 69.1z" fill="url(#XMLID_33_)"/><linearGradient id="XMLID_34_" gradientUnits="userSpaceOnUse" x1="2955.831" y1="2620.583" x2="2955.831" y2="2620.583"><stop offset="0" stop-color="#fff33b" stop-opacity=".2" id="stop404"/><stop offset="0" stop-color="#f7e946" stop-opacity=".206" id="stop406"/><stop offset=".001" stop-color="#c9d05e" stop-opacity=".232" id="stop408"/><stop offset=".002" stop-color="#a1bc6c" stop-opacity=".259" id="stop410"/><stop offset=".003" stop-color="#80ae74" stop-opacity=".286" id="stop412"/><stop offset=".004" stop-color="#65a479" stop-opacity=".314" id="stop414"/><stop offset=".005" stop-color="#4e9d7c" stop-opacity=".341" id="stop416"/><stop offset=".006" stop-color="#3c9a7d" stop-opacity=".37" id="stop418"/><stop offset=".007" stop-color="#36987e" stop-opacity=".4" id="stop420"/><stop offset=".593" stop-color="#4f7770" stop-opacity=".4" id="stop422"/><stop offset="1" stop-color="#4c7c72" stop-opacity=".4" id="stop424"/></linearGradient><linearGradient id="XMLID_35_" gradientUnits="userSpaceOnUse" x1="2459.778" y1="2708.79" x2="2459.778" y2="2708.79"><stop offset="0" stop-color="#fff33b" stop-opacity=".2" id="stop427"/><stop offset="0" stop-color="#f7e946" stop-opacity=".206" id="stop429"/><stop offset=".001" stop-color="#c9d05e" stop-opacity=".232" id="stop431"/><stop offset=".002" stop-color="#a1bc6c" stop-opacity=".259" id="stop433"/><stop offset=".003" stop-color="#80ae74" stop-opacity=".286" id="stop435"/><stop offset=".004" stop-color="#65a479" stop-opacity=".314" id="stop437"/><stop offset=".005" stop-color="#4e9d7c" stop-opacity=".341" id="stop439"/><stop offset=".006" stop-color="#3c9a7d" stop-opacity=".37" id="stop441"/><stop offset=".007" stop-color="#36987e" stop-opacity=".4" id="stop443"/><stop offset=".593" stop-color="#4f7770" stop-opacity=".4" id="stop445"/><stop offset="1" stop-color="#4c7c72" stop-opacity=".4" id="stop447"/></linearGradient><linearGradient id="XMLID_36_" gradientUnits="userSpaceOnUse" x1="2631.615" y1="2990.637" x2="2631.615" y2="2990.637"><stop offset="0" stop-color="#fff33b" stop-opacity=".2" id="stop450"/><stop offset="0" stop-color="#f7e946" stop-opacity=".206" id="stop452"/><stop offset=".001" stop-color="#c9d05e" stop-opacity=".232" id="stop454"/><stop offset=".002" stop-color="#a1bc6c" stop-opacity=".259" id="stop456"/><stop offset=".003" stop-color="#80ae74" stop-opacity=".286" id="stop458"/><stop offset=".004" stop-color="#65a479" stop-opacity=".314" id="stop460"/><stop offset=".005" stop-color="#4e9d7c" stop-opacity=".341" id="stop462"/><stop offset=".006" stop-color="#3c9a7d" stop-opacity=".37" id="stop464"/><stop offset=".007" stop-color="#36987e" stop-opacity=".4" id="stop466"/><stop offset=".593" stop-color="#4f7770" stop-opacity=".4" id="stop468"/><stop offset="1" stop-color="#4c7c72" stop-opacity=".4" id="stop470"/></linearGradient><linearGradient id="XMLID_37_" gradientUnits="userSpaceOnUse" x1="2250.07" y1="3079.799" x2="3146.584" y2="3079.799"><stop offset="0" stop-color="#fff33b" stop-opacity=".2" id="stop473"/><stop offset=".001" stop-color="#eee238" stop-opacity=".243" id="stop475"/><stop offset=".002" stop-color="#d6d334" stop-opacity=".305" id="stop477"/><stop offset=".004" stop-color="#c5c933" stop-opacity=".367" id="stop479"/><stop offset=".006" stop-color="#bbc334" stop-opacity=".431" id="stop481"/><stop offset=".007" stop-color="#b7c134" stop-opacity=".5" id="stop483"/><stop offset="1" stop-color="#228f48" stop-opacity=".3" id="stop485"/></linearGradient><path id="XMLID_426_" d="M2459.8 2708.8l501.3-80.3-37.9 228.4 138.5 45.3-196.4 304.3 281.3-37.5-335.1 362.1-561.4-477.7 278.5 113.9-166.2-281.6 263.6 104.9z" fill="url(#XMLID_37_)"/><linearGradient id="XMLID_38_" gradientUnits="userSpaceOnUse" x1="2225.916" y1="-14095.685" x2="2532.992" y2="-14095.685" gradientTransform="matrix(1 0 0 -1 0 -12382)"><stop offset="0" stop-color="#fff33b" stop-opacity=".2" id="stop489"/><stop offset=".001" stop-color="#eae374" stop-opacity=".226" id="stop491"/><stop offset=".002" stop-color="#d3d894" stop-opacity=".254" id="stop493"/><stop offset=".003" stop-color="#c0cfab" stop-opacity=".282" id="stop495"/><stop offset=".004" stop-color="#b0c8bb" stop-opacity=".31" id="stop497"/><stop offset=".005" stop-color="#a4c4c6" stop-opacity=".339" id="stop499"/><stop offset=".006" stop-color="#9dc1cc" stop-opacity=".368" id="stop501"/><stop offset=".007" stop-color="#9bc0ce" stop-opacity=".4" id="stop503"/><stop offset="1" stop-color="#98b4c3" stop-opacity=".4" id="stop505"/></linearGradient><path id="XMLID_4_" d="M2225.9 1631.3l1.3-42.1 305.8 70-116.6 57.9-2.1 121.1-187.1-155.2z" fill="url(#XMLID_38_)"/><linearGradient id="XMLID_39_" gradientUnits="userSpaceOnUse" x1="568" y1="3189.097" x2="1362.199" y2="3189.097"><stop offset="0" stop-color="#fff33b" stop-opacity=".2" id="stop509"/><stop offset=".001" stop-color="#eee238" stop-opacity=".243" id="stop511"/><stop offset=".002" stop-color="#d6d334" stop-opacity=".305" id="stop513"/><stop offset=".004" stop-color="#c5c933" stop-opacity=".367" id="stop515"/><stop offset=".006" stop-color="#bbc334" stop-opacity=".431" id="stop517"/><stop offset=".007" stop-color="#b7c134" stop-opacity=".5" id="stop519"/><stop offset="1" stop-color="#1d8f55" stop-opacity=".4" id="stop521"/></linearGradient><path id="XMLID_6_" d="M734.8 2936.5L901 3218.4l-333 21.8L734.2 3522l628-448.1v-52L901 3218.4l335.2-362.2z" fill="url(#XMLID_39_)"/></g></svg>