<svg width="103" height="75" fill="none" xmlns="http://www.w3.org/2000/svg"><path d="M62.254 56.89c-9.384 0-16.992-1.521-16.992-3.398v2.383c0 1.877 7.608 3.398 16.992 3.398 9.385 0 16.993-1.521 16.993-3.398v-2.383c0 1.877-7.608 3.398-16.993 3.398z" fill="#EFB150"/><path d="M62.254 56.89c9.385 0 16.993-1.521 16.993-3.398 0-1.876-7.608-3.397-16.993-3.397-9.384 0-16.992 1.521-16.992 3.398 0 1.876 7.608 3.397 16.992 3.397z" fill="#FFC947"/><path d="M59.95 52.301c-9.385 0-16.993-1.521-16.993-3.398v2.383c0 1.877 7.608 3.398 16.992 3.398 9.385 0 16.993-1.522 16.993-3.398v-2.383c0 1.877-7.608 3.398-16.993 3.398z" fill="#EFB150"/><path d="M59.95 52.301c9.384 0 16.992-1.521 16.992-3.398 0-1.876-7.608-3.397-16.993-3.397-9.384 0-16.992 1.521-16.992 3.398 0 1.876 7.608 3.397 16.992 3.397z" fill="#FFC947"/><path d="M63.535 46.397c-9.385 0-16.992-1.521-16.992-3.398v2.383c0 1.876 7.607 3.398 16.992 3.398 9.385 0 16.992-1.522 16.992-3.398v-2.383c0 1.876-7.607 3.398-16.992 3.398z" fill="#EFB150"/><path d="M63.535 46.396c9.385 0 16.992-1.52 16.992-3.397 0-1.877-7.607-3.398-16.992-3.398-9.385 0-16.992 1.522-16.992 3.398 0 1.876 7.607 3.397 16.992 3.397z" fill="#FFC947"/><path d="M62.254 41.927c-9.384 0-16.992-1.521-16.992-3.397v2.383c0 1.876 7.608 3.397 16.992 3.397 9.385 0 16.993-1.521 16.993-3.398V38.53c0 1.876-7.608 3.397-16.993 3.397z" fill="#EFB150"/><path d="M62.254 41.927c9.385 0 16.993-1.521 16.993-3.397 0-1.877-7.608-3.398-16.993-3.398-9.384 0-16.992 1.521-16.992 3.398 0 1.876 7.608 3.397 16.992 3.397z" fill="#FFC947"/><path d="M59.95 37.338c-9.385 0-16.993-1.52-16.993-3.397v2.383c0 1.876 7.608 3.397 16.992 3.397 9.385 0 16.993-1.521 16.993-3.397V33.94c0 1.876-7.608 3.397-16.993 3.397z" fill="#EFB150"/><path d="M59.95 37.338c9.384 0 16.992-1.521 16.992-3.397 0-1.877-7.608-3.398-16.993-3.398-9.384 0-16.992 1.521-16.992 3.398 0 1.876 7.608 3.397 16.992 3.397z" fill="#FFC947"/><path d="M63.535 31.434c-9.385 0-16.992-1.521-16.992-3.398v2.383c0 1.876 7.607 3.397 16.992 3.397 9.385 0 16.992-1.52 16.992-3.397v-2.383c0 1.877-7.607 3.398-16.992 3.398z" fill="#EFB150"/><path d="M63.535 31.433c9.385 0 16.992-1.52 16.992-3.397 0-1.876-7.607-3.397-16.992-3.397-9.385 0-16.992 1.52-16.992 3.397 0 1.876 7.607 3.397 16.992 3.397z" fill="#FFC947"/><path d="M62.254 26.964c-9.384 0-16.992-1.52-16.992-3.397v2.383c0 1.876 7.608 3.397 16.992 3.397 9.385 0 16.993-1.521 16.993-3.397v-2.383c0 1.876-7.608 3.397-16.993 3.397z" fill="#EFB150"/><path d="M62.254 26.965c9.385 0 16.993-1.522 16.993-3.398 0-1.877-7.608-3.398-16.993-3.398-9.384 0-16.992 1.521-16.992 3.398 0 1.876 7.608 3.398 16.992 3.398z" fill="#FFC947"/><path d="M59.95 22.375c-9.385 0-16.993-1.52-16.993-3.397v2.383c0 1.876 7.608 3.397 16.992 3.397 9.385 0 16.993-1.52 16.993-3.397v-2.383c0 1.876-7.608 3.397-16.993 3.397z" fill="#EFB150"/><path d="M59.95 22.375c9.384 0 16.992-1.52 16.992-3.397 0-1.877-7.608-3.398-16.993-3.398-9.384 0-16.992 1.522-16.992 3.398 0 1.876 7.608 3.397 16.992 3.397z" fill="#FFC947"/><path d="M60.64 17.068c-9.385 0-16.993-1.521-16.993-3.398v2.383c0 1.876 7.608 3.397 16.992 3.397 9.385 0 16.993-1.52 16.993-3.397V13.67c0 1.877-7.608 3.398-16.993 3.398z" fill="#EFB150"/><path d="M60.64 17.068c9.384 0 16.992-1.521 16.992-3.398 0-1.876-7.608-3.397-16.993-3.397-9.384 0-16.992 1.52-16.992 3.397 0 1.877 7.608 3.398 16.992 3.398z" fill="#FFC947"/><path d="M59.359 12.598c-9.385 0-16.992-1.52-16.992-3.397v2.383c0 1.876 7.607 3.397 16.992 3.397 9.385 0 16.992-1.52 16.992-3.397V9.2c0 1.876-7.607 3.397-16.992 3.397z" fill="#EFB150"/><path d="M59.359 12.598c9.385 0 16.992-1.52 16.992-3.397 0-1.877-7.607-3.398-16.992-3.398-9.385 0-16.992 1.521-16.992 3.398 0 1.876 7.607 3.397 16.992 3.397z" fill="#FFC947"/><path d="M58.79 8.01c-9.385 0-16.993-1.522-16.993-3.398v2.383c0 1.876 7.608 3.397 16.992 3.397 9.385 0 16.993-1.52 16.993-3.397V4.612c0 1.876-7.608 3.397-16.993 3.397z" fill="#EFB150"/><path d="M58.79 8.01c9.384 0 16.992-1.522 16.992-3.398 0-1.876-7.608-3.397-16.993-3.397-9.384 0-16.992 1.52-16.992 3.397 0 1.876 7.608 3.397 16.992 3.397z" fill="#FFC947"/><path opacity=".3" d="M76.942 19.039c-1.603.431-2.551.965-2.551 1.544v1.819c0 .192.105.379.303.559-.82.34-1.28.722-1.28 1.125v1.818c0 .142.057.28.167.416-.9.353-1.409.753-1.409 1.177v1.818c0 .457.592.886 1.63 1.259-1.357.41-2.148.9-2.148 1.43v1.818c0 .491.684.95 1.872 1.342a.618.618 0 00-.112.342v1.818c0 .142.057.28.167.416-.9.353-1.409.753-1.409 1.177v1.818c0 .648 1.187 1.24 3.148 1.694-.637.306-.99.642-.99.994v1.819c0 .198.112.39.323.576-.794.336-1.24.712-1.24 1.108v1.818c0 .392.437.764 1.216 1.097-.156.16-.238.326-.238.496v1.818c0 .319.288.624.814.906-2.2.465-3.55 1.092-3.55 1.782v1.819c0 .491.683.95 1.871 1.342a.618.618 0 00-.112.342v.09c3.575-.622 5.834-1.539 5.834-2.561v-2.383c0-.644-.896-1.246-2.452-1.759a.81.81 0 00.146-.447v-2.383c0-.417-.376-.817-1.065-1.186 2.883-.61 4.651-1.431 4.651-2.336v-2.383c0-.513-.57-1-1.59-1.437.203-.21.31-.427.31-.649V38.53c0-.644-.896-1.246-2.452-1.759a.81.81 0 00.147-.447V33.94c0-.417-.377-.817-1.066-1.186 2.883-.609 4.651-1.43 4.651-2.335v-2.383c0-.514-.57-1-1.59-1.437.203-.21.31-.427.31-.65v-2.382c0-.644-.896-1.246-2.451-1.76a.81.81 0 00.146-.446l-.001-2.322z" fill="#754800"/><path d="M88.909 60.94c-7.163 0-12.97-1.162-12.97-2.594v1.819c0 1.432 5.807 2.593 12.97 2.593 7.162 0 12.969-1.161 12.969-2.593v-1.819c0 1.432-5.807 2.593-12.97 2.593z" fill="#EFB150"/><path d="M88.909 60.94c7.162 0 12.969-1.162 12.969-2.594s-5.807-2.593-12.97-2.593c-7.162 0-12.969 1.16-12.969 2.593 0 1.432 5.807 2.593 12.97 2.593z" fill="#FFC947"/><path d="M87.15 57.437c-7.164 0-12.97-1.161-12.97-2.593v1.818c0 1.432 5.807 2.593 12.97 2.593 7.162 0 12.969-1.16 12.969-2.593v-1.818c0 1.432-5.807 2.593-12.97 2.593z" fill="#EFB150"/><path d="M87.15 57.437c7.162 0 12.969-1.161 12.969-2.593 0-1.433-5.807-2.593-12.97-2.593s-12.97 1.16-12.97 2.593c0 1.432 5.807 2.593 12.97 2.593z" fill="#FFC947"/><path d="M89.886 52.93c-7.163 0-12.97-1.16-12.97-2.593v1.819c0 1.432 5.807 2.593 12.97 2.593s12.969-1.161 12.969-2.593v-1.82c0 1.433-5.806 2.594-12.969 2.594z" fill="#EFB150"/><path d="M89.886 52.93c7.163 0 12.969-1.16 12.969-2.593 0-1.432-5.806-2.593-12.969-2.593-7.163 0-12.97 1.16-12.97 2.593 0 1.432 5.807 2.593 12.97 2.593z" fill="#FFC947"/><path d="M88.909 49.52c-7.163 0-12.97-1.162-12.97-2.594v1.819c0 1.432 5.807 2.593 12.97 2.593 7.162 0 12.969-1.161 12.969-2.593v-1.82c0 1.433-5.807 2.594-12.97 2.594z" fill="#EFB150"/><path d="M88.909 49.519c7.162 0 12.969-1.161 12.969-2.593s-5.807-2.593-12.97-2.593c-7.162 0-12.969 1.16-12.969 2.593 0 1.432 5.807 2.593 12.97 2.593z" fill="#FFC947"/><path d="M89.826 46.017c-7.163 0-12.97-1.161-12.97-2.594v1.82c0 1.431 5.807 2.592 12.97 2.592s12.969-1.16 12.969-2.593v-1.819c0 1.433-5.806 2.594-12.97 2.594z" fill="#EFB150"/><path d="M89.826 46.017c7.163 0 12.969-1.161 12.969-2.594 0-1.432-5.806-2.593-12.97-2.593-7.162 0-12.969 1.161-12.969 2.593 0 1.433 5.807 2.594 12.97 2.594z" fill="#FFC947"/><path d="M87.667 41.51c-7.162 0-12.969-1.161-12.969-2.593v1.818c0 1.432 5.807 2.593 12.97 2.593 7.162 0 12.969-1.16 12.969-2.593v-1.818c0 1.432-5.807 2.593-12.97 2.593z" fill="#EFB150"/><path d="M87.667 41.51c7.163 0 12.97-1.16 12.97-2.593 0-1.432-5.807-2.593-12.97-2.593-7.162 0-12.969 1.16-12.969 2.593 0 1.432 5.807 2.593 12.97 2.593z" fill="#FFC947"/><path d="M88.909 38.099c-7.163 0-12.97-1.161-12.97-2.593v1.819c0 1.432 5.807 2.593 12.97 2.593 7.162 0 12.969-1.161 12.969-2.593v-1.82c0 1.433-5.807 2.594-12.97 2.594z" fill="#EFB150"/><path d="M88.909 38.099c7.162 0 12.969-1.161 12.969-2.593s-5.807-2.593-12.97-2.593c-7.162 0-12.969 1.16-12.969 2.593 0 1.432 5.807 2.593 12.97 2.593z" fill="#FFC947"/><path d="M87.15 34.596c-7.164 0-12.97-1.16-12.97-2.592v1.818c0 1.432 5.807 2.593 12.97 2.593 7.162 0 12.969-1.16 12.969-2.593v-1.819c0 1.432-5.807 2.593-12.97 2.593z" fill="#EFB150"/><path d="M87.15 34.596c7.162 0 12.969-1.16 12.969-2.593 0-1.432-5.807-2.593-12.97-2.593s-12.97 1.161-12.97 2.593 5.807 2.593 12.97 2.593z" fill="#FFC947"/><path d="M87.667 30.09c-7.162 0-12.969-1.161-12.969-2.593v1.818c0 1.432 5.807 2.593 12.97 2.593 7.162 0 12.969-1.16 12.969-2.593v-1.818c0 1.432-5.807 2.593-12.97 2.593z" fill="#EFB150"/><path d="M87.667 30.09c7.163 0 12.97-1.161 12.97-2.593s-5.807-2.593-12.97-2.593c-7.162 0-12.969 1.16-12.969 2.593 0 1.432 5.807 2.593 12.97 2.593z" fill="#FFC947"/><path d="M88.909 26.679c-7.163 0-12.97-1.161-12.97-2.593v1.818c0 1.433 5.807 2.593 12.97 2.593 7.162 0 12.969-1.16 12.969-2.593v-1.818c0 1.432-5.807 2.593-12.97 2.593z" fill="#EFB150"/><path d="M88.909 26.678c7.162 0 12.969-1.16 12.969-2.593 0-1.432-5.807-2.593-12.97-2.593-7.162 0-12.969 1.161-12.969 2.593 0 1.433 5.807 2.593 12.97 2.593z" fill="#FFC947"/><path d="M89.886 23.176c-7.163 0-12.97-1.16-12.97-2.593v1.819c0 1.432 5.807 2.593 12.97 2.593s12.969-1.16 12.969-2.593v-1.819c0 1.432-5.806 2.593-12.969 2.593z" fill="#EFB150"/><path d="M89.886 23.176c7.163 0 12.969-1.16 12.969-2.593 0-1.432-5.806-2.593-12.969-2.593-7.163 0-12.97 1.16-12.97 2.593 0 1.432 5.807 2.593 12.97 2.593z" fill="#FFC947"/><path d="M13.468 11.669l-.36 1.235a.682.682 0 01-.464.463l-1.235.361c-.654.191-.654 1.118 0 1.31l1.235.36a.682.682 0 01.463.463l.361 1.235c.192.655 1.118.655 1.31 0l.36-1.235a.681.681 0 01.464-.463l1.235-.36c.654-.192.654-1.119 0-1.31l-1.235-.361a.682.682 0 01-.463-.463l-.361-1.235c-.192-.655-1.118-.655-1.31 0z" fill="#EFB150"/><path d="M24.332 1.753l-.636 2.176a1.202 1.202 0 01-.816.816l-2.176.636c-1.152.336-1.152 1.969 0 2.306l2.176.636a1.2 1.2 0 01.816.816l.636 2.175c.337 1.153 1.97 1.153 2.306 0l.636-2.175a1.201 1.201 0 01.816-.816l2.176-.636c1.152-.337 1.152-1.97 0-2.306l-2.176-.636a1.201 1.201 0 01-.816-.816l-.636-2.176c-.337-1.152-1.97-1.152-2.306 0z" fill="#FFC947"/><path d="M61.365 37.231C62.633 47.723 57 57.458 48.035 61.888c-2.396 1.184-8.713 2.18-11.528 2.401-10.708.843-21.682-7.942-23.29-21.237-1.607-13.296 7.868-25.377 21.164-26.984 13.295-1.608 25.377 7.867 26.984 21.163z" fill="#C99945"/><path d="M51.442 57.288c9.47-9.47 9.47-24.824 0-34.294-9.47-9.47-24.824-9.47-34.294 0-9.47 9.47-9.47 24.825 0 34.294 9.47 9.47 24.824 9.47 34.294 0z" fill="#FFD348"/><path d="M34.261 60.906a20.691 20.691 0 01-12.778-4.428 20.69 20.69 0 01-7.799-13.845A20.693 20.693 0 0117.96 27.33a20.69 20.69 0 0113.845-7.8 20.688 20.688 0 0115.304 4.275 20.694 20.694 0 017.799 13.846 20.693 20.693 0 01-4.275 15.304 20.69 20.69 0 01-13.844 7.799c-.845.102-1.688.153-2.527.153zm.068-40.168c-.784 0-1.572.048-2.362.143A19.336 19.336 0 0019.03 28.17a19.334 19.334 0 00-3.994 14.3 19.339 19.339 0 007.288 12.937 19.332 19.332 0 0014.3 3.995 19.339 19.339 0 0012.937-7.288 19.338 19.338 0 003.995-14.3 19.336 19.336 0 00-7.288-12.937 19.336 19.336 0 00-11.939-4.138z" fill="#C99945"/><path d="M43.845 18.82h5.001a24.265 24.265 0 00-1.855-.907h-5.5c.8.26 1.586.562 2.354.907zm6.798 4.635h4.245c-.295-.31-.598-.613-.909-.908h-4.318c.336.293.663.596.982.908zm3.669 4.635h4.028c-.175-.307-.358-.61-.547-.908h-4.058c.2.298.392.6.577.908zm2.139 4.634h3.932a24.133 24.133 0 00-.311-.907h-3.946c.114.3.223.602.325.907zm1.035 4.614l.002.02h3.892l-.015-.127c-.032-.26-.068-.52-.107-.78h-3.896c.046.294.088.59.124.887zm.153 3.748c-.012.304-.03.606-.054.907h3.888c.023-.3.04-.603.052-.907h-3.886zm-.654 4.635c-.075.304-.156.607-.243.907h3.92c.084-.3.162-.603.234-.907h-3.911zm-1.679 4.634c-.149.306-.305.609-.467.908h4.003c.154-.3.303-.602.445-.908h-3.981zm-3.765 5.542h4.182c.254-.296.5-.599.739-.907h-4.134c-.255.31-.517.612-.787.907zm-5.838 4.635h4.722c.446-.288.883-.59 1.31-.907H47.19c-.484.32-.98.623-1.487.907z" fill="#FFD348"/></svg>