<svg width="96" height="73" fill="none" xmlns="http://www.w3.org/2000/svg"><path d="M43.878 21.487c-8.083.324-10.422-2.924-10.894-2.743-11.963 4.563-22.05 17.965-22.05 31.547 0 17.472 9.082 22.066 34.34 22.066 25.26 0 34.341-4.706 34.341-22.066 0-14.605-12.29-28.59-24.935-32.538-.664-.209-1.862 3.378-10.802 3.734z" fill="#FFD348"/><path d="M34.305 18.642s6.03 4.683 18.238 0c0 0 11.55-8.763 13.09-11.625 1.913-3.553-7.206 1.614-11.472-4.36-4.627-6.481-7.795 5.49-13.09 1.615s-6.325-1.938-8.825 0c-2.5 1.937-2.795 4.036-5.884 2.26-3.088-1.776-9.119 3.391 7.943 12.11z" fill="#FFD348"/><path d="M51.86 47.126c-.639-.577-1.452-1.017-2.268-1.323-.814-.303-1.953-.642-3.365-1.011v-6.788c1.412.449 2.362 1.352 2.726 2.709.322 1.155 1.067 1.731 2.152 1.731.576 0 1.087-.2 1.493-.597.403-.397.616-.866.616-1.411 0-.49-.13-1.025-.4-1.617a7.004 7.004 0 00-1.155-1.711c-.63-.729-1.454-1.273-2.301-1.631-.846-.357-1.876-.597-3.131-.716v-1.195c0-.893-.241-1.341-.95-1.341-.696 0-.932.46-.932 1.371v1.165c-2.51.196-4.072.89-5.285 2.087-1.212 1.195-1.832 2.731-1.832 4.602 0 1.435.302 2.61.922 3.522a6.304 6.304 0 002.45 2.115c.997.494 2.177.942 3.745 1.343v7.589c-.784-.206-1.366-.507-1.813-.897-.45-.393-.8-.826-1.02-1.3-.22-.472-.488-1.153-.787-2.046a1.777 1.777 0 00-.718-.963c-.343-.228-.765-.343-1.264-.343-.62 0-1.137.211-1.553.628-.416.421-.624.889-.624 1.413 0 .707.154 1.427.466 2.161.31.735.788 1.44 1.435 2.122.65.678 1.485 1.247 2.453 1.702.97.46 2.013.758 3.425.899v1.248c0 .498.051.866.213 1.107.159.239.426.36.824.36.431 0 .62-.148.745-.441.128-.295.1-.761.1-1.404v-.902c1.725-.133 3.035-.537 4.187-1.225 1.152-.685 2.068-1.566 2.66-2.65a7.18 7.18 0 00.908-3.485c0-.989-.174-1.9-.544-2.732a6.044 6.044 0 00-1.577-2.145zm-7.515-2.936c-1.098-.36-1.766-.76-2.252-1.2-.488-.442-.745-1.089-.745-1.95 0-.902.281-1.579.801-2.023.519-.444 1.098-.804 2.196-1.075v6.248zm4.559 10.669c-.61.663-1.422 1.105-2.677 1.321v-7.145c1.255.36 2.11.798 2.701 1.313.593.517.889 1.249.889 2.193 0 .883-.305 1.656-.913 2.318zm-6.057-32.834c-6.455 0-9.557-1.588-10.882-2.266-.663-.338-.912-1.127-.558-1.76.354-.635 1.177-.874 1.84-.535 1.145.586 3.827 1.958 9.6 1.958 6.785 0 11.038-2.64 11.08-2.666.625-.395 1.469-.233 1.884.364a1.266 1.266 0 01-.375 1.801c-.197.127-4.932 3.104-12.59 3.104z" fill="#C99945"/><path d="M6.442 25.456l-1.289-.36a.697.697 0 01-.483-.463l-.377-1.234c-.2-.653-1.166-.653-1.366 0l-.377 1.234a.697.697 0 01-.483.462l-1.289.361a.674.674 0 000 1.308l1.289.36c.233.065.415.24.483.463l.377 1.233c.2.654 1.167.654 1.366 0l.377-1.233a.697.697 0 01.483-.463l1.29-.36a.673.673 0 000-1.308z" fill="#EFB150"/><path d="M16.72 13.74l-2.27-.635a1.228 1.228 0 01-.852-.815l-.663-2.172c-.352-1.151-2.055-1.151-2.407 0l-.663 2.172c-.12.393-.441.7-.852.816l-2.27.635a1.186 1.186 0 000 2.303l2.27.635c.41.115.732.422.852.815l.663 2.173c.352 1.15 2.055 1.15 2.407 0l.663-2.173c.12-.393.441-.7.852-.815l2.27-.635a1.186 1.186 0 000-2.303z" fill="#FFD348"/><path d="M78.708 26.921l.377-1.233a.697.697 0 01.483-.463l1.289-.36a.674.674 0 000-1.308l-1.289-.36a.697.697 0 01-.483-.463l-.377-1.234c-.2-.654-1.167-.654-1.366 0l-.377 1.233a.697.697 0 01-.484.463l-1.288.36a.673.673 0 000 1.308l1.288.36c.233.066.416.24.484.463l.377 1.234c.2.654 1.166.654 1.366 0z" fill="#EFB150"/><path d="M90.948 40.018l.664-2.172c.12-.393.44-.7.851-.815l2.27-.636a1.186 1.186 0 000-2.303l-2.27-.635a1.228 1.228 0 01-.851-.815l-.664-2.173c-.352-1.15-2.055-1.15-2.406 0l-.664 2.173c-.12.393-.441.7-.851.815l-2.27.635a1.186 1.186 0 000 2.303l2.27.636c.41.114.731.422.851.815l.664 2.172c.351 1.151 2.055 1.151 2.406 0z" fill="#FFD348"/></svg>