<svg width="671" height="518" fill="none" xmlns="http://www.w3.org/2000/svg"><path fill-rule="evenodd" clip-rule="evenodd" d="M253.073 324.63c12.46-62.369-14.701-135.141 23.35-186.095 37.993-50.876 113.228-49.882 171.568-74.918C498.918 41.762 543.32 3.625 598.634.262c56.722-3.45 107.173 28.022 161.6 44.368 70.897 21.292 176.059-.255 207.886 66.6 32.95 69.214-81.177 137.022-74.588 213.4 7.626 88.392 157.508 158.844 113.338 235.782-44.102 76.836-173.285 4.321-260.387 20.393-52.597 9.705-95.835 42.479-147.849 54.936-65.024 15.572-129.569 39.608-195.277 27.239-78.344-14.746-178.616-30.834-210.985-103.711-33.362-75.109 44.6-154.043 60.701-234.639z" fill="#4000F5"/><path fill-rule="evenodd" clip-rule="evenodd" d="M253.073 324.63c12.46-62.369-14.701-135.141 23.35-186.095 37.993-50.876 113.228-49.882 171.568-74.918C498.918 41.762 543.32 3.625 598.634.262c56.722-3.45 107.173 28.022 161.6 44.368 70.897 21.292 176.059-.255 207.886 66.6 32.95 69.214-81.177 137.022-74.588 213.4 7.626 88.392 157.508 158.844 113.338 235.782-44.102 76.836-173.285 4.321-260.387 20.393-52.597 9.705-95.835 42.479-147.849 54.936-65.024 15.572-129.569 39.608-195.277 27.239-78.344-14.746-178.616-30.834-210.985-103.711-33.362-75.109 44.6-154.043 60.701-234.639z" fill="url(#paint0_linear)"/><path d="M174.207 276.776c1.37 0 2.481-.669 2.481-1.493 0-.825-1.111-1.493-2.481-1.493-1.37 0-2.48.668-2.48 1.493 0 .824 1.11 1.493 2.48 1.493z" fill="#fff" stroke="#fff" stroke-width="2.946" stroke-linecap="square"/><circle opacity=".387" cx="678.738" cy="409.736" r="9.083" transform="rotate(-68.959 678.738 409.736)" fill="#fff"/><circle opacity=".307" cx="165.465" cy="372.465" r="21.953" transform="rotate(79.098 165.465 372.465)" stroke="#9EAFFC" stroke-width="3"/><rect opacity=".887" x="31.607" y="322" width="50.178" height="50.178" rx="15" transform="rotate(39.042 31.607 322)" fill="#A4A0FC"/><path opacity=".489" d="M219.012 283.385a7.643 7.643 0 11-12.601 8.653 7.643 7.643 0 0112.601-8.653z" stroke="#9EAFFC" stroke-width="3"/><circle opacity=".067" cx="278.138" cy="269.82" r="3.759" transform="rotate(63.887 278.138 269.82)" stroke="#fff" stroke-width="3"/><rect opacity=".171" x="509.219" y="336.873" width="11.473" height="11.473" rx="3" transform="rotate(133.351 509.219 336.873)" fill="#fff"/><circle opacity=".859" cx="369.273" cy="514.727" r="67.537" transform="rotate(92.28 369.273 514.727)" stroke="#fff" stroke-width="3"/><circle opacity=".859" cx="579.082" cy="398.082" r="20.716" transform="rotate(92.28 579.082 398.082)" stroke="#fff" stroke-opacity=".05" stroke-width="3"/><defs><linearGradient id="paint0_linear" x1="78.03" y1="85.092" x2="833.82" y2="589.431" gradientUnits="userSpaceOnUse"><stop stop-color="#fff"/><stop offset=".552" stop-color="#BEEFFF" stop-opacity=".375"/><stop offset="1" stop-color="#fff" stop-opacity="0"/></linearGradient></defs></svg>