<svg width="233" height="222" fill="none" xmlns="http://www.w3.org/2000/svg"><g clip-path="url(#clip0)"><path d="M109.679 158.502l8.895 4.031-9.344 4.639-8.306-3.891 8.755-4.779z" fill="#4C4C4D"/><path d="M109.23 175.842l9.023-4.464.321-8.845-9.344 4.639v8.67z" fill="#5B5C5C"/><path d="M109.434 173.522l9.064-4.311-.093 2.173-8.971 4.446v-2.308zM110.663 158.882l-3.023 1.659 2.237 1.116 3.116-1.724-2.33-1.051zM114.048 160.412l-3.029 1.66 2.242 1.115 3.111-1.723-2.324-1.052z" fill="#B2B3B3"/><path d="M92.256 167.768v-8.594l16.974 7.998v8.669l-16.974-8.073zM118.137 155.096v-8.594l16.974 7.998v8.67l-.163-.076-16.811-7.998z" fill="#3A3A3A"/><path d="M135.559 145.831l8.895 4.037-9.343 4.632-8.312-3.885 8.76-4.784z" fill="#4C4C4D"/><path d="M135.111 163.17l9.017-4.463.326-8.839-9.343 4.632v8.67z" fill="#5B5C5C"/><path d="M126.915 134.281v16.369l-8.662-4.112V129.87l8.662 4.411z" fill="url(#paint0_linear)"/><path d="M135.676 130.127v15.739l-8.761 4.784v-16.369l8.761-4.154z" fill="#F7CA94"/><path d="M100.924 130.39l-17.33-7.957.03-8.185 17.3 8.074v8.068z" fill="#E4293C"/><path d="M100.924 130.39v16.521l34.845-16.521v-16.142l-34.845 16.142z" fill="#6C4EA0"/><path d="M100.924 130.39l-17.33-7.957v16.259l17.33 8.219V130.39z" fill="#423D98"/><path d="M100.924 146.911v16.37l-8.668-4.107v-16.673l8.668 4.41z" fill="url(#paint1_linear)"/><path d="M109.679 142.764v15.738l-8.755 4.779v-16.37l8.755-4.147z" fill="#F7CA94"/><path d="M100.866 81.807l4.095-2.384 4.776 2.384 26.085-13.01v45.597l-34.846 16.148-.11-48.735z" fill="#EF477D"/><path d="M119.36 137.459l69.836-33.014-29.032-12.636-71.03 31.81 30.226 13.84z" fill="#FCAF17"/><path d="M93.258 128.234l5.36 3.213v41.83l-4.777 2.302-.583-47.345z" fill="#F68B1F"/><path d="M179.567 112.42l5.086-3.506.011 46.685-5.097-2.518V112.42zM89.134 123.619l30.226 13.84-.116 50.855-5.54-2.769-.058-44.049-19.689-9.056-.058 43.115-4.765-2.378v-49.558z" fill="#EF4323"/><path d="M119.244 188.315l5.458-2.729-.047-44.441 59.881-28.275.128 42.729 4.532-2.267v-48.887l-69.836 33.014-.116 50.856z" fill="#F68B1F"/><path d="M89.134 123.619l24.512 17.877 5.598 46.819 5.411-47.17 64.541-36.7-100.062 19.174z" fill="url(#paint2_linear)"/><path d="M83.496 70.55l6.384-2.957-6.291-6.66-.093 9.616z" fill="#CE4F27"/><path d="M75.19 42.18l12.843-6.578 8.662 4.3-13.159 6.467-8.347-4.189z" fill="#CE783E"/><path d="M39.197 156.323l26.544 13.326 21.197-9.815-28.205-13.787-19.536 10.276z" fill="#F05123"/><path d="M65.782 174.007v-4.475L39.197 156.3v4.434l26.585 13.273z" fill="#CD2027"/><path d="M86.938 159.834l-21.156 9.698v4.475l21.145-10.019.04-4.049" fill="#D1D2D1"/><path d="M85.668 48.875l1.754-.684 11.836 5.282v11.252l-1.322 1.373-.932-11.387" fill="#7D7D7D"/><path d="M75.585 105.964v2.448l9.891 4.767v-2.541l-9.89-4.674z" fill="#474748"/><path d="M109.679 44.43l26.09-12.41v36.63l-26.09 13.005V44.429z" fill="#CE4F27"/><path d="M83.595 32.02l26.084 12.41 26.09-12.41-26.09-12.858-26.084 12.859z" fill="#CE783E"/><path d="M83.595 105.725v-24.07l-8.348-4.189v24.222l8.348 4.037zM100.912 105.836v-24.18l-8.452-4.19v24.222l8.452 4.148z" fill="#E4293C"/><path d="M92.46 77.466l-8.865 4.19v24.069l8.865-4.037V77.466z" fill="#EF477D"/><path d="M118.253 113.576L92.46 101.688l-8.865 4.037 26.084 12.221 8.574-4.37z" fill="#DBA871"/><path d="M135.769 89.501v8.629l16.916 8.155v-8.856" fill="url(#paint3_linear)"/><path d="M161.259 93.053l-25.49-11.749v8.197l16.916 7.928 8.574-4.376z" fill="#DBA871"/><path d="M152.685 106.285l8.574-4.147v-9.085l-8.574 4.376v8.856zM109.679 52.947l26.143-12.76v28.61l-26.143 13.156V52.947z" fill="#F7CA94"/><path d="M88.091 70.888l17.225 8.331-4.45 2.588-8.406-4.34-8.865 4.188-8.348-4.189 12.844-6.578z" fill="#EF385C"/><path d="M109.679 44.43L83.595 32.02v36.63l26.084 13.005V44.429z" fill="#964B2A"/><path d="M100.586 48.916l9.093 4.031v29.006l-9.093-4.785V48.916z" fill="url(#paint4_linear)"/><path d="M124.364 69.054c2.132-.976 3.029-4.382 3.029-4.382l-7.049 3.68s1.515 1.853 4.02.702z" fill="#B5775B"/><path d="M75.247 101.688v8.523l34.432 16.592v-8.857l-34.432-16.258z" fill="url(#paint5_linear)"/><path d="M109.679 126.803l8.574-4.148v-9.079l-8.574 4.37v8.857z" fill="#F7CA94"/><path d="M83.595 32.05l16.991 32.558V48.916l9.093 4.03 22.339-10.9 3.751-10.026-51.481.03h-.693z" fill="url(#paint6_linear)"/><path d="M83.595 105.62l34.658 7.956-8.574 13.227-26.084-21.183z" fill="url(#paint7_linear)"/><path d="M161.259 93.053l-8.819 13.233-16.671-15.722V85.64l25.49 7.413z" fill="url(#paint8_linear)"/><path d="M136.066 68.674l-26.09 13.01-4.771-2.383-4.095 2.383.053 23.725 11.702 5.451 23.201-42.186z" fill="url(#paint9_linear)"/><path d="M109.679 82.292l22.339-40.247-22.339 10.902-9.023-4.066-.07 15.727" fill="url(#paint10_linear)"/><path d="M131.523 181.719l23.049 11.573 34.979-16.831-24.494-11.971-33.534 17.229z" fill="#EE7625"/><path d="M145.963 101.291l-27.314 13.419 17.091 9.078 27.599-13.483-17.376-9.014z" fill="#B7BAB9"/><path d="M83.612 70.55V46.368L75.16 42.18v24.221l8.452 4.148z" fill="#964B2A"/><path d="M121.742 81.959l2.086-7.093 3.972-2.003-6.058 9.096zM112.475 80.534l8.761 1.04-4.212-3.33-4.549 2.29z" fill="#F280A9"/><path d="M120.595 81.106l-.018 18.765 1.94-1.32V80.037l-1.922 1.069z" fill="#F280A9"/><path d="M121.614 87.889c.39 0 .705-.767.705-1.712s-.315-1.712-.705-1.712c-.389 0-.704.767-.704 1.712s.315 1.712.704 1.712z" fill="#9BA4D2"/><path d="M122.075 87.889c.389 0 .704-.767.704-1.712s-.315-1.712-.704-1.712c-.39 0-.705.767-.705 1.712s.315 1.712.705 1.712z" fill="#D0E2E2"/><path d="M121.614 92.802c.39 0 .705-.767.705-1.712s-.315-1.712-.705-1.712c-.389 0-.704.767-.704 1.712s.315 1.712.704 1.712z" fill="#9BA4D2"/><path d="M122.075 92.802c.389 0 .704-.767.704-1.712s-.315-1.712-.704-1.712c-.39 0-.705.767-.705 1.712s.315 1.712.705 1.712z" fill="#D0E2E2"/><path d="M121.684 97.64c.39 0 .705-.767.705-1.713 0-.945-.315-1.711-.705-1.711-.389 0-.705.766-.705 1.711 0 .946.316 1.712.705 1.712z" fill="#9BA4D2"/><path d="M122.15 97.64c.39 0 .705-.767.705-1.713 0-.945-.315-1.711-.705-1.711-.389 0-.705.766-.705 1.711 0 .946.316 1.712.705 1.712z" fill="#D0E2E2"/><path d="M117.082 78.255l3.513 2.85 1.689-.934 1.544-5.304-6.804 3.376" fill="#E8B077"/><path d="M118.649 114.71l.035 1.694 17.097 9.143-.041-1.759-17.091-9.078z" fill="#959695"/><path d="M163.339 110.305v1.659l-27.558 13.583-.041-1.759 27.599-13.483z" fill="#C7D8D6"/><path d="M143.988 104.036l-21.937 10.773 13.724 7.297 22.17-10.831-13.957-7.239z" fill="#93A5A2"/><path d="M134.971 98.428l26.306-12.426-.291 22.918-26.312 12.818.297-23.31z" fill="#B7BAB9"/><path d="M136.247 99.234l26.305-12.426-.297 22.913-26.305 12.823.297-23.31z" fill="#C7D8D6"/><path d="M43.798 153.238l21.786 10.943 17.405-8.057-23.155-11.316-16.036 8.43z" fill="#AD4A9C"/><path d="M65.624 167.756v-3.675l-21.826-10.86v3.64l21.826 10.895z" fill="#683A96"/><path d="M82.989 156.124l-17.364 7.957v3.675l17.352-8.226.035-3.324" fill="#D1D2D1"/><path d="M43.886 148.594l21.674 10.89 17.318-8.022-23.038-11.251-15.954 8.383z" fill="#53A646"/><path d="M65.601 163.041v-3.657l-21.715-10.802v3.617L65.6 163.041z" fill="#286934"/><path d="M82.901 151.55l-.034 3.307-17.266 8.184v-3.657l17.277-7.922" fill="#D1D2D1"/><path d="M49.39 146.351l16.48 8.272 13.158-6.093-17.51-8.553-12.128 6.374z" fill="#F4E429"/><path d="M65.892 157.334v-2.781l-16.502-8.214v2.752l16.502 8.243z" fill="#ED9B24"/><path d="M79.045 148.594l-.023 2.518-13.13 6.222v-2.781l13.136-6.023" fill="#D1D2D1"/><path d="M136.247 99.234l-1.276-.806-.297 23.31 1.223.596.35-23.1z" fill="#959695"/><path d="M162.552 86.808l-1.275-.806-8.72 5.427 9.995-4.621z" fill="#B7BAB9"/><path d="M74.653 172.611l14.83 7.443 11.843-5.486-15.757-7.7-10.916 5.743z" fill="#AD4A9C"/><path d="M89.507 182.49v-2.501l-14.854-7.39v2.477l14.854 7.414z" fill="#683A96"/><path d="M101.326 174.568l-11.819 5.421v2.501l11.813-5.597.023-2.267" fill="#D1D2D1"/><path d="M74.712 169.45l14.754 7.408 11.784-5.456-15.675-7.665-10.863 5.713z" fill="#F4E429"/><path d="M89.49 179.283v-2.489l-14.778-7.355v2.459l14.778 7.385z" fill="#ED9B24"/><path d="M101.25 171.401l-11.76 5.393v2.489l11.754-5.574.024-2.249" fill="#D1D2D1"/><path d="M78.457 167.92l11.213 5.631 8.959-4.147-11.918-5.825-8.254 4.341z" fill="#53A646"/><path d="M89.693 175.392v-1.893l-11.236-5.585v1.869l11.236 5.609z" fill="#286934"/><path d="M98.629 169.404l-8.936 4.095v1.893l8.936-4.236.012-1.712" fill="#D1D2D1"/><path d="M115.487 62.505l4.287-2.074v-4.545l-4.287 2.19v4.429zM127.41 57.107l4.287-2.074v-4.54l-4.287 2.185v4.429z" fill="#B5775B"/><path d="M135.198 98.79l27.354-11.982-26.771 38.739-.583-26.757z" fill="url(#paint11_linear)"/><path d="M134.523 181.193l20.667 10.375 31.356-15.09-21.955-10.732-30.068 15.447z" fill="#D1D2D1"/><path d="M131.523 181.719l-.012 1.355 23.067 11.684-.006-1.466-23.049-11.573z" fill="#EE2827"/><path d="M189.551 176.461l-.023 1.314-34.95 16.983-.006-1.466 34.979-16.831z" fill="#DF4A26"/><path d="M134.406 177.191l20.667 10.376 14.97-4.031-20.667-10.376-14.97 4.031z" fill="#E3E5E5"/><path d="M147.377 106.538c.239.55 1.504.528 2.825-.05 1.321-.578 2.198-1.492 1.959-2.042-.239-.55-1.504-.528-2.825.05-1.321.578-2.198 1.492-1.959 2.042z" fill="#93A5A2"/><path d="M149.376 173.16l20.667 10.376 16.334-8.956-21.961-10.732-15.04 9.312z" fill="#EDEDED"/><path d="M134.406 177.191l.117 4.002 20.667 10.375-.117-4.001-20.667-10.376z" fill="#B6B7B6"/><path d="M186.377 174.58l.169 1.898-7.019 1.998 6.85-3.896z" fill="#D1D2D1"/><path d="M43.886 148.582l5.51.549-.006-2.792 29.568 2.226.087 2.629 3.856.356-17.12 22.457-21.895-25.425z" fill="url(#paint12_linear)"/><path d="M134.406 177.191l51.971-2.611-31.799 20.178-20.172-17.567z" fill="url(#paint13_linear)"/><path d="M74.7 169.322l3.757.461-.012-1.986 20.184 1.607-.006 1.7 2.627.239-11.743 11.147L74.7 169.322z" fill="url(#paint14_linear)"/><path d="M135.181 160.874l9.069-4.306-.093 2.174-8.976 4.445v-2.313zM136.369 146.193l-3.023 1.659 2.237 1.116 3.11-1.729-2.324-1.046zM139.748 147.724l-3.024 1.659 2.237 1.116 3.111-1.73-2.324-1.045z" fill="#B2B3B3"/></g><defs><linearGradient id="paint0_linear" x1="118.252" y1="140.26" x2="126.916" y2="140.26" gradientUnits="userSpaceOnUse"><stop stop-color="#BD8E5C"/><stop offset="1" stop-color="#BD8E5C"/></linearGradient><linearGradient id="paint1_linear" x1="92.258" y1="152.893" x2="100.923" y2="152.893" gradientUnits="userSpaceOnUse"><stop stop-color="#BD8E5C"/><stop offset="1" stop-color="#BD8E5C"/></linearGradient><linearGradient id="paint2_linear" x1="89.135" y1="146.38" x2="189.196" y2="146.38" gradientUnits="userSpaceOnUse"><stop offset="0" stop-color="#D2A370" stop-opacity=".4"/><stop offset="1" stop-color="#CA3135" stop-opacity=".4"/></linearGradient><linearGradient id="paint3_linear" x1="135.767" y1="97.893" x2="152.686" y2="97.893" gradientUnits="userSpaceOnUse"><stop stop-color="#BD8E5C"/><stop offset="1" stop-color="#BD8E5C"/></linearGradient><linearGradient id="paint4_linear" x1="100.587" y1="65.433" x2="109.68" y2="65.433" gradientUnits="userSpaceOnUse"><stop stop-color="#BD8E5C"/><stop offset="1" stop-color="#BD8E5C"/></linearGradient><linearGradient id="paint5_linear" x1="75.246" y1="114.246" x2="109.68" y2="114.246" gradientUnits="userSpaceOnUse"><stop stop-color="#BD8E5C"/><stop offset="1" stop-color="#BD8E5C"/></linearGradient><linearGradient id="paint6_linear" x1="109.68" y1="32.019" x2="109.68" y2="64.61" gradientUnits="userSpaceOnUse"><stop offset=".032" stop-color="#DC1F39" stop-opacity=".4"/><stop offset=".572" stop-color="#DF1F30" stop-opacity=".4"/><stop offset=".891" stop-color="#DF1F30" stop-opacity=".4"/></linearGradient><linearGradient id="paint7_linear" x1="83.594" y1="116.211" x2="118.252" y2="116.211" gradientUnits="userSpaceOnUse"><stop stop-color="#BD8E5C" stop-opacity=".2"/><stop offset="1" stop-color="#D88158" stop-opacity=".3"/></linearGradient><linearGradient id="paint8_linear" x1="135.767" y1="95.963" x2="161.257" y2="95.963" gradientUnits="userSpaceOnUse"><stop stop-color="#BD8E5C" stop-opacity=".2"/><stop offset="1" stop-color="#BD8E5C" stop-opacity=".3"/></linearGradient><linearGradient id="paint9_linear" x1="101.109" y1="89.766" x2="136.065" y2="89.766" gradientUnits="userSpaceOnUse"><stop offset="0" stop-color="#9A826D" stop-opacity=".4"/><stop offset="1" stop-color="#62395A" stop-opacity=".4"/></linearGradient><linearGradient id="paint10_linear" x1="116.302" y1="42.044" x2="116.302" y2="82.291" gradientUnits="userSpaceOnUse"><stop stop-color="#BD8E5C" stop-opacity=".2"/><stop offset="1" stop-color="#BD8E5C" stop-opacity=".3"/></linearGradient><linearGradient id="paint11_linear" x1="135.198" y1="106.178" x2="162.55" y2="106.178" gradientUnits="userSpaceOnUse"><stop offset="0" stop-color="#8FAAC1" stop-opacity=".4"/><stop offset="1" stop-color="#6D8EA6" stop-opacity=".4"/></linearGradient><linearGradient id="paint12_linear" x1="43.886" y1="160.174" x2="82.9" y2="160.174" gradientUnits="userSpaceOnUse"><stop offset="0" stop-color="#D2A370" stop-opacity=".2"/><stop offset="1" stop-color="#556F8B" stop-opacity=".3"/></linearGradient><linearGradient id="paint13_linear" x1="134.407" y1="184.668" x2="186.375" y2="184.668" gradientUnits="userSpaceOnUse"><stop offset="0" stop-color="#91ACB5" stop-opacity=".3"/><stop offset="1" stop-color="#76849B" stop-opacity=".3"/></linearGradient><linearGradient id="paint14_linear" x1="74.7" y1="175.145" x2="101.249" y2="175.145" gradientUnits="userSpaceOnUse"><stop offset="0" stop-color="#D2A370" stop-opacity=".2"/><stop offset="1" stop-color="#556F8B" stop-opacity=".3"/></linearGradient><clipPath id="clip0"><path fill="#fff" d="M0 0h233v222H0z"/></clipPath></defs></svg>