<svg width="233" height="222" fill="none" xmlns="http://www.w3.org/2000/svg"><g clip-path="url(#clip0)"><path d="M68.683 88.917l-2.33 2.162-1.69-1.344 1.398-3.74 2.622 2.922zM38.859 74.545l3.029-2.804 5.533.76-2.388 2.745-6.174-.7z" fill="#FCB247"/><path d="M60.073 171.483H50.9l15.687-7.495-1.97 5.34-4.543 2.155z" fill="#BCBCBC"/><path d="M167.638 132.686l-33.465-16.136v30.747l33.465 16.633v-31.244z" fill="#601B13"/><path d="M167.638 132.686l7.566-3.616v30.747l-7.566 4.112v-31.243z" fill="#A35225"/><path d="M134.266 116.649l33.372 16.037 7.665-3.418-33.371-16.41-7.666 3.791z" fill="#89451F"/><path d="M67.384 89.343H42.639c-.926 0-1.69-.59-1.69-1.314v-15.12c0-.724.758-1.314 1.69-1.314h24.739c.926 0 1.689.59 1.689 1.314v15.12c0 .724-.757 1.314-1.683 1.314z" fill="#FCB247"/><path d="M72.055 68.212s-7.322 1.49-9.57 2.267c-4.427 1.537-6.99 5.071-6.99 5.071l5.493 4.709s1.957-4.481 3.093-5.83c2.703-3.202 7.974-6.217 7.974-6.217zM188.794 57.995l-2.056 1.869-1.631-2.419 3.687.55z" fill="#FCB247"/><path d="M188.503 57.153l-1.788 1.543-.21-5.124 1.98 3.505" fill="#383838"/><path d="M152.231 28.743l-2.75 2.7 3.507.513-.757-3.213z" fill="#FCB247"/><path d="M162.366 111.023V90.909c0-.31-.175-.59-.448-.724l-6.67-3.348a.81.81 0 00-1.171.725v5.696l2.289 1.227.029 8.675-2.318 1.256v3.202c0 .303.169.584.443.724l6.664 3.406a.813.813 0 001.182-.725z" fill="#434343"/><path d="M162.057 111.684l-1.124.759.309-3.295 1.008 2.22-.193.316zM154.561 86.855l-1.026.66 2.156.625-1.13-1.285z" fill="#434343"/><path d="M161.172 92.147l-25.659-11.824-8.86 3.938L152.644 96.5l8.528-4.353z" fill="#FDC795"/><path d="M152.644 105.316l8.528-4.131v-9.038l-8.528 4.353v8.816z" fill="#FCC184"/><path d="M118.381 80.323l-.233 8.477 34.496 16.516V96.5l-34.263-16.177z" fill="#E1A96C"/><path d="M126.688 84.26l8.825-3.937 20.073 9.254-8.615 4.241-20.283-9.557z" fill="#31ADBA"/><path d="M146.971 93.818l-.233 8.67L118.149 88.8l.233-9.599 8.271 3.038.035 2.022 20.283 9.557z" fill="#363F99"/><path d="M101.139 121.375v24.467l-17.387-8.26v-16.084l17.387 7.91M127.002 133.276v16.288l-8.621-4.09v-16.586l8.621 4.388z" fill="#272863"/><path d="M135.81 129.198l-.093 15.604-8.715 4.762v-16.288l8.808-4.078z" fill="#255A8E"/><path d="M109.854 43.88L83.897 31.53v36.443l25.957 12.94V43.88z" fill="#601B13"/><path d="M109.854 43.88l25.956-12.35v36.443l-25.956 12.94V43.88z" fill="#A35225"/><path d="M83.897 31.53l25.957 12.35 25.956-12.35-25.956-12.794L83.897 31.53z" fill="#89451F"/><path d="M88.377 70.204l16.729 8.343-4.299 2.366-7.858-4.013-9.052 4.013-8.3-4.16 12.78-6.549z" fill="#31ADBA"/><path d="M101.087 104.702l-.058-23.87-8.307-4.166v24.18l8.365 3.856z" fill="#363F99"/><path d="M118.381 112.677l-25.659-11.831-8.86 3.938 25.992 12.239 8.527-4.346z" fill="#FDC795"/><path d="M101.035 136.81l-17.242-7.922-.105-15.791 17.451 8.279v8.032" fill="#363F99"/><path d="M101.139 129.408v16.434l34.671-16.434v-16.065l-34.671 16.065z" fill="#255A8E"/><path d="M101.139 145.842v16.294l-8.62-4.095v-16.586l8.62 4.387z" fill="#272863"/><path d="M109.854 141.712v15.663l-8.715 4.761v-16.294l8.715-4.13z" fill="#255A8E"/><path d="M92.519 166.593v-8.552l16.892 7.962v8.623l-16.892-8.033z" fill="#D03927"/><path d="M109.854 157.375l8.854 4.013-9.297 4.615-8.272-3.867 8.715-4.761z" fill="#F99B1C"/><path d="M109.411 174.626l8.97-4.44.327-8.798-9.297 4.615v8.623z" fill="#F6891F"/><path d="M118.271 153.986l.111-8.512 16.776 7.922v8.623l-16.887-8.033z" fill="#D03927"/><path d="M135.6 144.767l8.854 4.014-9.297 4.615-8.265-3.867 8.708-4.762z" fill="#F99B1C"/><path d="M135.158 162.019l8.976-4.44.32-8.798-9.296 4.615v8.623z" fill="#F6891F"/><path d="M83.897 104.866V80.913l-8.3-4.16v24.093l8.3 4.02z" fill="#363F99"/><path d="M92.722 76.754l-8.825 4.16v23.87l8.825-3.938V76.753z" fill="#3683B7"/><path d="M92.519 164.479l16.892 7.875v2.313l-16.892-8.033v-2.155z" fill="#CF5228"/><path d="M109.411 172.354l9.064-4.312-.094 2.179-8.97 4.446v-2.313z" fill="#E47325"/><path d="M118.271 151.836l16.887 7.875v2.308l-16.887-8.033v-2.15z" fill="#CF5228"/><path d="M135.158 159.711l9.063-4.311-.087 2.179-8.976 4.44v-2.308zM110.64 157.719l-3.023 1.659 2.237 1.116 3.11-1.729-2.324-1.046zM114.019 159.25l-3.024 1.653 2.243 1.116 3.111-1.723-2.33-1.046zM136.346 145.024l-3.023 1.66 2.236 1.115 3.111-1.723-2.324-1.052zM139.724 146.555l-3.023 1.659 2.237 1.116 3.11-1.723-2.324-1.052z" fill="#E47325"/><path d="M101.139 145.842v16.294l-8.62-4.095 8.62-12.199z" fill="url(#paint0_linear)"/><path d="M118.381 145.474l8.621-11.883v15.973" fill="url(#paint1_linear)"/><path d="M101.139 121.668v7.74l8.476-3.873-8.476-3.867z" fill="#3683B7"/><path d="M135.81 121.253v-7.91l-34.671 16.065v7.589l34.671-15.744z" fill="#3683B7"/><path d="M100.65 64.088l9.122 17.041 9.699-14.523-18.821-3.92v1.402z" fill="#351F1C"/><path d="M109.743 52.293l26.143-12.76v28.61l-26.143 13.156V52.293z" fill="#FCC184"/><path d="M100.65 48.256l9.093 4.037v29.006l-9.093-4.972V48.256z" fill="#E1A96C"/><path d="M123.496 70.97c2.237.409 3.145-5.597 3.145-5.597s-1.922 1.169-2.737 1.52c-.868.373-2.348 1.039-2.348 1.039s.711 2.816 1.94 3.038z" fill="#CC8543"/><path d="M100.65 64.088l9.122 17.041 12.774-18.928-21.913-.917.017 2.804z" fill="url(#paint2_linear)"/><path d="M93.934 58.83l15.914 2.238.035 2.845-15.95-5.083z" fill="#212121"/><path d="M108.333 124.951l-7.298 11.859.052-15.102 7.246 3.243z" fill="url(#paint3_linear)"/><path d="M146.778 100.846l5.866 4.47 8.528-13.169-7.474-1.758-6.791 3.389-.129 7.068z" fill="url(#paint4_linear)"/><path d="M83.77 31.565l14.562 27.878 2.289.31.029-11.497 9.093 4.037 22.549-11.007 3.652-9.756-52.175.035z" fill="url(#paint5_linear)"/><path d="M132.292 41.286l-9.023 19.42-3.058-4.558-10.363 4.92-9.227-1.315.029-11.497 9.093 4.037 22.549-11.007z" fill="url(#paint6_linear)"/><path d="M135.81 88.76l.076-2.46 17.812 4.089-6.791 3.389-.129 7.068-10.892-9.06-.076-3.027z" fill="url(#paint7_linear)"/><path d="M109.854 125.839l8.527-4.13v-9.032l-8.527 4.346v8.816z" fill="#FCC184"/><path d="M83.897 104.784l8.825-3.938 20.073 9.254-8.615 4.248-20.283-9.564z" fill="#31ADBA"/><path d="M104.943 78.635l-3.914 2.196.058 23.871 17.295 7.975v9.031l17.428-8.365.076-45.2-9.099 4.574-6.553 25.53-6.379-19.028-4.112 2.08-4.8-2.664z" fill="#3683B7"/><path d="M112.562 79.879l-.081 30.379.314-.158 5.587 2.577v9.032l-5.971 2.921.023 7.232 15.023-6.666.215-52.912-15.11 7.595z" fill="#F9F9FA"/><path d="M75.597 100.846l-.233 8.483 34.49 16.51v-8.816l-34.257-16.177z" fill="#E1A96C"/><path d="M104.18 114.348l-.204 8.675-28.612-13.694.233-9.604 8.266 3.038.034 2.021 20.283 9.564z" fill="#363F99"/><path d="M104.04 121.019l5.575 4.516 8.766-12.858-7.409-1.718-6.792 3.389v6.776" fill="url(#paint8_linear)"/><path d="M84.055 104.778l26.917 6.181-6.792 3.389-.14 6.671-19.985-16.241z" fill="url(#paint9_linear)"/><path d="M98.64 111.45l4.09 2.547v9.803l-4.09-2.086V111.45z" fill="#515251"/><path d="M104.145 123.344l-1.415.456v-9.803l1.415-.497v9.844z" fill="#898989"/><path d="M100.685 113.208l-.006 9.546-2.038-1.04V111.45l.168-.065s.164.497.67 1.011c.472.479 1.206.771 1.206.771" fill="url(#paint10_linear)"/><path d="M116.896 77.642l6.524-3.196-2.644 8.144-3.88-4.948z" fill="#246130"/><path d="M120.7 81.264l-3.612 22.55 5.01 8.354 3.378-12.326-4.776-18.578z" fill="#246130"/><path d="M117.653 77.758l6.524-3.195-2.644 8.144-3.88-4.949z" fill="#2EA849"/><path d="M121.457 81.38l-3.611 22.551 5.009 8.354 3.379-12.326-4.777-18.578z" fill="#2EA849"/><path d="M122.855 112.285l-.757-.117-2.388-5.141 3.145 5.258zM120.95 84.36l.391-2.062-1.439-1.484.74 1.285.308 2.261zM124.177 74.563l-.757-.117-1.613 1.308 2.37-1.191z" fill="#246130"/><path d="M107.646 107.682l9.396 4.329 18.879-43.898L109.807 81.1l-4.672-2.582-4.071 2.284.046 23.871 6.536 3.009z" fill="url(#paint11_linear)"/><path d="M123.863 53.075l-1.777-.625-12.314 5.854v9.85l1.66.742v-9.698l12.431-6.123zM137.767 46.492l-1.777-.62-11.213 5.322v9.85l1.66.742v-9.698l11.33-5.596z" fill="#212121"/><path d="M111.432 59.198l12.431-6.122-.035 4.627-.041 4.732-12.355 6.461v-9.698zM126.403 52.106l11.364-5.614-.116 9.434-11.248 5.878v-9.698z" fill="#3A3A3A"/><path d="M126.449 56.627l-.041 1.928-2.697 1.344-.023-2.004 2.761-1.268z" fill="#3A3A3A"/><path d="M123.845 57.837l2.604-1.21-1.672-.601-.932.35v1.46z" fill="#212121"/><path d="M161.469 111.648V91.534c0-.31-.175-.59-.448-.724l-6.67-3.348a.81.81 0 00-1.171.725v5.696l2.289 1.227.029 8.675-2.318 1.256v3.202c0 .303.169.584.443.724l6.664 3.406a.814.814 0 001.182-.725z" fill="#232323"/><path d="M153.844 94.274l.035-5.2c0-.35.373-.578.687-.426l5.697 2.804a.49.49 0 01.268.427l.146 18.852a.474.474 0 01-.693.427l-5.72-2.968a.48.48 0 01-.257-.427l.012-3.172 1.497-.812-.029-8.675-1.643-.83z" fill="#8F9393"/><path d="M95.068 63.798c1.957-.183 3.339-2.537 3.086-5.258-.252-2.72-2.044-4.779-4.001-4.596-1.957.183-3.339 2.537-3.086 5.258.252 2.721 2.044 4.78 4 4.596z" fill="#59595A"/><path d="M95.227 63.013a55.691 55.691 0 013.973 19.77c.023 1.606-.064 3.347-1.09 4.585-1.025 1.24-3.308 1.473-4.077.065-.606-1.11.151-2.623 1.328-3.062 1.177-.438 2.557.03 3.478.889.92.864 1.456 2.056 1.858 3.254.798 2.4 1.136 4.936 1.928 7.337s2.167 4.767 4.404 5.948c1.537.812 3.326.987 5.062 1.004 1.928.024 3.926-.146 5.626-1.057 3.012-1.618 4.387-5.124 6.449-7.858 3.891-5.147 10.31-7.565 16.38-9.733 1.951-.695 3.943-1.402 6.011-1.495 3.466-.158 6.961 1.536 8.994 4.358.512-1.986-.693-4.101-2.377-5.27-1.683-1.168-3.757-1.6-5.767-1.998-2.009-.397-4.083-.817-5.778-1.974-3.198-2.173-4.281-6.403-4.427-10.276-.105-2.892.111-6.024-1.514-8.419" stroke="#414042" stroke-width="9" stroke-miterlimit="10"/><path d="M186.86 59.04h-33.301a2.282 2.282 0 01-2.272-2.278V30.595a2.282 2.282 0 012.272-2.278h33.301a2.282 2.282 0 012.272 2.278v26.167a2.282 2.282 0 01-2.272 2.278z" fill="#FCB247"/><path d="M149.376 70.62s6.676-3.366 8.639-4.71c3.868-2.646 5.417-6.735 5.417-6.735l-6.53-3.097s-.716 4.843-1.456 6.444c-1.771 3.803-6.07 8.097-6.07 8.097z" fill="#FCB247"/><path d="M184.804 61.126h-33.302a2.281 2.281 0 01-2.271-2.279V32.681a2.282 2.282 0 012.271-2.279h33.302a2.282 2.282 0 012.272 2.279v26.166a2.279 2.279 0 01-2.272 2.279z" fill="#F6862A"/><path d="M148.835 70.865s6.25-4.102 8.05-5.661c3.541-3.073 4.619-7.309 4.619-7.309l-6.839-2.33s-.163 4.89-.722 6.566c-1.322 3.972-5.108 8.734-5.108 8.734zM65.176 91.446H40.437c-.926 0-1.69-.59-1.69-1.314v-15.12c0-.724.758-1.314 1.69-1.314h24.739c.926 0 1.69.59 1.69 1.315v15.119c0 .724-.758 1.314-1.69 1.314z" fill="#F6862A"/><path d="M112.574 107.542l-.006 3.487-7.794 1.63-6.034-1.776v-3.341h13.834z" fill="#AE206F"/><path d="M105.66 114.231c3.822 0 6.92-1.499 6.92-3.348 0-1.849-3.098-3.347-6.92-3.347s-6.92 1.498-6.92 3.347 3.098 3.348 6.92 3.348z" fill="#AE206F"/><path d="M112.574 107.541c0 .76-.524 1.461-1.41 2.028-1.264.8-3.262 1.32-5.504 1.32-3.822 0-6.92-1.496-6.92-3.348 0-1.846 3.098-3.347 6.92-3.347 3.821 0 6.914 1.496 6.914 3.347z" fill="#EE2B62"/><path d="M105.66 109.948c2.75 0 4.98-1.077 4.98-2.407 0-1.329-2.23-2.406-4.98-2.406-2.751 0-4.981 1.077-4.981 2.406 0 1.33 2.23 2.407 4.981 2.407z" fill="#BAE2E2"/><path d="M100.685 113.162v-3.295l9.774-4.732s-4.001-2.057-9.18-.182c-2.54.918-2.54 2.588-2.54 2.588v3.348s0 .66.606 1.373c.437.502 1.34.9 1.34.9z" fill="url(#paint12_linear)"/><path d="M98.14 59.373l11.626 1.718-.005-2.77 12.337-5.847 1.765.601-.018 3.301.932-.35v-4.844l3.752-1.799 2.097.52-4.2 8.664-2.61 1.285-.029 2.583-3.454 1.81-8.901 4.65-1.66-.741-.041-4.3-11.65-3.698.117-.724" fill="url(#paint13_linear)"/><path d="M48.551 179.551l42.26 20.29 25.957-12.344-42.266-20.74-25.95 12.794z" fill="#89451F"/><path d="M72.213 68.13s-7.16 2.133-9.332 3.109c-4.276 1.922-6.518 5.666-6.518 5.666l5.883 4.207s1.555-4.639 2.569-6.082c2.411-3.43 7.398-6.9 7.398-6.9z" fill="#F6862A"/><path d="M48.493 177.799l42.26 20.289 25.957-12.344-42.266-20.74-25.95 12.795z" fill="#C85127"/><path d="M57.58 177.956l31.216 14.991 19.17-9.119L76.75 168.51l-19.17 9.446z" fill="#F1E8C4"/><path d="M93.99 64.09c1.957-.182 3.34-2.536 3.087-5.257-.253-2.721-2.044-4.78-4.002-4.596-1.957.182-3.339 2.536-3.086 5.258.253 2.72 2.044 4.778 4.001 4.596z" fill="#081A18"/><path d="M116.71 185.744l.058 1.753-25.956 12.344-.058-1.753 25.956-12.344z" fill="#DD8429"/><path d="M48.493 177.799l.058 1.752 4.445.444-4.503-2.196z" fill="#89451F"/><path d="M77.496 170.14l-15.611 7.752 4.893 2.454 15.343-7.671-4.625-2.535zM83.595 173.16l-15.611 7.752 4.893 2.454 15.337-7.676-4.62-2.53zM81.189 180.422l-6.757 3.312 14.405 7.204 6.757-3.272-14.405-7.244zM89.245 176.432l-6.757 3.312 14.405 7.203 6.757-3.271-14.405-7.244z" fill="#E0D6AF"/><path d="M60.062 171.507s2.603 4.948 2.563 4.831c-.041-.117 10.56-5.608 10.56-5.608l-7.531-1.987-5.592 2.764z" fill="#BCBCBC"/><path d="M60.178 170.782s2.604 4.948 2.563 4.832c-.04-.117 10.56-5.609 10.56-5.609l-7.53-1.986-5.593 2.763z" fill="#D1D2D1"/><path d="M73.302 170.005l-.117.719-1.514.117 1.63-.836zM60.062 171.507l.116-.725.623 1.285-.74-.56z" fill="#BCBCBC"/><path d="M135.903 117.543l31.735 15.143-.047 13.834-31.746-15.715.058-13.262z" fill="#772916"/><path d="M167.591 146.52v1.344l-31.863-15.599.117-1.46 31.746 15.715z" fill="#4F180F"/><path d="M140.988 137.476l-.017-6.572-2.289-1.151v6.66l2.306 1.063zM158.405 145.772l-.017-6.572-2.29-1.151v6.66l2.307 1.063z" fill="#DBA728"/><path d="M140.581 137.652l-.018-6.573-2.289-1.151v6.66l2.307 1.064zM157.997 145.947l-.017-6.572-2.289-1.151v6.66l2.306 1.063z" fill="#C46028"/><path d="M146.673 119.67l12.151 5.836 2.791-1.244-12.151-5.971-2.791 1.379z" fill="#772916"/><path d="M146.673 118.501l12.151 5.836 2.791-1.244-12.151-5.971-2.791 1.379z" fill="#A34A24"/><path d="M146.673 118.501v1.169l12.151 5.836v-1.169l-12.151-5.836z" fill="#772916"/><path d="M161.615 123.093v1.169l-2.791 1.244v-1.168l2.791-1.245z" fill="#BD5C29"/><path d="M116.71 185.744l-25.898 14.097-42.319-22.042 25.95-12.795 16.608 35.205" fill="url(#paint14_linear)"/><path d="M175.303 129.268l-7.665 34.661-32.783-47.496 40.448 12.835z" fill="url(#paint15_linear)"/><path d="M154.077 87.561l6.856 24.882.985-22.264-7.357-3.325-.484.707z" fill="url(#paint16_linear)"/><path d="M168.436 44.225l-7.759-3.535v10.446l7.759 3.71V44.225z" fill="#37449C"/><path d="M168.436 44.225l7.753-3.535v10.446l-7.753 3.71V44.225z" fill="#35BFC5"/><path d="M160.677 40.69l7.759 3.535 7.753-3.535-7.753-3.669-7.759 3.67z" fill="#1D7DAF"/><path d="M53.642 82.187l-5.16-2.355v6.953l5.16 2.47v-7.068z" fill="#188743"/><path d="M53.642 82.187l5.161-2.355v6.953l-5.16 2.47v-7.068z" fill="#4DB748"/><path d="M48.481 79.832l5.161 2.355 5.161-2.355-5.16-2.442-5.162 2.442z" fill="#A2CD3A"/></g><defs><linearGradient id="paint0_linear" x1="92.521" y1="153.989" x2="101.142" y2="153.989" gradientUnits="userSpaceOnUse"><stop stop-color="#6853A3" stop-opacity=".1"/><stop offset=".373" stop-color="#154CA1" stop-opacity=".2"/></linearGradient><linearGradient id="paint1_linear" x1="118.383" y1="141.577" x2="127.004" y2="141.577" gradientUnits="userSpaceOnUse"><stop stop-color="#6853A3" stop-opacity=".1"/><stop offset=".373" stop-color="#154CA1" stop-opacity=".2"/></linearGradient><linearGradient id="paint2_linear" x1="111.588" y1="81.129" x2="111.588" y2="61.286" gradientUnits="userSpaceOnUse"><stop stop-color="#BD8E5C" stop-opacity=".2"/><stop offset="1" stop-color="#D88158" stop-opacity=".3"/></linearGradient><linearGradient id="paint3_linear" x1="101.037" y1="129.259" x2="108.336" y2="129.259" gradientUnits="userSpaceOnUse"><stop offset="0" stop-color="#FFF33B" stop-opacity=".2"/><stop offset=".001" stop-color="#D2D774" stop-opacity=".226"/><stop offset=".002" stop-color="#A7C490" stop-opacity=".254"/><stop offset=".003" stop-color="#82B6A3" stop-opacity=".282"/><stop offset=".004" stop-color="#63ADB1" stop-opacity=".31"/><stop offset=".005" stop-color="#47A6BA" stop-opacity=".339"/><stop offset=".006" stop-color="#31A2BE" stop-opacity=".368"/><stop offset=".007" stop-color="#27A1C0" stop-opacity=".4"/><stop offset="1" stop-color="#1B3953" stop-opacity=".3"/></linearGradient><linearGradient id="paint4_linear" x1="153.977" y1="90.39" x2="153.977" y2="105.314" gradientUnits="userSpaceOnUse"><stop stop-color="#BD8E5C" stop-opacity=".2"/><stop offset="1" stop-color="#D88158" stop-opacity=".3"/></linearGradient><linearGradient id="paint5_linear" x1="109.855" y1="31.531" x2="109.855" y2="59.75" gradientUnits="userSpaceOnUse"><stop offset="0" stop-color="#FFF33B" stop-opacity=".2"/><stop offset="0" stop-color="#F5DD3A" stop-opacity=".208"/><stop offset="0" stop-color="#B8932E" stop-opacity=".254"/><stop offset=".001" stop-color="#8B5E1D" stop-opacity=".301"/><stop offset=".001" stop-color="#6A3A0C" stop-opacity=".349"/><stop offset=".002" stop-color="#521E00" stop-opacity=".397"/><stop offset=".002" stop-color="#3E0100" stop-opacity=".446"/><stop offset=".003" stop-color="#2F0000" stop-opacity=".495"/><stop offset=".003" stop-color="#200" stop-opacity=".546"/><stop offset=".004" stop-color="#1D0000" stop-opacity=".6"/><stop offset=".686" stop-color="#680A14" stop-opacity=".4"/><stop offset=".984" stop-color="#A72C39" stop-opacity=".4"/></linearGradient><linearGradient id="paint6_linear" x1="116.456" y1="61.069" x2="116.456" y2="41.285" gradientUnits="userSpaceOnUse"><stop stop-color="#BD8E5C" stop-opacity=".2"/><stop offset="1" stop-color="#D88158" stop-opacity=".3"/></linearGradient><linearGradient id="paint7_linear" x1="135.81" y1="93.575" x2="153.697" y2="93.575" gradientUnits="userSpaceOnUse"><stop offset="0" stop-color="#FFF33B" stop-opacity=".2"/><stop offset=".001" stop-color="#D2D774" stop-opacity=".226"/><stop offset=".002" stop-color="#A7C490" stop-opacity=".254"/><stop offset=".003" stop-color="#82B6A3" stop-opacity=".282"/><stop offset=".004" stop-color="#63ADB1" stop-opacity=".31"/><stop offset=".005" stop-color="#47A6BA" stop-opacity=".339"/><stop offset=".006" stop-color="#31A2BE" stop-opacity=".368"/><stop offset=".007" stop-color="#27A1C0" stop-opacity=".4"/><stop offset="1" stop-color="#1B3953" stop-opacity=".3"/></linearGradient><linearGradient id="paint8_linear" x1="111.212" y1="110.958" x2="111.212" y2="125.538" gradientUnits="userSpaceOnUse"><stop stop-color="#BD8E5C" stop-opacity=".2"/><stop offset="1" stop-color="#D88158" stop-opacity=".3"/></linearGradient><linearGradient id="paint9_linear" x1="84.058" y1="112.899" x2="110.97" y2="112.899" gradientUnits="userSpaceOnUse"><stop offset="0" stop-color="#FFF33B" stop-opacity=".2"/><stop offset=".001" stop-color="#D2D774" stop-opacity=".226"/><stop offset=".002" stop-color="#A7C490" stop-opacity=".254"/><stop offset=".003" stop-color="#82B6A3" stop-opacity=".282"/><stop offset=".004" stop-color="#63ADB1" stop-opacity=".31"/><stop offset=".005" stop-color="#47A6BA" stop-opacity=".339"/><stop offset=".006" stop-color="#31A2BE" stop-opacity=".368"/><stop offset=".007" stop-color="#27A1C0" stop-opacity=".4"/><stop offset="1" stop-color="#1B3953" stop-opacity=".3"/></linearGradient><linearGradient id="paint10_linear" x1="98.638" y1="117.068" x2="100.685" y2="117.068" gradientUnits="userSpaceOnUse"><stop stop-color="#81B0BB" stop-opacity=".2"/><stop offset="1" stop-color="#4A6D92" stop-opacity=".3"/></linearGradient><linearGradient id="paint11_linear" x1="101.064" y1="90.061" x2="135.92" y2="90.061" gradientUnits="userSpaceOnUse"><stop offset="0" stop-color="#FFF33B" stop-opacity=".2"/><stop offset=".001" stop-color="#D2D774" stop-opacity=".226"/><stop offset=".002" stop-color="#A7C490" stop-opacity=".254"/><stop offset=".003" stop-color="#82B6A3" stop-opacity=".282"/><stop offset=".004" stop-color="#63ADB1" stop-opacity=".31"/><stop offset=".005" stop-color="#47A6BA" stop-opacity=".339"/><stop offset=".006" stop-color="#31A2BE" stop-opacity=".368"/><stop offset=".007" stop-color="#27A1C0" stop-opacity=".4"/><stop offset="1" stop-color="#1B3953" stop-opacity=".3"/></linearGradient><linearGradient id="paint12_linear" x1="98.742" y1="108.661" x2="110.457" y2="108.661" gradientUnits="userSpaceOnUse"><stop stop-color="#81B0BB" stop-opacity=".2"/><stop offset="1" stop-color="#4A6D92" stop-opacity=".3"/></linearGradient><linearGradient id="paint13_linear" x1="98.08" y1="59.138" x2="130.628" y2="59.138" gradientUnits="userSpaceOnUse"><stop offset="0" stop-color="#FFF33B" stop-opacity=".2"/><stop offset="0" stop-color="#F0DD3F" stop-opacity=".204"/><stop offset="0" stop-color="#A79640" stop-opacity=".227"/><stop offset=".001" stop-color="#746739" stop-opacity=".251"/><stop offset=".001" stop-color="#514730" stop-opacity=".275"/><stop offset=".002" stop-color="#383128" stop-opacity=".299"/><stop offset=".002" stop-color="#252021" stop-opacity=".323"/><stop offset=".003" stop-color="#18131C" stop-opacity=".348"/><stop offset=".003" stop-color="#0F0A19" stop-opacity=".373"/><stop offset=".004" stop-color="#0C0718" stop-opacity=".4"/><stop offset=".471" stop-color="#130E1C" stop-opacity=".7"/><stop offset=".984" stop-color="#888A8C" stop-opacity=".2"/></linearGradient><linearGradient id="paint14_linear" x1="48.491" y1="182.606" x2="116.711" y2="182.606" gradientUnits="userSpaceOnUse"><stop stop-color="#B42E17" stop-opacity=".4"/><stop offset="1" stop-color="#AE5F32" stop-opacity=".2"/></linearGradient><linearGradient id="paint15_linear" x1="134.855" y1="140.182" x2="175.303" y2="140.182" gradientUnits="userSpaceOnUse"><stop stop-color="#4E0000" stop-opacity=".7"/><stop offset="1" stop-color="#941A24" stop-opacity=".4"/></linearGradient><linearGradient id="paint16_linear" x1="154.078" y1="99.647" x2="161.916" y2="99.647" gradientUnits="userSpaceOnUse"><stop offset="0" stop-color="#FFF33B" stop-opacity=".2"/><stop offset=".001" stop-color="#D2D774" stop-opacity=".226"/><stop offset=".002" stop-color="#A7C490" stop-opacity=".254"/><stop offset=".003" stop-color="#82B6A3" stop-opacity=".282"/><stop offset=".004" stop-color="#63ADB1" stop-opacity=".31"/><stop offset=".005" stop-color="#47A6BA" stop-opacity=".339"/><stop offset=".006" stop-color="#31A2BE" stop-opacity=".368"/><stop offset=".007" stop-color="#27A1C0" stop-opacity=".4"/><stop offset="1" stop-color="#1B3953" stop-opacity=".3"/></linearGradient><clipPath id="clip0"><path fill="#fff" d="M0 0h233v222H0z"/></clipPath></defs></svg>