<svg width="207" height="452" fill="none" xmlns="http://www.w3.org/2000/svg"><path fill-rule="evenodd" clip-rule="evenodd" d="M50.445 66.94c30.644-2.373 65.467-10.871 89.574 8.218 24.007 19.01 17.579 56.388 28.275 85.101 11.417 30.647 48.204 58.018 36.4 88.518-11.954 30.886-59.087 24.727-87.069 42.399-25.083 15.842-38.484 47.525-67.18 55.022-32.832 8.577-75.388 13.062-98.611-11.708-23.748-25.328 1.085-67.719-7.43-101.396-7.575-29.954-44.313-51.222-38.853-81.634 5.47-30.465 38.138-47.586 64.85-63.168 24.457-14.267 51.824-19.168 80.044-21.353z" fill="#FB52C3"/><path fill-rule="evenodd" clip-rule="evenodd" d="M50.445 66.94c30.644-2.373 65.467-10.871 89.574 8.218 24.007 19.01 17.579 56.388 28.275 85.101 11.417 30.647 48.204 58.018 36.4 88.518-11.954 30.886-59.087 24.727-87.069 42.399-25.083 15.842-38.484 47.525-67.18 55.022-32.832 8.577-75.388 13.062-98.611-11.708-23.748-25.328 1.085-67.719-7.43-101.396-7.575-29.954-44.313-51.222-38.853-81.634 5.47-30.465 38.138-47.586 64.85-63.168 24.457-14.267 51.824-19.168 80.044-21.353z" fill="url(#paint0_linear)"/><path fill="#FEACCF" d="M149 9.781L165.941 0l9.781 16.941-16.941 9.781z"/><path d="M115.041 358.464l42.568 24.577-24.577 42.568-42.568-24.577 24.577-42.568z" stroke="#FC75CD" stroke-width="8"/><circle cx="29.5" cy="442.5" r="9.5" fill="#FEA5D3"/><path d="M58.5 140c0 7.41-6.221 13.5-14 13.5s-14-6.09-14-13.5 6.221-13.5 14-13.5 14 6.09 14 13.5z" stroke="#fff" stroke-width="3"/><circle opacity=".332" cx="179.569" cy="103.569" r="2.475" transform="rotate(-80.621 179.569 103.569)" stroke="#FD8BD2" stroke-width="3"/><circle opacity=".6" cx="164.338" cy="181.805" r="2.475" transform="rotate(112.563 164.338 181.805)" stroke="#fff" stroke-width="3"/><path opacity=".066" stroke="#fff" stroke-width="8" d="M177.317 198.839l8.299-2.336 2.335 8.299-8.298 2.336z"/><path opacity=".59" stroke="#fff" stroke-width="8" d="M123.988 156.533l-.8 8.584-8.584-.8.8-8.584z"/><path opacity=".221" fill="#fff" d="M81 432.846l11.634 2.943-2.944 11.634-11.633-2.943z"/><path opacity=".215" stroke="#FFAFCD" stroke-width="8" d="M61.193 46.684l-2.808-27.49 27.491-2.809 2.808 27.491z"/><circle opacity=".376" cx="3.533" cy="213.779" r="6.865" transform="rotate(21.802 3.533 213.779)" fill="#fff"/><defs><linearGradient id="paint0_linear" x1="56" y1="63" x2="56" y2="353" gradientUnits="userSpaceOnUse"><stop stop-color="#FFB1C9"/><stop offset="1" stop-color="#fff" stop-opacity="0"/></linearGradient></defs></svg>