<svg width="1340" height="827" fill="none" xmlns="http://www.w3.org/2000/svg"><path fill-rule="evenodd" clip-rule="evenodd" d="M898.084 421.584c57.981 16.103 75.418 102.181 132.946 119.824 63.58 19.497 131.51-30.655 196.92-18.662 75.86 13.909 170.14 26.953 209.61 93.2 38.18 64.074-3.18 148.674-22.58 220.692-16.64 61.798-76.55 107.654-82.98 171.332-8.08 80.11 76.17 162.95 41.88 235.8-31.04 65.94-125.85 73.29-196.26 92.15-62.76 16.81-127.93 10.6-192.888 12.05-58.017 1.3-117.273 13.71-172.567-3.89-54.167-17.25-90.369-66.96-139.534-95.5-50.468-29.28-106.36-45.39-156.023-76.02-62.658-38.65-150.549-60.45-176.769-129.23-25.357-66.51 9.299-146.883 48.981-205.984 39.258-58.471 146.163-55.35 170.787-121.331 28.692-76.884-81.244-173.462-35.375-241.513 39.351-58.381 139.123-5.973 208.841-15.842 56.298-7.968 110.226-52.29 165.011-37.076z" fill="#BD00FF"/><path fill-rule="evenodd" clip-rule="evenodd" d="M898.084 421.584c57.981 16.103 75.418 102.181 132.946 119.824 63.58 19.497 131.51-30.655 196.92-18.662 75.86 13.909 170.14 26.953 209.61 93.2 38.18 64.074-3.18 148.674-22.58 220.692-16.64 61.798-76.55 107.654-82.98 171.332-8.08 80.11 76.17 162.95 41.88 235.8-31.04 65.94-125.85 73.29-196.26 92.15-62.76 16.81-127.93 10.6-192.888 12.05-58.017 1.3-117.273 13.71-172.567-3.89-54.167-17.25-90.369-66.96-139.534-95.5-50.468-29.28-106.36-45.39-156.023-76.02-62.658-38.65-150.549-60.45-176.769-129.23-25.357-66.51 9.299-146.883 48.981-205.984 39.258-58.471 146.163-55.35 170.787-121.331 28.692-76.884-81.244-173.462-35.375-241.513 39.351-58.381 139.123-5.973 208.841-15.842 56.298-7.968 110.226-52.29 165.011-37.076z" fill="url(#paint0_linear)"/><circle opacity=".376" cx="1019.33" cy="614.332" r="17.913" transform="rotate(134.356 1019.33 614.332)" fill="#fff"/><path fill="#DC7AFF" d="M1236.61 355l6.615 50.612-50.612 6.615-6.615-50.612z"/><circle opacity=".6" cx="722.706" cy="466.706" r="37.89" transform="rotate(-134.883 722.706 466.706)" stroke="#fff" stroke-width="3"/><path opacity=".221" fill="#fff" d="M1185.82 589.735l-18.734 25.088-25.088-18.734L1160.732 571z"/><path opacity=".215" stroke="#FBFBFB" stroke-width="8" d="M1288.87 595.453l81.385 24.45-24.45 81.384-81.385-24.45z"/><path d="M1417.09 436.767l-76.16 58.325-58.32-76.159 76.16-58.325 58.32 76.159z" stroke="#ECB7FF" stroke-width="8"/><circle cx="498.4" cy="673.4" r="24.788" transform="rotate(112.554 498.4 673.4)" fill="#D868FF"/><defs><linearGradient id="paint0_linear" x1="892.191" y1="418.429" x2="892" y2="1164.5" gradientUnits="userSpaceOnUse"><stop stop-color="#EFC2FF"/><stop offset="1" stop-color="#fff" stop-opacity="0"/></linearGradient></defs></svg>