<svg width="677" height="571" fill="none" xmlns="http://www.w3.org/2000/svg"><path fill-rule="evenodd" clip-rule="evenodd" d="M109.074 187.63c12.459-62.368-14.702-135.14 23.349-186.094 37.993-50.876 113.228-49.883 171.568-74.92 50.927-21.854 95.329-59.99 150.643-63.354 56.722-3.449 107.173 28.022 161.6 44.368 70.897 21.293 176.059-.255 207.886 66.6 32.951 69.215-81.177 137.022-74.588 213.4 7.626 88.392 157.505 158.844 113.341 235.782-44.105 76.836-173.288 4.321-260.39 20.393-52.597 9.705-95.835 42.479-147.849 54.936-65.024 15.572-129.569 39.608-195.277 27.24-78.344-14.747-178.616-30.834-210.986-103.711-33.36-75.11 44.601-154.043 60.703-234.64z" fill="#4000F5"/><path fill-rule="evenodd" clip-rule="evenodd" d="M109.074 187.63c12.459-62.368-14.702-135.14 23.349-186.094 37.993-50.876 113.228-49.883 171.568-74.92 50.927-21.854 95.329-59.99 150.643-63.354 56.722-3.449 107.173 28.022 161.6 44.368 70.897 21.293 176.059-.255 207.886 66.6 32.951 69.215-81.177 137.022-74.588 213.4 7.626 88.392 157.505 158.844 113.341 235.782-44.105 76.836-173.288 4.321-260.39 20.393-52.597 9.705-95.835 42.479-147.849 54.936-65.024 15.572-129.569 39.608-195.277 27.24-78.344-14.747-178.616-30.834-210.986-103.711-33.36-75.11 44.601-154.043 60.703-234.64z" fill="url(#paint0_linear)"/><path d="M30.207 232.232a2.48 2.48 0 10.001-4.96 2.48 2.48 0 000 4.96z" fill="#fff" stroke="#fff" stroke-width="2.946" stroke-linecap="square"/><circle opacity=".387" cx="534.738" cy="272.738" r="9.083" transform="rotate(-68.959 534.738 272.738)" fill="#fff"/><path opacity=".721" stroke="#9D96FB" stroke-width="8" d="M632.756 485.173l23.766 39.267-39.266 23.766-23.767-39.267z"/><circle opacity=".307" cx="625.308" cy="349.308" r="17.549" transform="rotate(79.098 625.308 349.308)" stroke="#fff" stroke-width="3"/><circle opacity=".768" cx="543.728" cy="563.858" r="3.759" transform="rotate(-104.452 543.728 563.858)" stroke="#490DF6" stroke-width="3"/><path opacity=".887" fill="#fff" d="M501.006 371.641l22.416 18.18-18.18 22.415-22.415-18.18z"/><circle opacity=".307" cx="72.207" cy="126.425" r="11.99" transform="rotate(79.098 72.207 126.425)" stroke="#9EAFFC" stroke-width="3"/><path opacity=".887" fill="#A4A0FC" d="M18.18 54.218l22.415 18.18-18.179 22.415L0 76.633z"/><path opacity=".489" d="M70.644 10.642a3.759 3.759 0 11-6.197 4.255 3.759 3.759 0 016.197-4.255z" stroke="#9EAFFC" stroke-width="3"/><circle opacity=".591" cx="149.559" cy="450.32" r="9.083" transform="rotate(-43.1 149.559 450.32)" fill="#fff"/><circle opacity=".68" cx="529.859" cy="514.933" r="3.759" transform="rotate(-28.902 529.859 514.933)" stroke="#fff" stroke-width="3"/><circle opacity=".067" cx="134.138" cy="132.823" r="3.759" transform="rotate(63.887 134.138 132.823)" stroke="#fff" stroke-width="3"/><path opacity=".171" fill="#fff" d="M365.219 199.876l-7.876 8.343-8.343-7.876 7.876-8.343z"/><path opacity=".558" fill="#6238F7" d="M450.631 547.415l-5.59 10.02-10.019-5.59 5.59-10.02z"/><circle opacity=".859" cx="225.273" cy="377.729" r="67.537" transform="rotate(92.28 225.273 377.729)" stroke="#fff" stroke-width="3"/><path opacity=".979" d="M640.991 215.736l47.955-31.699 31.698 47.955-47.955 31.698-31.698-47.954z" stroke="#fff" stroke-width="8"/><circle opacity=".227" cx="160.062" cy="446.279" r="9.083" transform="rotate(119.154 160.062 446.279)" fill="#fff"/><defs><linearGradient id="paint0_linear" x1="-65.97" y1="-51.908" x2="689.82" y2="452.431" gradientUnits="userSpaceOnUse"><stop stop-color="#fff"/><stop offset=".552" stop-color="#BEEFFF" stop-opacity=".375"/><stop offset="1" stop-color="#fff" stop-opacity="0"/></linearGradient></defs></svg>