<svg xmlns="http://www.w3.org/2000/svg" version="1.1" x="0" y="0" xml:space="preserve" id="svg755" width="150" height="180"><style type="text/css" id="style2">.st0{fill:#fcaf17}.st1{fill:#ef4323}.st2{fill:#f68b1f}.st3{fill:#e4293c}.st4{fill:#ef385c}.st5{fill:#ef477d}.st6{fill:#3a3a3a}.st7{fill:#4c4c4d}.st8{fill:#5b5c5c}.st9{fill:#484848}.st12{fill:#efecd5}.st13{fill:#474748}.st14{fill:#282828}.st15{fill:#0d688d}.st17{fill:#08ae87}.st19{fill:#8b4a9d}.st23{fill:#5e5e5f}.st24{fill:#4a494a}.st25{fill:#dba871}.st28{fill:#ffce40}.st32{fill:#878687}.st34{fill:#f7ca94}.st43{fill:#d6c2b2}.st49{fill:#da1866}.st50{fill:#c9db2b}.st51{fill:#9ac63c}</style><g id="Layer_1" transform="matrix(.05803 0 0 .05803 -32.96 -24.836)"><path id="XMLID_329_" class="st0" d="M1085.3 3051.9l271.2-127.8-271.2-132.1L830 2924.1z" fill="#fcaf17"/><path id="XMLID_98_" class="st1" d="M1085.7 3050.8L830 2924v42.5l255.7 127.2z" fill="#ef4323"/><path id="XMLID_95_" class="st2" d="M1356.5 2924l-270.8 126.8v42.9l270.8-123.6V2924" fill="#f68b1f"/><path id="XMLID_101_" class="st3" d="M2961.5 3066.1l-180.2-90.1v46.6l180.2 86.9z" fill="#e4293c"/><path id="XMLID_100_" class="st4" d="M2961.5 3066.1l191.5-90.3-191.5-93.3-180.2 93.3z" fill="#ef385c"/><path id="XMLID_99_" class="st5" d="M3153 2976l-191.5 90.1v43.4l191.5-86.9V2976" fill="#ef477d"/><path id="XMLID_104_" class="st3" d="M1832.8 3476l-223.9-111.9v58l223.9 107.9z" fill="#e4293c"/><path id="XMLID_103_" class="st4" d="M1832.8 3476l237.9-112.1-237.9-115.9-223.9 115.9z" fill="#ef385c"/><path id="XMLID_102_" class="st5" d="M2070.7 3364.1L1832.8 3476v54l237.9-107.9v-58" fill="#ef477d"/><path id="XMLID_23_" class="st6" d="M1483.8 2824.6l291.4 136.9v148.4l-291.4-138.2z" fill="#3a3a3a"/><path id="XMLID_24_" class="st7" d="M1782.9 2813.1l152.7 69-160.4 79.4-142.6-66.6 150.3-81.8" fill="#4c4c4d"/><path id="XMLID_25_" class="st8" d="M1930.1 3033.5l5.5-151.4-160.4 79.4v148.4z" fill="#5b5c5c"/><path id="XMLID_28_" class="st6" d="M1928.1 2607.7l291.4 136.9V2893l-291.4-138.2z" fill="#3a3a3a"/><path id="XMLID_27_" class="st7" d="M2227.2 2596.2l152.7 69.1-160.4 79.3-142.7-66.5 150.4-81.9" fill="#4c4c4d"/><path id="XMLID_26_" class="st8" d="M2374.3 2816.6l5.6-151.3-160.4 79.3V2893z" fill="#5b5c5c"/><path id="XMLID_34_" class="st9" d="M983.4 1569v13.3l.2 1180.1 375.6 180.5v-1223L983.4 1569" fill="#484848"/><path id="XMLID_53_" d="M1370.7 936.6l30.1-11.7 203.2 90.4v192.6l-22.7 23.5-16-194.9" fill="#7d7d7d"/><path id="XMLID_93_" class="st0" d="M1253.4 3423.5l340.9-160.7-340.9-166.1-320.8 166.1z" fill="#fcaf17"/><path id="XMLID_30_" d="M1103.6 1517.6L983.4 1569l320.4 158.5 115.8-59.2z" fill="#5e5e5e"/><path id="XMLID_66_" class="st12" d="M983.6 1704.7v114.1L1446 2041v-118.6l-462.4-217.7" fill="#efecd5"/><path id="XMLID_65_" class="st12" d="M983.6 1841.1v114.1l462.4 222.2v-118.6l-462.4-217.7" fill="#efecd5"/><path id="XMLID_64_" class="st12" d="M983.6 1975.2v114.1l462.4 222.2v-118.6l-462.4-217.7" fill="#efecd5"/><path id="XMLID_63_" class="st12" d="M983.6 2111.1v114l462.4 222.2v-118.6l-462.4-217.6" fill="#efecd5"/><path id="XMLID_62_" class="st12" d="M983.6 2245.2v114.1l462.4 222.2v-118.6l-462.4-217.7" fill="#efecd5"/><path id="XMLID_61_" class="st12" d="M983.6 2381.6v114l462.4 222.2v-118.6l-462.4-217.6" fill="#efecd5"/><path id="XMLID_60_" class="st12" d="M983.6 2515.7v114.1L1446 2852v-118.6l-462.4-217.7" fill="#efecd5"/><path id="XMLID_59_" class="st12" d="M983.6 2648.3v114.1l375.6 180.5 86.8-76.9-462.4-217.7" fill="#efecd5"/><path id="XMLID_57_" class="st13" d="M1197.6 1913.8v41.9l169.8 81.6v-43.5l-169.8-80" fill="#474748"/><path id="XMLID_56_" class="st13" d="M1197.6 2184.4v41.9l169.8 81.6v-43.5l-169.8-80" fill="#474748"/><path id="XMLID_55_" class="st13" d="M1197.6 2323.5v41.9l169.8 81.6v-43.6l-169.8-79.9" fill="#474748"/><path id="XMLID_54_" class="st13" d="M1190 2579.4v41.9l169.8 81.6v-43.5l-169.8-80" fill="#474748"/><path id="XMLID_52_" class="st13" d="M1190 2718.5v41.9l169.8 81.6v-43.6l-169.8-79.9" fill="#474748"/><path id="XMLID_51_" class="st9" d="M1335.1 1426l120.9 36.5-10 1533.5-110.9-53.1z" fill="#484848"/><path id="XMLID_50_" class="st14" d="M2078.8 2678.7l-148.7-70.4V2323l148.7 75.5z" fill="#282828"/><path id="XMLID_49_" class="st6" d="M2229.2 2596.8l-150.4 81.9v-280.2l150.4-71.1z" fill="#3a3a3a"/><path id="XMLID_48_" class="st15" d="M1632.6 2331.9l-297.5-136.2.5-140.1 297 138.2v138.1" fill="#0d688d"/><path id="XMLID_47_" d="M1632.6 2331.9v282.8l598.2-282.8v-276.3l-598.2 276.3" fill="#666766"/><path id="XMLID_46_" class="st9" d="M1632.6 2331.9l-297.5-136.2V2474l297.5 140.7v-282.8" fill="#484848"/><path id="XMLID_45_" class="st14" d="M1632.6 2894.9l-148.8-70.3v-285.4l148.8 75.5z" fill="#282828"/><path id="XMLID_44_" class="st6" d="M1782.9 2813.1l-150.3 81.8v-280.2l150.3-71z" fill="#3a3a3a"/><path id="XMLID_43_" class="st17" d="M1631.6 1500.3l70.3-40.8 82 40.8 447.8-222.7v780.5l-598.2 276.4-1.9-834.2" fill="#08ae87"/><path id="XMLID_42_" d="M1930.1 2456.9L3129 1891.8l-498.4-216.3L1411.2 2220l518.9 236.9" fill="#9061a9"/><path id="XMLID_41_" class="st19" d="M3129 2728.6v-836.8l-1198.9 565.1-2 870.5z" fill="#8b4a9d"/><path id="XMLID_40_" d="M1930.1 2456.9l-2 870.5-516.9-259.1V2220z" fill="#3f2e89"/><path id="XMLID_38_" d="M2230.8 648.1v627l-447.9 222.6V860.5z" fill="#ce4f27"/><path id="XMLID_37_" d="M1782.9 860.5l447.9-212.4L1782.9 428l-447.8 220.1z" fill="#ce783e"/><path id="XMLID_35_" class="st15" d="M1335.1 1497.7l-143.3-71.7v414.6l143.3 69.1z" fill="#0d688d"/><path id="XMLID_33_" class="st15" d="M1632.4 1497.7l-145.1-71.7v414.6l145.1 71z" fill="#0d688d"/><path id="XMLID_32_" class="st17" d="M1487.3 1426l-152.2 71.7v412l152.2-69.1V1426" fill="#08ae87"/><ellipse id="XMLID_72_" transform="rotate(-15.971 2020.223 2186.108)" class="st23" cx="2020.4" cy="2186.4" rx="256.7" ry="146.6" fill="#5e5e5f"/><path id="XMLID_31_" class="st19" d="M2385.6 2470.1v627l-447.9 222.6v-637.2z" fill="#8b4a9d"/><ellipse id="XMLID_22_" transform="rotate(-15.971 2015.164 2157)" class="st24" cx="2015.3" cy="2157.3" rx="256.7" ry="146.6" fill="#4a494a"/><path id="XMLID_18_" class="st25" d="M1487.3 1840.6l-152.2 69.1 447.8 209.2 147.2-74.8z" fill="#dba871"/><path id="XMLID_1_" d="M3025.6 2670.4v-604.2L2045.9 2526l-1.5 628.1z" fill="#6d4c9c"/><path id="XMLID_89_" d="M2471.5 2602.6l-129.5-37.9 80.4 189.4 252-118.7v-194.1l-84.6 117.7-82-112.8z" fill="#fee474"/><path id="XMLID_88_" class="st28" d="M2390 2738.1l-78.4-183 30.4 9.6 80.4 189.4z" fill="#ffce40"/><path id="XMLID_90_" class="st28" d="M2488.7 2439l19.5 7.8-36.2 156.3-20.8-6z" fill="#ffce40"/><path id="XMLID_91_" class="st28" d="M2654.9 2433.5l19.5 6.9-84.6 118.6-12.2-16.7z" fill="#ffce40"/><linearGradient id="XMLID_325_" gradientUnits="userSpaceOnUse" x1="3128.992" y1="2605.768" x2="1411.217" y2="2605.768"><stop offset="0" id="stop62" stop-color="#0058a8" stop-opacity=".3"/><stop offset="1" id="stop64" stop-color="#0066a8" stop-opacity=".2"/></linearGradient><path id="XMLID_77_" d="M3129 1891.8L1411.2 2220l526.5 1099.7z" fill="url(#XMLID_325_)"/><path id="XMLID_58_" d="M2936.2 2631.5l-891.6 426.6-.2 96 981.2-483.7z" fill="#353535"/><path id="XMLID_67_" d="M2936.2 2631.5v-522.4l89.4-42.9v604.2z" fill="#232323"/><ellipse id="XMLID_80_" transform="rotate(-12.839 2565.024 1951.075)" class="st23" cx="2564.5" cy="1951.1" rx="256.7" ry="146.6" fill="#5e5e5f"/><ellipse id="XMLID_15_" transform="rotate(-12.111 2559.31 1922.34)" class="st24" cx="2559.5" cy="1922.4" rx="256.7" ry="146.6" fill="#4a494a"/><ellipse id="XMLID_29_" transform="rotate(-15.971 2559.25 1922.134)" class="st32" cx="2559.5" cy="1922.4" rx="58.9" ry="33.6" fill="#878687"/><linearGradient id="XMLID_326_" gradientUnits="userSpaceOnUse" x1="2230.759" y1="1775.643" x2="2521.213" y2="1775.643"><stop offset="0" id="stop73" stop-color="#bd8e5c"/><stop offset="1" id="stop75" stop-color="#bd8e5c"/></linearGradient><path id="XMLID_21_" d="M2230.8 1632v147.7l290.4 139.6v-151.6" fill="url(#XMLID_326_)"/><path id="XMLID_20_" class="st25" d="M2230.8 1491.7V1632l290.4 135.7 147.2-74.9z" fill="#dba871"/><path id="XMLID_14_" class="st34" d="M2668.4 1848.3v-155.5l-147.2 74.9v151.6z" fill="#f7ca94"/><ellipse id="XMLID_16_" transform="rotate(-15.971 2020.222 2157)" class="st32" cx="2020.4" cy="2157.3" rx="58.9" ry="33.6" fill="#878687"/><path id="XMLID_69_" d="M2082.5 1190.7v264.8l-242.7 121.8v-268.4z" fill="#e1a96c"/><path id="XMLID_13_" class="st34" d="M2231.7 787.9v489.7l-448.8 225.2v-496.5z" fill="#f7ca94"/><path id="XMLID_36_" d="M1412.3 1313.4L1708 1456l-76.4 44.3-144.3-74.3-152.2 71.7-143.3-71.7 220.5-112.6" fill="#079995"/><path id="XMLID_39_" d="M1335.1 648.1v627l447.8 222.6V860.5z" fill="#964b2a"/><linearGradient id="XMLID_330_" gradientUnits="userSpaceOnUse" x1="1626.819" y1="1220.032" x2="1782.922" y2="1220.032"><stop offset="0" id="stop86" stop-color="#bd8e5c"/><stop offset="1" id="stop88" stop-color="#bd8e5c"/></linearGradient><path id="XMLID_12_" d="M1782.9 1006.3v496.5l-156.1-81.9V937.3z" fill="url(#XMLID_330_)"/><path id="XMLID_70_" d="M1985.5 1333.1c16.9 10.6 63.5-16.7 72.1-34.8 8.1-17.2 33.9-92.4 33.9-92.4l-105.9 52.9c-.1 0-15.8 64.4-.1 74.3z" fill="#a56444"/><path id="XMLID_9_" d="M1765.2 2569.5l-.8 366.7-217.8-109.1v-357.5z" fill="#ead4be"/><linearGradient id="XMLID_336_" gradientUnits="userSpaceOnUse" x1="1191.777" y1="2055.568" x2="1782.922" y2="2055.568"><stop offset="0" id="stop95" stop-color="#bd8e5c"/><stop offset="1" id="stop97" stop-color="#bd8e5c"/></linearGradient><path id="XMLID_19_" d="M1191.8 1840.6v145.9l591.1 284v-151.6l-591.1-278.3" fill="url(#XMLID_336_)"/><path id="XMLID_17_" class="st34" d="M1930.1 2199.5v-155.4l-147.2 74.8v151.6z" fill="#f7ca94"/><path id="XMLID_84_" d="M2109.1 1513.8v313.5l-287.3 144.1v-317.8z" fill="#81c67b"/><path id="XMLID_85_" class="st43" d="M1732.3 2712.2l-.4 172.4-102.4-51.3v-168.1z" fill="#d6c2b2"/><path id="XMLID_86_" class="st43" d="M1613 2747.8l-.1 71.3-42.4-21.2v-69.6z" fill="#d6c2b2"/><path id="XMLID_87_" class="st43" d="M1613 2662.9l-.1 71.3-42.4-21.2v-69.5z" fill="#d6c2b2"/><linearGradient id="XMLID_360_" gradientUnits="userSpaceOnUse" x1="1782.922" y1="1205.941" x2="1782.922" y2="648.08"><stop offset="0" id="stop106" stop-color="#fff33b" stop-opacity=".2"/><stop offset=".001" id="stop108" stop-color="#ffe83d" stop-opacity=".204"/><stop offset=".004" id="stop110" stop-color="#f7be42" stop-opacity=".227"/><stop offset=".007" id="stop112" stop-color="#ee9941" stop-opacity=".251"/><stop offset=".011" id="stop114" stop-color="#e87c3f" stop-opacity=".275"/><stop offset=".014" id="stop116" stop-color="#e3623d" stop-opacity=".299"/><stop offset=".018" id="stop118" stop-color="#e04a3b" stop-opacity=".323"/><stop offset=".021" id="stop120" stop-color="#de353a" stop-opacity=".348"/><stop offset=".025" id="stop122" stop-color="#dc2539" stop-opacity=".373"/><stop offset=".029" id="stop124" stop-color="#dc1f39" stop-opacity=".4"/><stop offset=".572" id="stop126" stop-color="#df1f30" stop-opacity=".4"/><stop offset=".891" id="stop128" stop-color="#df1f30" stop-opacity=".4"/></linearGradient><path id="XMLID_78_" d="M2230.8 648.1l-895.7.5 291.7 557.3V937.3l156.1 69 383.5-186.6z" fill="url(#XMLID_360_)"/><linearGradient id="XMLID_361_" gradientUnits="userSpaceOnUse" x1="1335.085" y1="2089.195" x2="1930.069" y2="2089.195"><stop offset="0" id="stop132" stop-color="#bd8e5c" stop-opacity=".2"/><stop offset="1" id="stop134" stop-color="#d88158" stop-opacity=".3"/></linearGradient><path id="XMLID_76_" d="M1782.9 2270.5l-447.8-362.6 595 136.2z" fill="url(#XMLID_361_)"/><linearGradient id="XMLID_362_" gradientUnits="userSpaceOnUse" x1="2230.759" y1="1742.609" x2="2668.36" y2="1742.609"><stop offset="0" id="stop138" stop-color="#bd8e5c" stop-opacity=".2"/><stop offset="1" id="stop140" stop-color="#bd8e5c" stop-opacity=".3"/></linearGradient><path id="XMLID_75_" d="M2517 1919.3l-286.2-269.1v-84.3l437.6 126.9z" fill="url(#XMLID_362_)"/><linearGradient id="XMLID_363_" gradientUnits="userSpaceOnUse" x1="1631.617" y1="1639.576" x2="2231.719" y2="1639.576"><stop offset="0" id="stop144" stop-color="#fff33b" stop-opacity=".2"/><stop offset="0" id="stop146" stop-color="#f7e946" stop-opacity=".206"/><stop offset=".001" id="stop148" stop-color="#c9d05e" stop-opacity=".232"/><stop offset=".002" id="stop150" stop-color="#a1bc6c" stop-opacity=".259"/><stop offset=".003" id="stop152" stop-color="#80ae74" stop-opacity=".286"/><stop offset=".004" id="stop154" stop-color="#65a479" stop-opacity=".314"/><stop offset=".005" id="stop156" stop-color="#4e9d7c" stop-opacity=".341"/><stop offset=".006" id="stop158" stop-color="#3c9a7d" stop-opacity=".37"/><stop offset=".007" id="stop160" stop-color="#36987e" stop-opacity=".4"/><stop offset=".593" id="stop162" stop-color="#4f7770" stop-opacity=".4"/><stop offset="1" id="stop164" stop-color="#4c7c72" stop-opacity=".4"/></linearGradient><path id="XMLID_6_" d="M1833.4 2000.6l398.3-722-447.8 222.6-82-40.8-70.3 40.8 1 406.1z" fill="url(#XMLID_363_)"/><linearGradient id="XMLID_365_" gradientUnits="userSpaceOnUse" x1="1896.606" y1="1508.594" x2="1896.606" y2="819.67"><stop offset="0" id="stop168" stop-color="#bd8e5c" stop-opacity=".2"/><stop offset="1" id="stop170" stop-color="#bd8e5c" stop-opacity=".3"/></linearGradient><path id="XMLID_71_" d="M1782.9 1508.6l383.5-688.9-383.5 186.6-154.9-69.6-1.2 269.2" fill="url(#XMLID_365_)"/><path id="XMLID_11_" class="st4" d="M2035.7 1169.7l-224.3 110.7v-166l448.8-218.8v163.1l-156.5 77.3-35.7-48z" fill="#ef385c"/><path id="XMLID_10_" class="st49" d="M1782.9 1101.6l-276.4 6.7 276.4 159.3v-166" fill="#da1866"/><path id="XMLID_79_" class="st50" d="M1355.5 936.6l37.9-17.7 204 89.3v200.3l-37 20.3-167-109.8V918.9l203.6 94.8" fill="#c9db2b"/><path id="XMLID_74_" class="st51" d="M1559.1 1031.3l1.3 197.5-204.9-92.2v-200l203.6 94.7" fill="#9ac63c"/><path id="XMLID_5_" class="st50" d="M1467 954.9l83.3 38.8-.3-243.7 456.8-212-86.2-42.4-453.6 215z" fill="#c9db2b"/><path id="XMLID_3_" class="st51" d="M1441 939l83.1 38.7V722.9l482.7-224.3-85.4-42.2L1441 683.5z" fill="#9ac63c"/><path id="XMLID_7_" class="st5" d="M1811.4 1114.4l448.8-218.8-30.5-10.6-446.8 214.1v168.6l28.5 12.7z" fill="#ef477d"/><path id="XMLID_8_" class="st49" d="M1782.9 1101.6v166.1l28.5 12.7v-166z" fill="#da1866"/><linearGradient id="XMLID_366_" gradientUnits="userSpaceOnUse" x1="1782.922" y1="1125.455" x2="2051.318" y2="1125.455"><stop offset="0" id="stop182" stop-color="#fff33b" stop-opacity=".2"/><stop offset="0" id="stop184" stop-color="#ffe83d" stop-opacity=".204"/><stop offset="0" id="stop186" stop-color="#f7be42" stop-opacity=".227"/><stop offset="0" id="stop188" stop-color="#ee9941" stop-opacity=".251"/><stop offset="0" id="stop190" stop-color="#e87c3f" stop-opacity=".275"/><stop offset="0" id="stop192" stop-color="#e3623d" stop-opacity=".299"/><stop offset="0" id="stop194" stop-color="#e04a3b" stop-opacity=".323"/><stop offset="0" id="stop196" stop-color="#de353a" stop-opacity=".348"/><stop offset="0" id="stop198" stop-color="#dc2539" stop-opacity=".373"/><stop offset="0" id="stop200" stop-color="#dc1f39" stop-opacity=".4"/><stop offset=".572" id="stop202" stop-color="#df1f30" stop-opacity=".4"/><stop offset=".891" id="stop204" stop-color="#df1f30" stop-opacity=".4"/></linearGradient><path id="XMLID_81_" d="M2051.3 970.5l-160.6 270.7-79.3 39.2-28.5-12.8v-168.5z" fill="url(#XMLID_366_)"/><linearGradient id="XMLID_367_" gradientUnits="userSpaceOnUse" x1="1597.4" y1="1184.653" x2="1782.922" y2="1184.653"><stop offset="0" id="stop208" stop-color="#fff33b" stop-opacity=".2"/><stop offset=".001" id="stop210" stop-color="#ffe83d" stop-opacity=".204"/><stop offset=".004" id="stop212" stop-color="#f7be42" stop-opacity=".227"/><stop offset=".007" id="stop214" stop-color="#ee9941" stop-opacity=".251"/><stop offset=".011" id="stop216" stop-color="#e87c3f" stop-opacity=".275"/><stop offset=".014" id="stop218" stop-color="#e3623d" stop-opacity=".299"/><stop offset=".018" id="stop220" stop-color="#e04a3b" stop-opacity=".323"/><stop offset=".021" id="stop222" stop-color="#de353a" stop-opacity=".348"/><stop offset=".025" id="stop224" stop-color="#dc2539" stop-opacity=".373"/><stop offset=".029" id="stop226" stop-color="#dc1f39" stop-opacity=".4"/><stop offset=".572" id="stop228" stop-color="#df1f30" stop-opacity=".4"/><stop offset=".891" id="stop230" stop-color="#df1f30" stop-opacity=".4"/></linearGradient><path id="XMLID_83_" d="M1605.6 1165.4l-8.2-20.1v-39.2l185.5-4.5v166.1z" fill="url(#XMLID_367_)"/><path id="XMLID_82_" class="st50" d="M1406.7 936.6h-51.2l49.3 22.9z" fill="#c9db2b"/><path id="XMLID_4_" class="st50" d="M2007.3 537l-.5-38.4-41.8 19.5 38.1 21.7 4.2-1.5z" fill="#c9db2b"/><linearGradient id="XMLID_386_" gradientUnits="userSpaceOnUse" x1="1440.97" y1="896.93" x2="1768.782" y2="896.93"><stop offset="0" id="stop236" stop-color="#fff33b" stop-opacity=".2"/><stop offset="0" id="stop238" stop-color="#f2e93b" stop-opacity=".217"/><stop offset="0" id="stop240" stop-color="#d3dc3a" stop-opacity=".252"/><stop offset="0" id="stop242" stop-color="#bad23b" stop-opacity=".288"/><stop offset="0" id="stop244" stop-color="#a8cb3b" stop-opacity=".324"/><stop offset="0" id="stop246" stop-color="#9ec73c" stop-opacity=".361"/><stop offset="0" id="stop248" stop-color="#9ac63c" stop-opacity=".4"/><stop offset=".891" id="stop250" stop-color="#67bb72" stop-opacity=".4"/></linearGradient><path id="XMLID_2_" d="M1549.4 986.7l48 21.5v137.1L1441 855.2V683.5l78.2-35h249.6L1550 750z" fill="url(#XMLID_386_)"/><path id="XMLID_322_" class="st3" d="M721.7 2746L568 2669.1v39.8l153.7 74.1z" fill="#e4293c"/><path id="XMLID_320_" class="st4" d="M721.7 2746l163.3-77-163.3-79.5L568 2669z" fill="#ef385c"/><path id="XMLID_306_" class="st5" d="M885 2669.1L721.7 2746v37l163.3-74.1v-39.8" fill="#ef477d"/><path id="XMLID_94_" class="st1" d="M1253.9 3422.1l-321.3-159.5v53.4l321.3 160z" fill="#ef4323"/><path id="XMLID_92_" class="st2" d="M1594.3 3262.6l-340.4 159.5v53.9l340.4-155.4v-58" fill="#f68b1f"/><path id="XMLID_97_" class="st0" d="M2613.6 3464.1l420.5-198.1-420.5-204.9-395.7 204.9z" fill="#fcaf17"/><path id="XMLID_328_" class="st1" d="M2614.5 3464.1l-395-198.5v53.4l395 199z" fill="#ef4323"/><path id="XMLID_327_" class="st2" d="M3034.1 3265.6l-419.6 198.5v53.9l419.6-194.4v-58" fill="#f68b1f"/></g></svg>