<svg width="139" height="81" fill="none" xmlns="http://www.w3.org/2000/svg"><path d="M63.721 80.797H30.134L21.308 62.7h35.243c.546 0 1.05.336 1.313.877l7.17 14.702c.551 1.131-.171 2.518-1.313 2.518z" fill="#C99945"/><path d="M30.183 80.797H1.446c-1.1 0-1.796-1.336-1.264-2.426l7.23-14.826c.255-.521.739-.845 1.265-.845h14.276c.525 0 1.01.324 1.264.845l7.23 14.826c.532 1.09-.164 2.426-1.264 2.426z" fill="#FFD348"/><path d="M99.865 80.797H66.278L57.452 62.7h35.243c.546 0 1.049.336 1.313.877l7.169 14.702c.552 1.131-.171 2.518-1.312 2.518z" fill="#C99945"/><path d="M66.327 80.797H37.59c-1.1 0-1.796-1.336-1.264-2.426l7.23-14.826c.255-.521.739-.845 1.264-.845h14.276c.526 0 1.01.324 1.265.845l7.23 14.826c.532 1.09-.164 2.426-1.264 2.426z" fill="#FFD348"/><path d="M79.619 62.794H46.032l-8.826-18.097h35.243c.546 0 1.049.336 1.312.877l7.17 14.702c.552 1.131-.17 2.518-1.312 2.518z" fill="#C99945"/><path d="M46.08 62.794H17.345c-1.1 0-1.796-1.336-1.264-2.426l7.23-14.826c.255-.521.739-.845 1.264-.845H38.85c.526 0 1.01.324 1.265.845l7.23 14.826c.531 1.09-.165 2.426-1.264 2.426z" fill="#FFD348"/><path d="M95.516 44.791H61.93l-8.826-18.096h35.244c.545 0 1.048.335 1.312.877l7.17 14.701c.551 1.131-.171 2.518-1.313 2.518z" fill="#C99945"/><path d="M61.978 44.791H33.241c-1.1 0-1.796-1.336-1.264-2.426l7.23-14.826c.255-.52.74-.845 1.265-.845h14.276c.526 0 1.01.324 1.264.845l7.23 14.826c.532 1.09-.164 2.426-1.264 2.426z" fill="#FFD348"/><path d="M115.762 62.794H82.175L73.35 44.697h35.243c.546 0 1.048.336 1.312.877l7.17 14.702c.552 1.131-.171 2.518-1.313 2.518z" fill="#C99945"/><path d="M82.225 62.794H53.488c-1.1 0-1.796-1.336-1.264-2.426l7.23-14.826c.254-.521.739-.845 1.264-.845h14.276c.526 0 1.01.324 1.264.845l7.23 14.826c.532 1.09-.164 2.426-1.263 2.426z" fill="#FFD348"/><path d="M136.523 80.797h-33.587L94.11 62.7h35.243c.546 0 1.049.336 1.313.877l7.17 14.702c.551 1.131-.171 2.518-1.313 2.518z" fill="#C99945"/><path d="M102.985 80.797H74.248c-1.099 0-1.795-1.336-1.264-2.426l7.231-14.826c.254-.521.738-.845 1.264-.845h14.276c.526 0 1.01.324 1.264.845l7.231 14.826c.531 1.09-.165 2.426-1.265 2.426z" fill="#FFD348"/><path d="M27.257 26.235l-1.18-.345a.65.65 0 01-.441-.442l-.345-1.179c-.182-.624-1.067-.624-1.25 0l-.344 1.179a.652.652 0 01-.442.442l-1.179.345c-.624.182-.624 1.067 0 1.25l1.18.344a.65.65 0 01.441.442l.345 1.179c.182.624 1.067.624 1.25 0l.344-1.18a.65.65 0 01.442-.441l1.179-.345c.624-.183.624-1.067 0-1.25z" fill="#EFB150"/><path d="M36.657 15.04l-2.076-.608a1.146 1.146 0 01-.78-.779l-.606-2.076c-.322-1.1-1.88-1.1-2.201 0l-.607 2.076a1.148 1.148 0 01-.779.78l-2.076.606c-1.1.322-1.1 1.88 0 2.201l2.076.607a1.148 1.148 0 01.78.779l.606 2.076c.322 1.1 1.88 1.1 2.201 0l.607-2.076a1.147 1.147 0 01.779-.78l2.076-.606c1.1-.321 1.1-1.88 0-2.2z" fill="#FFD348"/><path d="M113.918 36.269l.345-1.18a.645.645 0 01.442-.441l1.179-.345c.624-.182.624-1.067 0-1.25l-1.179-.344a.649.649 0 01-.442-.442l-.345-1.179c-.182-.624-1.067-.624-1.249 0l-.345 1.179a.656.656 0 01-.442.442l-1.179.345c-.624.182-.624 1.066 0 1.249l1.179.345a.655.655 0 01.442.442l.345 1.178c.182.625 1.067.625 1.249 0zM99.246 5.649l.345-1.18a.65.65 0 01.442-.441l1.178-.345c.625-.182.625-1.067 0-1.25l-1.178-.344a.649.649 0 01-.442-.442L99.246.468c-.183-.624-1.067-.624-1.25 0l-.344 1.179a.65.65 0 01-.442.442l-1.179.345c-.624.182-.624 1.067 0 1.25l1.179.344a.65.65 0 01.442.442l.344 1.179c.183.624 1.067.624 1.25 0zM4.49 56.336l.345-1.179a.65.65 0 01.442-.442l1.179-.345c.624-.182.624-1.066 0-1.249l-1.179-.345a.65.65 0 01-.442-.442l-.345-1.179c-.182-.624-1.066-.624-1.249 0l-.345 1.18a.651.651 0 01-.442.441l-1.179.345c-.624.182-.624 1.067 0 1.25l1.18.344a.65.65 0 01.441.442l.345 1.179c.182.624 1.067.624 1.25 0z" fill="#EFB150"/><path d="M125.113 48.784l.607-2.076a1.148 1.148 0 01.779-.779l2.076-.607c1.1-.321 1.1-1.879 0-2.2l-2.076-.607a1.144 1.144 0 01-.779-.78l-.607-2.075c-.321-1.1-1.879-1.1-2.201 0l-.606 2.076a1.158 1.158 0 01-.779.779l-2.077.606c-1.099.322-1.099 1.88 0 2.201l2.077.607a1.15 1.15 0 01.779.78l.606 2.075c.322 1.1 1.88 1.1 2.201 0zM89.88 20.702l.607-2.076a1.148 1.148 0 01.78-.779l2.075-.607c1.1-.321 1.1-1.88 0-2.2l-2.076-.607a1.148 1.148 0 01-.779-.78l-.607-2.076c-.321-1.1-1.879-1.1-2.2 0l-.608 2.077a1.147 1.147 0 01-.778.778l-2.076.607c-1.1.322-1.1 1.88 0 2.201l2.076.607a1.147 1.147 0 01.779.779l.606 2.076c.322 1.1 1.88 1.1 2.201 0z" fill="#FFD348"/></svg>