<svg width="65" height="296" fill="none" xmlns="http://www.w3.org/2000/svg"><g opacity=".15"><path fill-rule="evenodd" clip-rule="evenodd" d="M-41.178 37.021c20.61-1.596 44.03-7.311 60.244 5.528 16.146 12.785 11.823 37.924 19.017 57.236 7.678 20.612 32.42 39.021 24.481 59.534-8.04 20.773-39.74 16.63-58.56 28.516-16.87 10.655-25.882 31.964-45.182 37.006-22.082 5.769-50.704 8.785-66.323-7.874-15.972-17.035.73-45.546-4.997-68.196-5.095-20.146-29.804-34.45-26.131-54.904 3.678-20.49 25.65-32.005 43.616-42.485 16.449-9.595 34.854-12.891 53.835-14.361z" fill="#FB52C3"/><path fill-rule="evenodd" clip-rule="evenodd" d="M-41.178 37.021c20.61-1.596 44.03-7.311 60.244 5.528 16.146 12.785 11.823 37.924 19.017 57.236 7.678 20.612 32.42 39.021 24.481 59.534-8.04 20.773-39.74 16.63-58.56 28.516-16.87 10.655-25.882 31.964-45.182 37.006-22.082 5.769-50.704 8.785-66.323-7.874-15.972-17.035.73-45.546-4.997-68.196-5.095-20.146-29.804-34.45-26.131-54.904 3.678-20.49 25.65-32.005 43.616-42.485 16.449-9.595 34.854-12.891 53.835-14.361z" fill="url(#paint0_linear)"/><rect x="14" y="12.578" width="13.156" height="13.156" rx="5" transform="rotate(-30 14 12.578)" fill="#FEACCF"/><path d="M-2.754 244.406c3.037-5.261 9.765-7.064 15.026-4.026l7.309 4.22c5.261 3.037 7.064 9.765 4.026 15.026l-4.22 7.309c-3.037 5.261-9.765 7.064-15.026 4.026l-7.309-4.22c-5.26-3.037-7.063-9.765-4.026-15.026l4.22-7.309z" stroke="#FC75CD" stroke-width="8"/><circle opacity=".332" cx="45.666" cy="61.657" r="1.5" transform="rotate(-80.621 45.666 61.657)" stroke="#FD8BD2" stroke-width="2.346"/><circle opacity=".6" cx="35.422" cy="114.276" r="1.5" transform="rotate(112.563 35.422 114.276)" stroke="#fff" stroke-width="2.346"/><path opacity=".066" stroke="#fff" stroke-width="5.589" d="M44.28 125.805l5.38-1.514 1.514 5.38-5.38 1.514z"/><g opacity=".59"><mask id="a" fill="#fff"><rect x="11.212" y="94.85" width="11.179" height="11.179" rx="5" transform="rotate(95.323 11.212 94.85)"/></mask><rect x="11.212" y="94.85" width="11.179" height="11.179" rx="5" transform="rotate(95.323 11.212 94.85)" stroke="#fff" stroke-width="11.179" mask="url(#a)"/></g></g><defs><linearGradient id="paint0_linear" x1="-37.443" y1="34.372" x2="-37.443" y2="229.416" gradientUnits="userSpaceOnUse"><stop stop-color="#FFB1C9"/><stop offset="1" stop-color="#fff" stop-opacity="0"/></linearGradient></defs></svg>